<?xml version="1.0" standalone="no"?>
<!DOCTYPE svg PUBLIC "-//W3C//DTD SVG 1.1//EN" "http://www.w3.org/Graphics/SVG/1.1/DTD/svg11.dtd" >
<svg>
<metadata>
Created by FontForge 20090622 at Wed Dec 28 22:17:25 2016
 By deploy user
Copyright (c) Active Images, 2009. All rights reserved.
</metadata>
<defs>
<font id="Supercell-Magic" horiz-adv-x="868" >
  <font-face 
    font-family="Supercell-Magic"
    font-weight="800"
    font-stretch="normal"
    units-per-em="1000"
    panose-1="3 2 9 2 5 6 2 2 2 5"
    ascent="800"
    descent="-200"
    x-height="725"
    cap-height="919"
    bbox="-221.407 -290.25 1416 1183"
    underline-thickness="20"
    underline-position="-133"
    unicode-range="U+0020-U+FB02"
  />
<missing-glyph horiz-adv-x="1000" 
 />
    <glyph glyph-name=".notdef" horiz-adv-x="1000" 
 />
    <glyph glyph-name=".null" horiz-adv-x="0" 
 />
    <glyph glyph-name="nonmarkingreturn" horiz-adv-x="404" 
 />
    <glyph glyph-name="space" unicode=" " horiz-adv-x="404" 
 />
    <glyph glyph-name="exclam" unicode="!" horiz-adv-x="442" 
d="M390 937l-28.5 -191l-24.5 -174l-19 -141l-12 -93q-14 -4 -43.5 -7.5t-61.5 -6.5t-60.5 -4t-40.5 2q-10 159 -8 315t2 309q78 10 155 12.5t141 -21.5zM335 6q-7 -12 -28 -22.5t-49.5 -17t-60 -9.5t-60 -2.5t-48.5 6t-26 16.5t-7.5 28t-0.5 37t3.5 38.5t4.5 30.5
q3 18 19.5 32t37.5 23t42 14.5t34 7.5q12 2 27.5 0.5t31.5 -5t31.5 -9t25.5 -11.5q14 -36 21 -76.5t2 -80.5z" />
    <glyph glyph-name="quotedbl" unicode="&#x22;" horiz-adv-x="578" 
d="M261 830v-99.5t-2 -97t-6 -89.5t-12 -75q-26 -13 -60 -22.5t-65 -6.5q-3 45 -11 94.5t-17.5 97t-19 89.5t-15.5 71q50 31 102.5 40.5t105.5 -2.5zM543 805l-18.5 -95.5t-19.5 -94.5t-21.5 -86.5t-25.5 -71.5q-29 -10 -65.5 -16t-66.5 2q5 43 6 92t0 96t-3 88.5t-4 69.5
q56 26 111 29.5t107 -13.5z" />
    <glyph glyph-name="numbersign" unicode="#" horiz-adv-x="722" 
d="M675 180q-13 -1 -36 -2t-49 -4l-2 -85t-2 -78q-45 -14 -88.5 -11t-86.5 4v159l-48 -2l-48 -2l-2 -61t-3 -59q-8 -8 -32 -12t-52 -6.5t-53 -2.5t-36 1q-1 60 -3 126q-20 -2 -36.5 -4t-27.5 -4q-5 29 -6.5 62.5t0 65.5t4.5 59t7 45q7 0 21.5 1t35.5 2v83q-25 -2 -44 -4
t-32 -4q-5 28 -6 62t0 65t4 58.5t7 44.5q8 1 27.5 2.5l46.5 3.5l2 85l2 79q45 14 98 17t98 1q-1 -43 -1 -85.5t-2 -85.5q20 1 39 1.5t38 1.5l2 89.5t3 89.5q8 7 33.5 12.5t54.5 8t55.5 3t37.5 -1.5q1 -46 1.5 -95t1.5 -101q20 1 37 0.5t25 -1.5q2 -18 3 -46t1.5 -59.5
t0 -59.5t-3.5 -46l-28 -2.5t-36 -2.5q-1 -24 -1 -46t-1 -45q27 0 48.5 -0.5t29.5 -2.5q2 -18 3.5 -46t2 -59t0 -59.5t-3.5 -46.5zM409 474l-82 -5l-3 -86q21 1 42.5 2.5t42.5 2.5v86z" />
    <glyph glyph-name="dollar" unicode="$" horiz-adv-x="812" 
d="M757 500q11 -27 12.5 -66.5t-4.5 -81t-19.5 -79t-33.5 -58.5q-21 -9 -39.5 -16t-37.5 -13.5t-39 -12.5t-44 -12q-3 -51 -6 -95t-15 -89q-16 -5 -47 -9t-65 -7t-66 -3t-49 4q-1 52 -2.5 90.5t-3.5 72.5l-50 -7.5l-44.5 -6.5t-43.5 -5.5t-47 -4.5q-9 11 -16 33.5t-11.5 47
t-7 47t-1.5 31.5q33 4 77 10.5t87 14t78 15t51 14.5q5 3 11.5 7.5t12.5 10t10 11t3 9.5q-3 12 -12 18.5t-21 9.5t-26 4l-27 2q-24 3 -58 3t-71.5 0.5t-75 3t-67.5 10.5q0 39 3 83t11.5 88.5t22.5 86.5t35 78q31 10 66.5 18.5t93.5 15.5q-1 31 -2 56t-2 47l-2 42t-3 42
q32 13 68 21t73 12t72.5 4t65.5 -3q-10 -59 -12.5 -107.5t-7.5 -92.5l109.5 10t80.5 1q2 -8 5 -26.5t5.5 -41t3.5 -44t-1 -38.5q-35 -2 -79.5 -5.5t-90 -8.5t-88 -10.5t-72.5 -12.5q-9 -2 -16.5 -12.5t-11 -22.5t-1.5 -21.5t11 -11.5q29 -5 79.5 -12.5t106 -14.5l106 -13
t79.5 -10z" />
    <glyph glyph-name="percent" unicode="%" horiz-adv-x="1012" 
d="M959 54q-17 -25 -52.5 -42t-79.5 -25.5t-92.5 -9t-92.5 8.5t-79 26.5t-52 43.5q-3 31 -4.5 80t-2.5 100l-66.5 -137.5l-63.5 -134.5q-44 -5 -87.5 -5t-79.5 2t-62 5.5t-36 5.5l113.5 254t107.5 221q-41 -3 -83 -0.5t-79.5 12t-67 25.5t-44.5 40q-3 33 -5 82t-2 100.5
t1 99t3 75.5q21 22 57 38t79.5 24t91 9t89.5 -7t76 -25t50 -43q2 -17 4 -47t4 -65l52 87.5l55 89.5q45 5 89 2.5t81 -7.5t63.5 -10.5t36.5 -8.5q-64 -100 -129 -213.5l-129 -234.5q45 11 95.5 13.5t96 -5t82 -24.5t54.5 -45q3 -17 4.5 -47.5t3 -66t2 -74t0.5 -72t-0.5 -59
t-1.5 -36.5zM790 144q0 48 1.5 88t-6.5 86q-22 0 -53 3t-55 -7q-4 -26 -6 -47t-2 -41t1 -41t2 -47q13 -3 29.5 -4.5t33 -1.5t31.5 2.5t24 9.5zM335 611q0 49 1.5 88.5t-6.5 85.5q-11 0 -24.5 1.5t-28 2t-29 -0.5t-26.5 -7q-4 -26 -6 -46.5t-2 -40.5t1 -41t2 -47
q13 -3 29.5 -4.5t33 -1.5t31.5 2.5t24 8.5z" />
    <glyph glyph-name="ampersand" unicode="&#x26;" horiz-adv-x="788" 
d="M750 272q3 -19 1 -41t-8 -43.5t-14.5 -41.5t-16.5 -34q-26 -4 -68.5 -7t-94.5 -5q-2 -32 -6 -62t-12 -61q-16 -5 -47 -9t-65 -7t-66 -3t-49 4q-1 43 -2 76.5t-3 62.5q-52 3 -95.5 9t-69.5 16q-39 49 -65.5 114t-32.5 121q39 39 84.5 69.5t107.5 49.5q-22 6 -46 17
t-45.5 25t-38.5 31.5t-25 35.5q2 19 11 43t20.5 47t24.5 43t23 29q34 10 66 18.5t62 15.5q-1 57 -3 95.5t-5 79.5q32 13 68 21t73 12t72.5 4t65.5 -3q-8 -51 -11.5 -94.5l-6.5 -82.5q35 3 72 3h78q9 -5 19 -21.5t18.5 -36.5t13.5 -43t4 -42q-19 -3 -60.5 -5t-90 -6
t-95.5 -11.5t-77 -20.5q-13 -22 -18.5 -40t2.5 -48q9 -4 33.5 -6t52 -3t53.5 -1h38q14 -25 21.5 -56.5t5.5 -59.5q-23 0 -58 -3t-70 -7t-64 -10t-40 -14q-2 -39 -1 -59.5t12 -33.5q37 -10 80.5 -14t90.5 -6t97 -1.5t100 0.5z" />
    <glyph glyph-name="quotesingle" unicode="'" horiz-adv-x="368" 
d="M326 832l-20 -95.5t-21.5 -94.5t-25 -86.5t-28.5 -71.5q-16 -5 -35 -9t-38.5 -6.5t-39 -2.5t-36.5 4q6 43 7 92t-0.5 96t-3.5 88.5t-4 69.5q63 26 125 29.5t120 -13.5z" />
    <glyph glyph-name="parenleft" unicode="(" horiz-adv-x="504" 
d="M460 800q-36 -4 -61 -17.5t-51 -30.5q-8 -27 -15 -77t-12 -109.5t-8 -123t-2.5 -120.5t5.5 -100.5t16 -64.5l36 -23.5t51 -18.5q-4 -48 -15 -92.5t-26 -64.5q-33 5 -69 15t-72 23.5l-70 27.5l-63 25q-21 28 -34 89t-18.5 139.5t-3.5 167t11 170.5t26 150t40 106
q43 25 120.5 52t177.5 41q6 -11 13 -31t12 -43.5t8.5 -47.5t3.5 -42z" />
    <glyph glyph-name="parenright" unicode=")" horiz-adv-x="504" 
d="M42 116q36 5 61 18t51 30q8 28 15 77.5t12.5 109t8.5 123t2 120.5t-6 101t-16 64l-36 24.5t-50 17.5q3 48 14 92.5t26 65.5q33 -5 69.5 -15.5t72 -23.5t69.5 -27.5t63 -25.5q21 -27 34 -88.5t18.5 -140t3.5 -166.5t-11 -170.5t-25.5 -150t-40.5 -106.5
q-42 -24 -120 -51.5t-178 -40.5q-6 11 -13 30.5t-12 43.5t-8.5 47.5t-3.5 41.5z" />
    <glyph glyph-name="asterisk" unicode="*" horiz-adv-x="606" 
d="M576 467l-24.5 -20t-31 -23t-35 -20t-37.5 -12q-11 12 -31 28.5l-41 33.5q-1 -24 -1.5 -48.5t-2.5 -48.5q-7 -4 -26 -6t-41 -3.5t-42 -2t-29 0.5q-2 24 -2.5 50.5t-1.5 55.5l-36.5 -33t-27.5 -30q-18 -1 -38.5 5.5t-39 16.5t-34.5 22.5t-27 23.5q14 16 31 38l34 43
l33 39.5t29 30.5q-22 21 -40.5 35.5l-34.5 26.5t-30.5 24.5t-28.5 29.5q8 9 22 21t32 24.5t38.5 24t39.5 19.5q8 -12 29.5 -27l44.5 -31q1 27 1 51t1 45q36 8 78.5 9t77.5 1v-94l28.5 26.5t21.5 21.5q5 2 22 -3t38 -14t43.5 -21t38.5 -26q-35 -38 -75 -69.5t-74 -72.5
q21 -20 38 -34.5l33.5 -29t35 -32.5t42.5 -46z" />
    <glyph glyph-name="plus" unicode="+" horiz-adv-x="542" 
d="M497 305q-20 -2 -47.5 -2.5t-59.5 -1.5q-1 -18 -2.5 -40l-3 -45t-2.5 -46.5t-3 -44.5q-10 -4 -40 -7t-63.5 -5t-64.5 -2t-45 1q-1 19 -3 43t-3.5 49t-2.5 48t-2 43q-30 -3 -55.5 -4.5t-43.5 -4.5q-5 25 -6.5 54t-0.5 56.5t3.5 51.5t6.5 39q11 2 36 2.5t57 1.5
q0 21 0.5 45.5t1.5 50.5l2 50.5t2 43.5q56 10 121.5 11.5t120.5 0.5v-49.5v-53.5v-52t-1 -45q33 0 58 -1t36 -3q2 -16 3.5 -40.5t2.5 -51.5t0.5 -51.5t-2.5 -40.5z" />
    <glyph glyph-name="comma" unicode="," horiz-adv-x="386" 
d="M354 205l-45 -83l-46.5 -81t-47 -72.5t-46.5 -56.5q-32 4 -72.5 14.5t-71.5 31.5q17 38 31.5 83.5t26.5 90.5t21 85.5l15 67.5q66 -1 125 -21.5t110 -58.5z" />
    <glyph glyph-name="hyphen" unicode="-" horiz-adv-x="400" 
d="M343 266q-69 -9 -142 -9.5t-141 -13.5q-5 30 -6.5 63.5t-0.5 66t3.5 60t5.5 45.5q21 3 59.5 4.5l80.5 3t80 0t58 -4.5q2 -18 3.5 -47.5t2 -61t0 -60t-2.5 -46.5z" />
    <glyph glyph-name="hyphen" unicode="&#xad;" horiz-adv-x="400" 
d="M343 266q-69 -9 -142 -9.5t-141 -13.5q-5 30 -6.5 63.5t-0.5 66t3.5 60t5.5 45.5q21 3 59.5 4.5l80.5 3t80 0t58 -4.5q2 -18 3.5 -47.5t2 -61t0 -60t-2.5 -46.5z" />
    <glyph glyph-name="period" unicode="." horiz-adv-x="442" 
d="M355 23q-6 -12 -27.5 -21t-50 -15.5t-60 -9.5t-60 -2.5t-48.5 6t-26 15.5q-6 9 -7.5 26.5t-0.5 36t3.5 36.5t4.5 29q3 18 19.5 30.5t37.5 21.5t42 14t34 7q12 3 27.5 1t31.5 -5.5t31.5 -9t25.5 -10.5q14 -35 21 -73t2 -77z" />
    <glyph glyph-name="slash" unicode="/" horiz-adv-x="808" 
d="M792 918q-66 -102 -132.5 -219l-131.5 -240.5l-126.5 -249.5l-116.5 -245q-44 -5 -87.5 -5t-79.5 2t-62 5.5t-36 5.5l125.5 278.5t119 242.5t122.5 224.5t136 224.5q44 5 88 2.5t81 -7.5t63.5 -10.5t36.5 -8.5z" />
    <glyph glyph-name="zero" unicode="0" horiz-adv-x="978" 
d="M924 162q-34 -45 -63.5 -93t-65.5 -93q-36 -6 -84.5 -10.5t-103.5 -7t-115 -2.5t-118 2t-111.5 5t-97.5 9q-15 15 -32.5 42t-34 57t-30.5 60t-22 53q-1 58 -1 127.5v140t1.5 136.5t3.5 117q14 14 35 40.5l43.5 54l43.5 51t36 31.5l123 11.5t149 10.5t152 2t133 -14
q21 -18 41.5 -44t40 -54t37.5 -57l34 -55q2 -34 4 -80t3.5 -96.5t2.5 -102.5t1 -98.5t-1 -83.5t-4 -59zM593 212q2 93 5 207t-11 234q-29 -1 -55 -1.5t-50 -3t-47.5 -8.5t-48.5 -18q-5 -11 -8 -43.5t-4.5 -75.5t-1.5 -91.5t0.5 -93.5t1.5 -81t1 -53q23 -12 53.5 -15t61.5 1
t59 15t44 27z" />
    <glyph glyph-name="one" unicode="1" horiz-adv-x="486" 
d="M418 926q0 -108 -2 -221t-5.5 -227.5t-8 -229t-9.5 -224.5q-8 -5 -27 -8.5t-43.5 -6.5t-52 -4.5t-53 -2t-46 -0.5t-31.5 1q-5 78 -8 167.5t-4.5 182t-1.5 184t1 175.5q-6 0 -18.5 1l-26 2t-26 3t-18.5 4q1 41 9.5 86t19.5 77q33 7 79.5 14.5t96 13.5t96.5 9.5t79 3.5z
" />
    <glyph glyph-name="two" unicode="2" horiz-adv-x="760" 
d="M720 527q-31 -30 -72.5 -61.5t-89.5 -63l-100.5 -63.5l-106.5 -63q-4 -3 -5.5 -11t0 -18t5 -17.5t7.5 -10.5q10 -4 34.5 -8t57 -5.5t70.5 -3t74.5 -1.5t68.5 1t53 1q1 -15 0.5 -39.5t-3.5 -52t-8 -54t-13 -44.5q-70 -6 -155.5 -12.5t-173 -9.5t-169.5 0.5t-145 19.5
q-4 33 -8 81t-5 100.5t2 105t13 95.5l101 65l113 69.5l103 62t71 40.5q8 33 4.5 55.5t-17.5 39.5q-34 2 -84 0t-103 -5.5t-102.5 -8t-82.5 -8.5q1 22 3.5 49.5t6.5 55t9.5 52.5t12.5 42q31 9 77 17t98.5 14t108 10.5t107 5t95 -1.5t71.5 -8q26 -45 41.5 -93.5t23.5 -100.5
t10 -106.5t2 -111.5z" />
    <glyph glyph-name="three" unicode="3" horiz-adv-x="788" 
d="M765 352q-4 -38 -13 -84t-21.5 -89.5t-29 -78t-34.5 -50.5q-27 -17 -73.5 -31.5t-103 -24.5t-117.5 -17t-117.5 -11.5t-102.5 -5t-73 1.5q-5 17 -11 40.5t-10 50t-5.5 55t1.5 56.5q49 6 97.5 11t94.5 12t88.5 18t78.5 29q11 15 14.5 27t3 26.5t-3 32.5t-3.5 46
q-10 9 -38.5 14t-63 7.5t-68.5 2.5t-57 -3q-2 37 5.5 83t20.5 82q12 1 37.5 4t52.5 7t50.5 10t32.5 13q8 42 3 67t-18 52q-29 17 -75 22t-93.5 5.5t-88.5 -1.5t-59 -1q-1 27 4 59.5t13 63t18 54t19 30.5q75 8 139 11.5t125 0t123 -15.5t132 -33q10 -12 22.5 -38t23.5 -57
t19.5 -63.5t11.5 -57.5q-8 -27 -24.5 -53.5t-37.5 -49t-44.5 -40.5t-45.5 -29q60 -20 113.5 -57.5t87.5 -102.5z" />
    <glyph glyph-name="four" unicode="4" horiz-adv-x="928" 
d="M887 210q-24 -3 -48.5 -3.5t-50.5 -1.5q-2 -47 -3 -98t-3 -89q-17 -5 -44.5 -9.5t-58.5 -7.5t-62.5 -4t-58 -1t-45 2.5t-22.5 7.5q2 36 4 77t2 109q-36 1 -92 -0.5t-117.5 -2.5t-121.5 0t-104 7l-10 46t-8.5 47.5t-5.5 44t-2 33.5q14 38 37 87.5t50.5 103.5l58 108.5
l59.5 103.5t55 88.5t44 63.5q22 4 57 4.5t76.5 -1t85.5 -5.5l85 -7.5t75.5 -7t56.5 -4.5q5 -30 8 -87t4.5 -128.5t1.5 -149v-149.5q30 0 55 -1t39 -4q2 -16 3.5 -39t2 -46.5t0 -46t-2.5 -40.5zM499 643q0 23 -5 32.5t-13.5 9t-18 -9t-17.5 -23.5q-17 -28 -34 -62.5
l-32 -67.5t-26.5 -61t-17.5 -46q9 -4 31.5 -6.5t47.5 -3.5t48 1.5t33 9.5q2 18 2.5 45t0.5 57.5t0.5 63t0.5 61.5z" />
    <glyph glyph-name="five" unicode="5" horiz-adv-x="788" 
d="M723 724q-39 -3 -85.5 -5t-95 -3.5t-96 -4.5t-86.5 -8q-14 -28 -16 -64.5t-3 -71.5q43 -8 91.5 -19t98.5 -21l99 -20.5t92 -18.5q17 -43 22.5 -93.5t1 -102t-17.5 -101t-33 -88.5q-67 -37 -140.5 -63t-148.5 -44.5t-150.5 -31t-148.5 -22.5q-9 7 -16 37t-11.5 66
t-6.5 69.5t-1 48.5q40 2 89 10t96 17.5t86.5 21.5t59.5 23q5 14 7 38t0 45q-12 9 -38.5 15.5t-62 12t-75 10.5t-77 11.5t-68.5 15.5t-49 22q-2 58 1 124t8.5 130.5t13.5 124t15 104.5q67 21 146 30.5t162 12.5t164.5 1t153.5 -6q14 -47 17 -99t2 -103z" />
    <glyph glyph-name="six" unicode="6" horiz-adv-x="884" 
d="M830 499q5 -41 2.5 -104t-12 -129t-24.5 -124.5t-35 -92.5q-58 -34 -138.5 -52.5t-170.5 -19t-184 18t-180 58.5q-18 35 -28 101t-12 146t2.5 168.5t14.5 169t24.5 145t31.5 98.5q29 12 75.5 23.5t102 21t115.5 17t116.5 12.5t105.5 7t82 0q4 -14 10 -37t11.5 -50
t8.5 -55t1 -52q-35 -4 -84.5 -13l-102 -19.5t-101.5 -22l-83 -19.5q-14 -21 -19 -51t-5 -57l106.5 -10t129.5 -16t130.5 -25t109.5 -37zM549 329q-14 9 -42.5 14t-61 6.5t-63 0.5t-47.5 -3q-1 -83 23 -146q21 -8 48.5 -10t53 0t44.5 7t24 11q3 13 8 29t9.5 32.5t6 32
t-2.5 26.5z" />
    <glyph glyph-name="seven" unicode="7" horiz-adv-x="760" 
d="M722 731l-69 -134.5l-92 -184l-105 -210l-108 -214.5q-30 -3 -68 -1.5t-77 7t-74.5 14.5t-60.5 21q42 107 86 204l85.5 185.5l78 167.5t64.5 148q-33 3 -76.5 1.5t-89 -4l-88.5 -5t-76 1.5q-4 44 -1.5 94t12.5 95q78 11 160.5 16t163.5 5t157.5 -3t140.5 -7
q9 -23 16.5 -50t13 -54t7.5 -51.5t0 -41.5z" />
    <glyph glyph-name="eight" unicode="8" horiz-adv-x="914" 
d="M887 327q2 -21 -6 -59.5t-23.5 -81t-37 -84t-46.5 -69.5q-32 -21 -86 -33t-118 -17.5t-133 -4t-133 7.5t-117.5 16.5t-85.5 21.5q-12 27 -23 62t-20 74.5t-14.5 83.5t-5.5 89q14 18 32.5 36t38 35l39.5 33t36 31q-17 20 -37.5 40l-39.5 39t-34.5 36t-21.5 29
q8 84 28.5 158t56.5 144q88 14 180 21.5t173.5 8t144.5 -5t94 -14.5q38 -26 66.5 -81t39.5 -121q-9 -31 -25.5 -63t-37.5 -60t-44.5 -50.5t-46.5 -34.5l45.5 -23.5t61 -38.5t59.5 -54t41 -71zM504 736q-8 14 -25.5 19t-37.5 6.5t-39 -1.5t-31 -8q-8 -7 -13.5 -30t-8 -48.5
t-2 -47.5t3.5 -26q8 -11 28 -15.5t43 -4.5t45 3t33 7q6 14 9.5 33t4.5 38.5t-1.5 39.5t-8.5 35zM537 343q-13 6 -38 8.5t-53.5 1t-57 -4.5t-50.5 -8q-4 -19 -5 -43.5t0.5 -48t6 -42.5t11.5 -26q15 -6 36.5 -8.5t44.5 -2.5t45.5 0.5t38.5 0.5q12 12 20 35.5t10.5 50t0.5 50.5
t-10 37z" />
    <glyph glyph-name="nine" unicode="9" horiz-adv-x="842" 
d="M755 110q-74 -37 -144.5 -61t-141.5 -39.5t-144 -25.5l-153 -20q-10 7 -19 33.5t-16.5 57.5t-11.5 61t-3 45q44 2 100.5 11.5t110.5 22.5t99.5 27t67.5 25q5 16 5 35.5t-2 40.5q-38 5 -97 8.5l-124 7.5t-128 10.5t-110 17.5q-11 57 -7.5 129t16.5 145.5t34 141t44 115.5
q75 18 145 27t140 9.5t142 -7t150 -20.5q31 -71 50.5 -150.5t29.5 -159.5t11.5 -156t-3.5 -141t-15.5 -114t-25.5 -76zM506 550q6 42 5.5 84t-5.5 64q-13 0 -31.5 1.5t-38.5 2l-38.5 1t-31.5 -0.5q-17 -26 -27.5 -66.5t-11.5 -75.5q18 -3 41 -3.5t48 -1.5t48.5 -1.5
t41.5 -3.5z" />
    <glyph glyph-name="colon" unicode=":" horiz-adv-x="442" 
d="M355 23q-6 -12 -27.5 -21t-50 -15.5t-60 -9.5t-60 -2.5t-49 6t-25.5 15.5q-6 9 -7.5 26.5t-0.5 36t3.5 36.5t4.5 29q3 18 19.5 30.5t37.5 21.5t42 14t34 7q12 3 27.5 1t31.5 -5.5t31.5 -9t25.5 -10.5q14 -35 21 -73t2 -77zM343 425q-6 -12 -26 -22t-47 -16.5t-57.5 -10.5
t-57 -2.5t-46 7t-24.5 15.5q-6 11 -7.5 29t-0.5 38.5t3.5 39t4.5 30.5q3 19 18.5 33t35.5 23.5t40 15t32 7.5q11 3 25.5 1t30 -6t30 -9.5t24.5 -11.5q14 -37 20.5 -78t1.5 -83z" />
    <glyph glyph-name="semicolon" unicode=";" horiz-adv-x="392" 
d="M336 169l-45 -83l-46 -80.5t-46.5 -72t-46.5 -56.5q-33 4 -73.5 14t-71.5 30q17 40 31.5 85.5t26.5 90.5t21 85.5l15 67.5q66 -1 125 -22t110 -59zM333 451q-6 -12 -26 -22.5t-47 -17t-57.5 -9.5t-57 -2.5t-46 6t-24.5 16.5q-6 11 -7.5 29t-0.5 38t3.5 39t4.5 31
q3 19 18.5 32.5t35.5 23.5t40 15l32 8q11 2 25.5 0.5t30 -6t30 -10t24.5 -11.5q14 -37 20.5 -77.5t1.5 -82.5z" />
    <glyph glyph-name="semicolon" unicode="&#x37e;" horiz-adv-x="392" 
d="M336 169l-45 -83l-46 -80.5t-46.5 -72t-46.5 -56.5q-33 4 -73.5 14t-71.5 30q17 40 31.5 85.5t26.5 90.5t21 85.5l15 67.5q66 -1 125 -22t110 -59zM333 451q-6 -12 -26 -22.5t-47 -17t-57.5 -9.5t-57 -2.5t-46 6t-24.5 16.5q-6 11 -7.5 29t-0.5 38t3.5 39t4.5 31
q3 19 18.5 32.5t35.5 23.5t40 15l32 8q11 2 25.5 0.5t30 -6t30 -10t24.5 -11.5q14 -37 20.5 -77.5t1.5 -82.5z" />
    <glyph glyph-name="less" unicode="&#x3c;" horiz-adv-x="552" 
d="M523 916l-58.5 -131l-56 -118.5l-54.5 -109l-53 -105.5l49 -111l54.5 -122.5l54.5 -120l49 -104.5q-30 -4 -67.5 -9.5t-72.5 -10t-61 -7t-33 -0.5q-64 119 -120.5 235.5t-105.5 238.5q63 126 118.5 248l114.5 251q40 5 79.5 2.5t73 -7t57 -10t32.5 -9.5z" />
    <glyph glyph-name="equal" unicode="=" horiz-adv-x="400" 
d="M343 130q-34 -4 -70 -6t-72 -3t-71.5 -4t-69.5 -9q-5 29 -6.5 61.5t-0.5 63.5t3.5 58t5.5 44q21 2 59.5 4t80.5 3t80 0t58 -5q2 -17 3.5 -45t2 -58.5t0 -59t-2.5 -44.5zM343 446q-34 -3 -70 -5t-72 -3t-71.5 -4t-69.5 -9q-5 29 -6.5 61t-0.5 63.5t3.5 58.5t5.5 44
q21 2 59.5 4t80.5 3t80 0t58 -5q2 -17 3.5 -45t2 -58.5t0 -59t-2.5 -45.5z" />
    <glyph glyph-name="greater" unicode="&#x3e;" horiz-adv-x="552" 
d="M48 -1q29 70 57.5 131.5l56.5 118l54.5 109l52.5 105.5l-48.5 111l-54 122.5l-54.5 120l-49 104.5q30 4 67.5 9.5t72.5 10t61 7t33 0.5q64 -119 120.5 -235.5t105.5 -238.5l-118.5 -248.5l-114.5 -250.5q-40 -5 -79.5 -2.5t-73 7t-57 10t-32.5 9.5z" />
    <glyph glyph-name="question" unicode="?" horiz-adv-x="708" 
d="M650 592q-18 -17 -42.5 -37.5l-50.5 -40.5t-51 -36.5t-44 -27.5q-16 -38 -19.5 -74t-12.5 -78q-19 -6 -56.5 -10.5t-79 -7.5t-80 -4.5t-58.5 -1.5q-4 20 -6 46.5t-2 54t2 54.5t4 46q13 13 32 29t42.5 32t50 32t53.5 30q5 24 3.5 49t-7.5 45q-13 9 -38 11.5t-54.5 1
t-61.5 -5t-60.5 -8.5t-50 -9.5t-31.5 -8.5l11.5 59.5t12.5 56l15 56.5t20 61q32 17 78 27t98.5 13.5t107 2t103.5 -7.5t88 -15.5t60 -21.5q6 -23 13 -64t11.5 -86t5.5 -88.5t-6 -73.5zM448 26q-18 -19 -58.5 -32t-86.5 -19t-87.5 -4.5t-61.5 15.5q-6 3 -9 23t-3.5 44t1.5 45
t7 27q23 27 59 41.5t75.5 17.5t77.5 -3t66 -19q2 -5 6.5 -17.5t9 -30.5t6.5 -41t-2 -47z" />
    <glyph glyph-name="at" unicode="@" horiz-adv-x="884" 
d="M838 191q-8 -4 -38 -9.5t-65 -10t-66.5 -6t-42.5 -0.5q0 10 -0.5 25t-1.5 24h-61t-73 2.5t-77 7.5t-72 15q-14 26 -19.5 83.5t-3.5 124t12 129t26 97.5q60 26 120.5 37t132.5 9q0 11 -2 21q-2 8 -3.5 17t-5.5 15q-22 1 -62 1t-84.5 -5t-86.5 -18t-68 -38
q-16 -42 -26 -106.5t-13 -137.5t1 -145.5t16 -131.5q40 -24 85.5 -37.5t94.5 -22.5t100.5 -15t103.5 -13q5 -48 -4 -76.5t-23 -52.5q-23 -6 -67 -6.5t-98 3.5t-113 13t-113 22t-97.5 29t-66.5 34q-19 42 -28.5 107t-11.5 141t2.5 156t14 151t23.5 129t31 88q35 22 88 39.5
t115 29t129.5 17t132 6.5t121.5 -2.5t99 -11.5q27 -83 38.5 -179t14 -193.5t-1 -189zM620 337q-2 72 -2.5 132.5t0.5 128.5q-14 -1 -24 -2t-19 -4t-19.5 -8t-25.5 -13q-5 -26 -10 -60t-7 -67.5t-0.5 -63.5t8.5 -48q18 -6 46.5 -0.5t52.5 5.5z" />
    <glyph glyph-name="A" unicode="A" horiz-adv-x="1015" 
d="M1007 3q-38 -8 -79 -12t-81.5 -6.5t-78 -3t-67.5 0.5l-14 44t-10.5 35.5t-9 36t-9.5 45.5q-35 5 -80.5 6t-90.5 0.5t-85 -4.5t-66 -10l-17.5 -38t-13 -32.5t-10 -34.5l-10.5 -42q-28 -7 -66 -10t-77.5 -3t-76 2.5t-62.5 7.5q9 66 33 159t55.5 196t66.5 206l66 190
q-15 1 -28 3q-11 3 -22 5.5t-17 5.5q5 19 10 42l10.5 46.5t11.5 44.5t13 35q31 7 80 14t107.5 10.5t121.5 4.5t122.5 -0.5t111 -6.5t86.5 -15l48 -225l46.5 -223t43.5 -229.5t38 -244.5zM608 382q-3 33 -9 74.5t-14 83t-17.5 78t-19.5 60.5q-12 30 -27.5 27t-26.5 -27
q-3 -6 -10.5 -28l-17 -52l-20 -65l-19 -66t-13.5 -54.5t-5 -31.5q17 -4 46.5 -6t60 -1t56.5 3t36 5z" />
    <glyph glyph-name="B" unicode="B" horiz-adv-x="1028" 
d="M998 338q-4 -42 -13.5 -92.5t-23 -97t-30.5 -84t-37 -53.5l-70 -12.5t-94 -14t-105 -12.5t-101 -8q-111 -6 -213 -4.5t-187 19.5q-6 46 -7 129t0.5 183.5t5 210.5t5.5 208q-7 1 -17.5 0.5t-22.5 -0.5t-24 1.5t-20 5.5q2 58 7.5 108l10.5 95q48 6 109 12t130 10.5t143.5 6
t147.5 0.5t142.5 -5.5t129.5 -12.5q11 -14 24 -42t25 -61.5t21 -69t12 -62.5q-9 -29 -26.5 -57t-40 -53t-47 -44t-47.5 -31q64 -20 120.5 -61.5t92.5 -111.5zM609 591q4 23 3.5 49t-5.5 50.5t-15 43.5t-25 30q-28 6 -62 1.5t-63 -15.5q-1 -23 -3 -48t-3 -50t-1 -45t1 -34
q12 -3 37 -3.5t52 1.5t51 7.5t33 12.5zM638 353q-11 9 -35.5 15t-53.5 8t-58 -0.5t-49 -9.5q-10 -70 -7 -126.5t9 -94.5q18 -4 39.5 -3t43 3t42 6.5t35.5 9.5q23 33 29.5 82.5t4.5 109.5z" />
    <glyph glyph-name="C" unicode="C" horiz-adv-x="820" 
d="M780 204q1 -25 -1.5 -59.5t-7 -66t-12 -56.5t-17.5 -33q-77 1 -162 4t-170.5 11.5t-168.5 25.5t-157 45q-21 29 -32.5 85.5t-15 127.5t1 150.5t16 154t30 138t41.5 103.5q29 17 81.5 32.5t117 28t133.5 22t130 13t107.5 2t65.5 -11.5q2 -13 4 -35t3 -50t-0.5 -59.5
t-6.5 -64.5q-52 -4 -97.5 -6.5t-87.5 -6t-81.5 -12t-79.5 -26.5q-11 -43 -21.5 -100t-15.5 -115t-1.5 -109t19.5 -82q17 -12 49 -19t71 -10.5t81 -5.5t79 -3t65 -3.5t40 -8.5z" />
    <glyph glyph-name="D" unicode="D" horiz-adv-x="1056" 
d="M1006 745q3 -22 4.5 -64.5t1.5 -95t-1 -110.5t-3 -111t-5 -96.5t-7 -66.5l-37.5 -57.5t-40.5 -60t-43.5 -56.5t-45.5 -46q-35 -4 -85.5 -9t-110.5 -8.5t-127.5 -4.5t-135.5 1.5t-134 9.5t-124 21q-6 68 -7.5 158.5t-0.5 189.5t2.5 198.5t2.5 183.5l-71 5q0 31 2 64.5
t4.5 63l4.5 52.5t3 33q83 12 190.5 20t219.5 9t218.5 -5.5t187.5 -23.5q24 -22 42 -44t33 -44.5t30 -48.5zM673 680q-20 18 -51.5 27.5t-66.5 11.5t-68.5 -4t-57.5 -18q-1 -13 -1.5 -52t-1 -90.5t-0.5 -108.5v-106t1.5 -83t3.5 -39q25 -7 56 -10.5t61.5 -3.5t58.5 3.5
t48 10.5q18 53 26.5 116.5t9.5 127t-4 121.5t-14 97z" />
    <glyph glyph-name="E" unicode="E" horiz-adv-x="848" 
d="M792 752q-76 -4 -151.5 -2t-151.5 -6q-8 -12 -13.5 -36t-7 -52t1 -55t9.5 -45q3 -1 21 -1t44.5 0.5t58 0.5h61t55 -0.5t38.5 -3.5q4 -36 6 -78t-3 -76q-34 -4 -70 -4.5l-72 -1t-71.5 -2.5t-69.5 -9q-7 -15 -9.5 -39.5t-1.5 -51.5t3.5 -52.5t5.5 -41.5q22 -7 62.5 -8.5
t86 0t89.5 2.5t72 -2q7 -46 8 -97.5t-11 -97.5q-82 -8 -160.5 -13t-159 -5.5t-164.5 3.5t-176 15q-7 83 -9.5 176.5t-3 190t1 194t3.5 188.5q-17 0 -39.5 0.5t-39.5 0.5q2 46 8 94t16 90q52 11 112.5 17.5t125 10t130.5 4t129.5 -0.5t121.5 -3t106 -4q6 -16 8 -42.5t2.5 -55
t-0.5 -56t-2 -45.5z" />
    <glyph glyph-name="F" unicode="F" horiz-adv-x="794" 
d="M753 941q2 -51 -2 -103.5t-18 -98.5q-37 -8 -77 -9t-80.5 0t-80.5 2.5t-79 -1.5q-9 -7 -12.5 -29.5t-4.5 -50.5t0 -53.5t1 -38.5q23 -8 62 -9.5t82.5 -2t85 0t69.5 -2.5q6 -25 8.5 -45.5t1.5 -40t-4.5 -39.5t-10.5 -45q-37 -5 -73 -6.5t-72 -3.5t-72.5 -5t-72.5 -13
q-1 -3 -1.5 -40.5t-0.5 -89.5t1 -111t3 -105q-19 -8 -56.5 -14.5t-81 -10t-88.5 -3.5t-80 5q-9 95 -11 197.5t-0.5 202.5t5.5 192.5t8 166.5q-11 0 -31.5 5.5l-31.5 8.5q3 54 4 100.5t2 67.5q54 14 118 22t132 11t135.5 2t128 -3t111 -4.5t83.5 -5.5z" />
    <glyph glyph-name="G" unicode="G" horiz-adv-x="950" 
d="M897 -73q-24 -3 -59.5 -5t-75 -2t-79.5 3.5t-73 12.5v60q-46 4 -104.5 8.5t-120 10.5t-120.5 16t-105 29q-37 16 -57.5 33t-31 39.5t-14.5 54t-7 74.5q-3 42 -2.5 98.5t7 117.5t19.5 123t33.5 114.5t49 91.5t67.5 56q54 24 128.5 39.5t154 26t155 15.5l132.5 9
q17 -49 25.5 -108.5t5.5 -106.5q-40 -5 -90.5 -9.5t-102.5 -11t-101.5 -17t-88.5 -24.5q-16 -16 -28 -45.5t-20.5 -66.5t-14 -78t-6.5 -80.5t2.5 -73t10.5 -56.5q23 -9 53 -17t60 -13.5t56 -7t41 -0.5q7 24 11 40t5 31t-1.5 30.5t-8.5 38.5q-29 13 -63.5 15t-62.5 0
q-5 40 -3.5 74t13.5 73q41 10 94.5 16.5t108.5 10.5t105.5 6t85.5 2q4 -68 7 -154t5.5 -174t3.5 -171.5t1 -147.5z" />
    <glyph glyph-name="H" unicode="H" horiz-adv-x="952" 
d="M882 961q5 -62 7 -148t1.5 -183.5t-2.5 -197.5t-4 -189t-4 -158.5l-3 -106.5q-21 -4 -62.5 -5.5t-86 -1.5t-82 1t-50.5 2q-2 35 -1 79.5t2.5 92t0.5 93.5t-8 83l-47 3.5t-68.5 2t-65 -6.5t-37.5 -22q-5 -82 -7.5 -163t0.5 -163q-33 -7 -69.5 -11.5t-74.5 -6t-75.5 -0.5
t-72.5 5q-6 42 -9.5 117.5t-5 168.5t-1 194.5t2 195.5t3.5 172t3 123q18 6 46.5 10t61.5 6.5t67.5 3.5t63 0t48.5 -3.5t24 -8.5q-11 -76 -11 -161v-161q23 -7 57.5 -6.5t70 4.5t64.5 10t40 10q5 23 5 61t-1.5 80.5t-2.5 85.5t1 77q16 8 55.5 14t84 9t85 3t57.5 -4z" />
    <glyph glyph-name="I" unicode="I" horiz-adv-x="438" 
d="M369 898q0 -216 -6.5 -434t-17.5 -440q-8 -5 -27 -8.5t-43.5 -6.5t-52 -4.5t-53 -2t-46 -0.5t-31.5 1q-6 101 -9.5 216t-4 231t0.5 227t4 203q33 8 70 11.5t74.5 5t73.5 1.5h68z" />
    <glyph glyph-name="J" unicode="J" horiz-adv-x="766" 
d="M688 936q6 -47 9 -119.5t2.5 -158.5t-3 -177t-6.5 -175t-8 -153t-8 -111q-28 -18 -79.5 -34t-114.5 -28t-130.5 -20t-127 -10.5t-105 0.5t-64.5 12q-3 29 -6.5 84.5t6.5 123.5q41 2 80 3.5t77.5 5.5t76.5 14.5t77 28.5q11 45 16.5 128.5t5.5 182t-4 200.5t-12 186
q27 7 64 14t79.5 11t87.5 2.5t87 -10.5z" />
    <glyph glyph-name="K" unicode="K" horiz-adv-x="934" 
d="M910 874l-44.5 -80.5l-63.5 -114.5l-68 -124.5l-58 -110.5q23 -58 51.5 -110.5t58.5 -101.5l59.5 -97.5t54.5 -102.5q-27 -11 -68.5 -20t-85 -15t-83 -9t-62.5 -4q-36 50 -68 100l-58.5 93.5l-46 76.5t-31.5 49q-9 6 -16 6q-6 0 -11 -4.5t-5 -18.5q0 -24 1 -59.5t1 -74.5
t-1 -77.5t-3 -69.5q-10 -5 -33 -9.5t-52.5 -7.5t-62 -5t-62.5 -2.5t-53.5 0.5t-35.5 4q-5 56 -7 136.5t-1.5 170t2.5 182.5t4.5 174.5l4.5 146.5l3 98q28 6 73 7.5t90.5 1.5t83.5 -2t51 -3q-1 -31 -3 -68t-2 -75t2 -76.5t7 -73.5q2 -17 15.5 -18.5t30.5 24.5l41.5 64
l53.5 84.5l55 88.5l46 76q33 3 70 -2t75.5 -13t77 -17z" />
    <glyph glyph-name="L" unicode="L" horiz-adv-x="756" 
d="M714 263q6 -61 6.5 -119t-10.5 -119q-25 -3 -68.5 -7.5t-97.5 -8.5t-115.5 -7.5t-124 -5.5t-121.5 -2t-109 4q-1 49 -3.5 119t-5 151.5l-5 169.5t-3.5 172t-0.5 160t3.5 132q9 5 32.5 8.5t55 6t67.5 4t69.5 1.5t60.5 -1t41 -3q-2 -89 -3 -188.5t-1 -191.5v-167v-113
q39 -10 81.5 -12t85.5 0t85 7t80 10z" />
    <glyph glyph-name="M" unicode="M" horiz-adv-x="1235" 
d="M1181 3q-22 -13 -59.5 -18.5t-81 -7t-88.5 1t-83 6.5l-3 51.5l-4.5 78.5l-5 90.5t-5 86.5t-4.5 67.5t-3 32.5q-8 26 -21 23t-21 -20l-32 -73l-43 -100l-48 -111l-48 -108q-28 0 -56 -1.5t-56 3.5q-27 48 -50 99.5t-43 101t-36 93l-29 76.5q-5 14 -19 18.5t-22 -12.5
q-5 -10 -8.5 -39.5t-6 -69t-4 -84.5t-2.5 -85.5t-1.5 -73t-1.5 -47.5q-63 -13 -124 -13.5t-131 7.5q-2 63 -0.5 147t4.5 176.5t7.5 186t9.5 175t9.5 144t7.5 91.5q28 8 66 16t79 13l81 9.5t73.5 6t57 1.5t29.5 -2q25 -77 47 -155.5t54 -151.5q6 -13 20 -20t27 3
q6 5 17.5 27.5t25.5 55.5l29.5 72l29.5 74.5l24.5 64t14.5 40.5q30 7 81 11t107.5 4.5t110.5 -2.5t90 -9q10 -238 17 -473t21 -478z" />
    <glyph glyph-name="N" unicode="N" horiz-adv-x="1034" 
d="M966 915q2 -220 1 -442t-7 -441q-32 -5 -76.5 -10.5t-96 -11t-107.5 -9.5t-111 -5q-54 90 -98.5 187.5t-82.5 199.5q-4 11 -14 16.5t-20 3.5t-18 -11t-10 -27q-15 -147 -6 -359q-60 -16 -120.5 -19t-126.5 10q-4 38 -7 102.5t-5 143.5t-2.5 167t-0.5 174t1.5 164.5
t3.5 137.5q6 6 34.5 12t70 12t90.5 11t94.5 7t83 3t55.5 -3q32 -102 71.5 -200l78.5 -195q4 -8 11.5 -13.5t16.5 -4.5t17 9.5t12 26.5q1 4 2 24.5t1.5 51.5t2 69t2 75t1.5 69.5t2 53.5q128 33 257 21z" />
    <glyph glyph-name="O" unicode="O" horiz-adv-x="1030" 
d="M972 171q-35 -49 -66.5 -99.5t-69.5 -96.5q-37 -8 -88 -12t-109.5 -7t-121 -3t-123.5 2t-117.5 5.5t-102.5 9.5q-15 17 -33.5 45t-36.5 60t-33 63t-23 55q-1 60 -1 134t0.5 148t1.5 144t4 122q14 16 36 44l46 57t46.5 53.5t37.5 33.5q36 3 82 7.5t97.5 8.5t106.5 6.5
t108 2.5t102.5 -3t89.5 -12q22 -19 44 -46t42.5 -56.5t39.5 -60.5l35 -59q2 -34 4.5 -83t4 -102t2.5 -108t1 -104t-1.5 -88t-4.5 -61zM625 223q1 49 3 103.5t2 114t-2.5 122t-9.5 124.5q-31 -1 -58 -1.5t-52.5 -3t-50 -8.5t-50.5 -19q-6 -12 -9 -46t-4.5 -79t-2 -97t0 -98.5
t1.5 -84.5t1 -56q24 -12 56.5 -15.5t65.5 0.5t62 15.5t47 28.5z" />
    <glyph glyph-name="P" unicode="P" horiz-adv-x="1004" 
d="M965 560q-2 -20 -19.5 -54t-43 -72t-55 -74t-55.5 -58q-48 -15 -101.5 -27t-106.5 -21t-102 -15t-88 -8q-1 -59 3.5 -122t0.5 -122q-28 -3 -64.5 -6t-75.5 -5t-77.5 -2t-71.5 2q-3 20 -5.5 63.5t-3 103.5t-0.5 132.5t1 149t3 152t4 141.5q-11 0 -31 3t-37 9q1 30 5.5 60
t9.5 56.5t9.5 48t5.5 34.5q26 7 80.5 12.5t124 8t147 3.5t148.5 0t128.5 -3t88.5 -5q41 -43 69 -86.5t48 -89.5t34 -97.5t27 -111.5zM625 542q-2 51 -13 95.5t-21 64.5q-10 11 -31 17t-45 7.5t-47 -1t-39 -6.5q-3 -18 -7 -46.5t-7 -61t-3.5 -67t4.5 -64.5q17 -1 45 1.5
t58.5 10.5t59 20.5t46.5 29.5z" />
    <glyph glyph-name="Q" unicode="Q" horiz-adv-x="1026" 
d="M962 214q-25 -34 -47 -70l-45 -71l36.5 -35t27.5 -28q-14 -21 -37 -38.5t-51.5 -30.5t-61.5 -23.5t-68 -17.5l-41.5 50.5t-42.5 55.5q-66 -4 -130.5 -4.5t-122.5 0t-106.5 2.5t-81.5 3q-16 17 -34.5 43t-35.5 56t-31.5 59.5t-23.5 53.5q-7 64 -10.5 133.5t-4 138.5
t2 134.5t6.5 120.5q35 38 71 85t74 88q43 8 99 13.5t115.5 9t118.5 5t109 1.5t86.5 0.5t51.5 0.5q22 -18 43.5 -44t42 -54t39.5 -57l35 -55q5 -35 9 -82t6.5 -98t4 -103.5t1.5 -99t-1 -83.5t-3 -59zM620 321l2 95.5t0 99t-4 95t-10 82.5q-21 0 -47 3t-53.5 4.5t-55 -1
t-50.5 -13.5q-8 -53 -11.5 -110t-3.5 -114.5t2 -115t5 -111.5q21 -4 47 -7.5t53 -4.5q-20 36 -32.5 67t-17.5 54q20 22 55.5 31.5t68.5 14.5q19 -32 52 -69z" />
    <glyph glyph-name="R" unicode="R" horiz-adv-x="982" 
d="M938 46q-17 -11 -50.5 -21.5t-74 -19.5t-83 -16t-75.5 -8q-23 28 -41.5 53l-36 50.5l-35 51l-38.5 55.5l-17 23.5t-18.5 22t-20.5 14t-22 -0.5q-14 -6 -17 -24t-3 -35q1 -47 0.5 -93.5t-2.5 -94.5q-19 -6 -50 -11.5t-69 -8.5t-81.5 -3t-87.5 5q-7 86 -10.5 178t-5 183.5
t-0.5 183l2 176.5q-12 1 -31.5 1t-36.5 4q0 24 1.5 50.5t4.5 53.5t7 52t9 45q27 9 80 14.5t120 8.5t142.5 3t146.5 -2t132.5 -6t100.5 -12q29 -26 58.5 -69t53 -98t36.5 -117t7 -127l-60.5 -73.5t-81.5 -87.5q9 -14 22 -40l28 -56l30.5 -62.5l29 -60.5l23.5 -49.5t14 -31.5z
M610 528q2 20 -0.5 44t-6 46.5t-7.5 40t-5 23.5q-10 11 -35.5 18.5t-54 10.5t-55 1t-39.5 -12q-2 -26 -3 -58t-1 -64t1.5 -60t5.5 -46q20 0 48 2.5t56.5 8.5t54 16.5t41.5 28.5z" />
    <glyph glyph-name="S" unicode="S" horiz-adv-x="830" 
d="M763 729q-85 -13 -170.5 -20.5t-170.5 -24.5q-17 -29 -22 -62.5t-6 -68.5q92 -18 183.5 -33t184.5 -32q18 -43 23.5 -94t1 -102.5t-18.5 -100t-35 -88.5q-72 -37 -149 -63.5t-156.5 -45t-160 -31t-157.5 -22.5q-9 7 -16.5 38.5t-12 68.5t-7 71t-1.5 49q43 2 93.5 8.5
t98.5 15.5t88 20t61 22q5 15 7 38.5t0 44.5q-12 9 -40 15.5t-64 12t-77 11t-79 12t-70 15t-51 21.5q-5 115 14.5 229t64.5 216q72 28 150 47t158 31t160 16t156 1q15 -48 18 -106t2 -109z" />
    <glyph glyph-name="T" unicode="T" horiz-adv-x="893" 
d="M859 920q2 -23 2 -53t-2 -60t-5.5 -57t-6.5 -45q-54 -7 -106 -11.5t-106 -6.5q-5 -25 -10 -72.5t-9.5 -108t-8 -129t-6 -135t-3.5 -126.5t0 -105q-76 -13 -152 -24.5t-151 -5.5q-9 102 -13 186t-5 162t0 157.5t2 170.5q-28 2 -60.5 1.5t-65.5 -2t-65 -5.5t-59 -6
q-3 58 2 122t20 124q13 6 51.5 11.5t92.5 9.5t120 7t134.5 5t135 3t122.5 0.5t96 -2.5t56 -5z" />
    <glyph glyph-name="U" unicode="U" horiz-adv-x="974" 
d="M913 906q-1 -77 -3 -168.5t-3 -184.5t-1 -180t2 -156q-7 -22 -21 -49t-31.5 -55.5t-36 -55.5t-35.5 -48q-57 -2 -133 -6t-157.5 -7t-162 -3t-147.5 7q-14 15 -31.5 40.5t-35 54.5t-31.5 57.5t-21 49.5q0 37 -1 93.5t-2.5 122t-2 134.5t0 131t2.5 114.5t6 83.5
q80 10 155 12t160 -8q-7 -96 -9 -180t-1.5 -160.5t4 -146.5t7.5 -141q20 -10 49 -14t58.5 -1.5t57 12t44.5 27.5q0 72 -1 150.5t-1.5 158t-0.5 155.5t1 142q80 18 159.5 18t162.5 1z" />
    <glyph glyph-name="V" unicode="V" horiz-adv-x="918" 
d="M892 893l-74.5 -208.5l-80 -225.5l-81 -231l-77.5 -225q-36 -5 -78 -8.5t-84.5 -5.5t-84.5 -2.5t-78 1.5q-20 59 -42.5 133.5t-44.5 156.5t-42.5 167.5t-38 166.5t-31 153.5t-21.5 127.5l83 11.5t89 11.5t75 7.5t40 -2.5q4 -29 11.5 -67.5l16 -80.5l17.5 -84.5
l17.5 -80.5t15.5 -66.5t10 -44.5q1 -5 5.5 -17.5t10 -25.5t12 -23.5t11.5 -10.5q8 0 14.5 7t11.5 16t8.5 18.5t5.5 15.5q30 107 67 222l70 221q49 6 93 4t79 -7t60 -11.5t35 -12.5z" />
    <glyph glyph-name="W" unicode="W" horiz-adv-x="1308" 
d="M1287 933q-3 -70 -11.5 -154t-20.5 -172.5t-25.5 -177t-27 -168l-25.5 -146t-21 -110.5q-54 -4 -103 -7t-96.5 -5t-95 -2.5t-99.5 -0.5q-2 10 -6 35.5l-9.5 60.5l-12 74.5l-12.5 75.5t-11.5 65.5t-8.5 42.5q-4 18 -11.5 26.5t-15.5 8t-15 -9.5t-12 -25l-16.5 -63.5
l-23 -88l-25.5 -102l-25 -105.5q-55 -4 -101.5 -6t-90 -1.5t-87.5 3t-93 4.5q-25 116 -43.5 231t-34.5 229.5l-32 230t-37 230.5q72 13 146.5 18.5t155.5 -9.5q18 -97 34 -194l31 -196q2 -10 14 -12.5t15 4.5q15 40 31 94l32 110l30.5 110t26.5 94q69 6 140.5 9.5
t139.5 -9.5l61 -192t58 -194q2 -5 6.5 -10.5t10 -5t11 9.5t8.5 31q24 182 44 369q57 12 121 9t132 -9z" />
    <glyph glyph-name="X" unicode="X" horiz-adv-x="936" 
d="M930 918q-36 -70 -71.5 -131.5l-69.5 -118l-67.5 -109.5l-65.5 -106l60 -110.5l67 -122.5l67.5 -120l60.5 -105l-83.5 -9l-89.5 -10t-75.5 -7.5t-40.5 0.5q-13 25 -30.5 55.5l-35.5 60.5l-33.5 54.5t-24.5 37.5q-3 6 -9.5 17t-17.5 11q-16 0 -25.5 -14.5t-14.5 -21.5
l-60.5 -100t-53.5 -105q-49 -5 -97.5 -5t-88.5 2t-68.5 5.5t-39.5 5.5q18 51 43 110t55.5 121.5l64 125t67.5 116.5q-14 20 -32 55.5l-38.5 78t-40.5 90.5l-37.5 93t-31 85t-20.5 67q27 4 65 8.5l78 9t78.5 6t66.5 -0.5l26.5 -56l26 -54l22.5 -47.5t16 -35.5q1 -4 5.5 -11
t10.5 -15t12.5 -14t11.5 -6q16 0 26 14t14 21l23 42l30.5 53.5l33.5 57.5l32 56q49 5 98 2.5t90 -7.5t70.5 -10.5t40.5 -8.5z" />
    <glyph glyph-name="Y" unicode="Y" horiz-adv-x="964" 
d="M937 914q-36 -58 -75.5 -129l-81 -147l-83 -151.5l-80.5 -140.5l-4 -178.5t-5 -159.5q-34 -7 -71 -9.5t-74.5 -2t-74 2.5t-69.5 2q0 90 -2.5 178.5t-4.5 178.5q-22 28 -49 72t-55 95l-56 106.5t-51 108t-40.5 98t-24.5 76.5q38 2 86.5 6.5t93.5 7.5t78.5 4t42.5 -1
q6 -27 22.5 -64.5t35 -75l34.5 -69t21 -44.5q1 -4 5.5 -11t10.5 -15.5t12.5 -14.5t12.5 -6q17 0 28 13t15 20q31 65 59 133.5t63 132.5q51 3 97.5 2.5t83.5 -3.5t63 -7t37 -8z" />
    <glyph glyph-name="Z" unicode="Z" horiz-adv-x="760" 
d="M711 175q4 -46 -0.5 -93t-14.5 -95q-78 -12 -160.5 -16t-163.5 -4t-157 3t-141 7q-8 24 -15.5 52.5t-13 57t-7.5 54.5t0 44l95 147l97.5 155l87 144t61.5 112q-38 3 -78 1.5t-80 -2.5t-79.5 0t-76.5 9q-13 46 -16 93.5t-1 99.5q49 2 126 10t165.5 12t181 0.5t172.5 -25.5
q1 -22 3 -50.5t3 -58t0.5 -57.5t-4.5 -51q-39 -84 -79 -154.5l-80 -135l-80 -125.5l-79 -126q33 -4 77 -4.5t90.5 -0.5h90t76.5 -3z" />
    <glyph glyph-name="bracketleft" unicode="[" horiz-adv-x="526" 
d="M482 150q4 -35 3.5 -80.5t-5.5 -80.5q-93 -10 -193.5 -6.5t-194.5 12.5q-6 101 -8.5 221.5t-2.5 243.5t2 239.5t5 209.5q41 8 91.5 16t102 12t100.5 4t88 -7l4.5 -40t4.5 -47.5t2.5 -47t-1.5 -39.5q-25 -3 -56 -6t-57 -4q-6 -59 -9.5 -134.5t-5.5 -154.5t-1.5 -154.5
t3.5 -134.5q41 -11 75.5 -14.5t52.5 -7.5z" />
    <glyph glyph-name="backslash" unicode="\" horiz-adv-x="711" 
d="M694 -6l-75.5 -9.5t-81 -10t-67.5 -7t-37 -0.5q-11 25 -37.5 78l-59.5 119.5l-68.5 140l-65.5 139.5l-26 58l-34 79l-37 90l-35.5 91.5t-29 83.5t-18.5 67q25 3 59 8t70 9t70.5 6t60.5 0q15 -44 40.5 -109l58.5 -145.5l71 -170l79 -180l82.5 -177z" />
    <glyph glyph-name="bracketright" unicode="]" horiz-adv-x="526" 
d="M81 768q-4 35 -3.5 80t5.5 80q93 10 193.5 7t194.5 -12q6 -101 8.5 -222t2.5 -243.5t-2 -239t-5 -208.5q-41 -9 -91.5 -16.5t-102 -12.5t-100.5 -5t-88 7q-2 17 -4.5 40.5t-4.5 47.5t-2.5 47.5t1.5 39.5q25 3 56 6t57 4q6 59 9.5 134.5t5.5 154.5t1.5 155t-3.5 133
q-41 12 -75.5 15.5t-52.5 7.5z" />
    <glyph glyph-name="asciicircum" unicode="^" horiz-adv-x="712" 
d="M698 425q-28 -3 -63.5 -7.5l-68 -8.5t-57.5 -6t-31 1l-23 47.5l-26.5 51.5l-25.5 47t-19 32q-2 6 -7 15t-13 9q-13 0 -20.5 -12t-10.5 -18l-46 -86t-41 -91q-37 -4 -74 -4.5t-67.5 1.5t-52 5t-29.5 5q14 43 33 94.5t42 105.5t48.5 108t51.5 101q26 5 69 7t88.5 2.5
t86.5 -1t62 -2.5l46 -95l51 -105.5l51 -104z" />
    <glyph glyph-name="underscore" unicode="_" horiz-adv-x="636" 
d="M578 5q-62 -4 -127 -6t-130.5 -3t-130.5 -4t-126 -9q-9 29 -12 62t-1.5 64.5t6.5 58.5t11 44l66.5 2.5t88 2.5t99 1.5t98.5 0t87 -1.5t64 -4q3 -16 6 -44.5t4.5 -59t1 -59.5t-4.5 -45z" />
    <glyph glyph-name="grave" unicode="`" horiz-adv-x="386" 
d="M25 748q51 26 111 40.5t127 14.5l15 -45.5t21 -58t26.5 -62t32.5 -57.5q-16 -6 -34.5 -11.5t-38 -9t-38.5 -6t-35 -3.5q-47 32 -94.5 87.5z" />
    <glyph glyph-name="a" unicode="a" horiz-adv-x="834" 
d="M782 22q-35 -10 -87 -19t-112 -15.5t-124.5 -11t-124 -6t-110 1t-83.5 8.5l-29.5 40.5t-32 46.5t-28.5 47t-20 41q2 65 18 129t39 108q24 15 68.5 28.5t98.5 26.5t113 24t113 20q-3 12 -6 27.5t-6 21.5q-23 14 -64 21t-89.5 9t-98.5 1.5t-90 -0.5q-1 24 1 51.5t6.5 53
t11 45t15.5 28.5q68 7 139.5 11t143.5 2t142 -12t135 -28q19 -24 31.5 -72.5t20.5 -111.5t11.5 -135t4 -141.5t-1.5 -132.5t-5 -107zM502 155q-1 45 -1.5 86t-2.5 84q-40 -8 -76.5 -12.5t-73.5 -22.5q-7 -13 -10 -30.5t-2 -36t4.5 -36.5t8.5 -32q23 -10 61 -7.5t92 7.5z" />
    <glyph glyph-name="b" unicode="b" horiz-adv-x="902" 
d="M864 423q-4 -42 -12.5 -102t-20.5 -117.5t-27.5 -104.5t-33.5 -63l-63 -12.5t-84.5 -14t-94 -12.5t-91.5 -8q-100 -6 -192 -4.5t-167 19.5q-4 30 -5.5 91t-2 139.5t1 169l3 181t3.5 174.5t3 150q32 10 71 18.5t77.5 13.5t74 7.5t60.5 0.5l-3 -66t-3 -89t-1 -84t1 -52
q17 4 51.5 6.5t75 5t81.5 3.5t71 1q29 -11 61.5 -38t64 -63t58.5 -75.5t43 -74.5zM540 438q-10 9 -32 15t-48.5 8t-52 -0.5t-43.5 -9.5q-4 -35 -5.5 -76t-1 -80.5t2.5 -72.5t5 -52q17 -4 36 -3t38.5 3t37.5 6.5t32 9.5q11 16 17.5 46t10 66t4 73t-0.5 67z" />
    <glyph glyph-name="c" unicode="c" horiz-adv-x="738" 
d="M702 164q1 -21 -1 -48.5t-6.5 -52.5t-11 -45t-15.5 -26q-70 0 -146.5 2.5t-153.5 9t-151.5 20.5t-140.5 36q-19 23 -29.5 68t-13.5 102t1 120.5t14.5 123t27 110.5t37.5 82q26 14 73.5 27t105 23t119.5 17.5t117 10.5t97 1t59 -9q3 -22 6.5 -68t-6.5 -99q-46 -3 -87.5 -5
t-79 -5.5t-73 -10t-71.5 -21.5q-10 -35 -19.5 -80.5t-14 -91t-1.5 -86.5t18 -66q16 -9 44.5 -14.5t63.5 -8.5t72.5 -4.5t71 -2.5t59 -3t35.5 -6z" />
    <glyph glyph-name="d" unicode="d" horiz-adv-x="927" 
d="M853 914q0 -102 0.5 -223t0 -245.5t-3 -242t-10.5 -212.5q-52 -13 -111.5 -20t-120.5 -9.5t-121.5 -1t-115 6t-100 9t-76.5 8.5q-42 36 -80 92.5l-70 106.5q-7 40 0 99.5t24.5 121t44 116t59.5 86.5q45 9 92 19.5t95 18.5t98 12t101 1q0 28 1 63.5l2 71.5t2.5 69.5
t2.5 58.5q29 12 67.5 16t78.5 2.5t77 -8t63 -16.5zM555 441q-41 11 -91 9t-91 -22q-17 -72 -24.5 -138t3.5 -119q18 -6 43 -9t53 -3t55.5 3t50.5 9q3 7 4 43t0.5 80.5t-1.5 86.5t-2 60z" />
    <glyph glyph-name="e" unicode="e" horiz-adv-x="865" 
d="M827 302q-32 -5 -89 -11t-124.5 -11t-139 -9t-131.5 -6q2 -18 6 -33t11 -26q15 -9 46 -16.5t69 -12t79.5 -8.5t78 -7t64 -6t37.5 -7q1 -21 -1 -48.5t-6.5 -52.5t-11 -45t-15.5 -26q-69 0 -150 5t-163 15t-161 27t-145 39q-19 23 -29.5 68t-13.5 102t1 120.5t14.5 123
t26.5 110.5t37 82q26 14 77.5 27t115 23t132.5 17.5t129.5 10.5t106.5 1t63 -9q23 -40 40 -92t27.5 -109.5t15.5 -118t3 -117.5zM534 440q2 28 -0.5 59t-15.5 55q-17 -1 -32.5 -1.5t-32 -2.5t-35 -6t-41.5 -14q-9 -29 -17 -51.5t-13 -61.5q55 -2 103.5 6t83.5 17z" />
    <glyph glyph-name="f" unicode="f" horiz-adv-x="780" 
d="M756 800q-56 -4 -116 -17t-106 -43q-9 -16 -15 -43.5t-10 -86.5q28 -5 52 -6t47 -1t46.5 0.5t48.5 -1.5q6 -26 8 -46t1.5 -40t-4.5 -40t-10 -45q-36 -5 -57.5 -6.5t-40.5 -3.5t-40.5 -5t-57.5 -10q-1 -50 -1 -109v-114t0.5 -101.5t1.5 -70.5q-32 -7 -70 -11t-76.5 -6
t-74 -1.5t-62.5 4.5q-2 26 -4 69.5t-4 97.5t-3 116t-1 127l-79 -4t-69 -7q-5 24 -6.5 51t-0.5 53.5t3.5 49t5.5 36.5q20 2 61 3.5t89 1.5q2 54 6 103t10 89.5t14.5 69t19.5 43.5q65 24 119.5 36.5t107.5 18.5t109 7t124 2q9 -6 15.5 -24t11 -41t6.5 -49t1 -46z" />
    <glyph glyph-name="g" unicode="g" horiz-adv-x="855" 
d="M796 767q1 -14 1.5 -63.5t0 -115.5t-1.5 -142t-3 -144.5t-5.5 -122t-7.5 -74.5q-8 -41 -20 -80.5t-29 -72t-40 -57t-52 -35.5q-49 -18 -116 -30.5t-138 -21t-139.5 -13t-119.5 -6.5q-15 38 -23 85.5t-5 86.5l81.5 6.5t92.5 9t91.5 13.5t79.5 20q9 8 16.5 34t12.5 61
q-103 -5 -205 0.5t-191 29.5q-19 20 -29.5 62t-13.5 95.5t1 113t14.5 115.5t27 105.5t37.5 80.5q36 19 88.5 33.5t113.5 23.5t126.5 14t129.5 5t122 -4t103 -12zM494 597q-32 -4 -61.5 -10.5t-59.5 -18.5q-10 -35 -19.5 -72t-14 -72.5t-1.5 -67t18 -55.5q18 -9 53.5 -12
t78.5 -2q4 77 5 155t1 155z" />
    <glyph glyph-name="h" unicode="h" horiz-adv-x="857" 
d="M794 769q5 -49 6.5 -118.5t1 -147t-2 -158t-3.5 -151t-4 -126.5l-3 -85q-18 -3 -55.5 -4.5t-77.5 -1.5t-74 0.5t-46 2.5q-2 27 -0.5 62.5t2.5 73.5t0 75t-7 67q-13 1 -42.5 3t-61.5 1.5t-59 -5.5t-33 -18q-5 -65 -7 -130.5t0 -130.5q-59 -12 -129.5 -13.5t-133.5 3.5
q-5 33 -8 93.5t-4.5 135t-1 156t2 156.5t3 137.5t2.5 98.5q16 4 41.5 7.5t55.5 6t61 3t57 0t43.5 -3t21.5 -7.5q-10 -60 -10 -128.5v-129.5q20 -5 51.5 -5t63.5 3t58 8t36 9q4 18 4 48.5t-1 64.5l-2 69t1 61q14 7 49.5 12t76 7.5t76.5 2.5t52 -4z" />
    <glyph glyph-name="i" unicode="i" horiz-adv-x="394" 
d="M332 671q0 -87 -1.5 -166t-4.5 -157.5t-6.5 -159t-8.5 -169.5q-11 -6 -43 -9.5t-68 -6t-69.5 -2.5t-47.5 1q-11 163 -12.5 334t4.5 320q30 6 63 9t66.5 4.5t66 1.5h61.5zM343 803q-6 -12 -27.5 -22t-49.5 -16t-60 -9.5t-60 -2t-48.5 6t-26.5 14.5q-6 11 -7.5 28t-0.5 36
t3.5 37t4.5 28q3 18 19.5 31t37.5 22t42.5 13.5t34.5 7.5q11 2 26.5 0t31.5 -6t31.5 -9t25.5 -11q14 -34 21 -72t2 -76z" />
    <glyph glyph-name="j" unicode="j" horiz-adv-x="431" 
d="M357 722q6 -37 7.5 -102t0.5 -143t-4.5 -162t-7.5 -160.5t-8.5 -138.5t-8.5 -94q-19 -30 -63 -53t-99.5 -38.5t-116.5 -24.5t-115.5 -12t-96.5 0t-59 11q-3 23 -6.5 67t6.5 100q37 1 72 1.5t69.5 4.5t69 12t69.5 23q7 24 11 73t6 111.5t2 133.5t-1.5 140t-4.5 130.5
t-8 106.5q24 6 57.5 12t71.5 9t78.5 1.5t78.5 -8.5zM360 850q-7 -12 -28 -21t-49.5 -15.5t-60 -9.5t-60 -1.5t-48.5 6t-26 14.5q-6 11 -7.5 28t-0.5 36t3.5 37t4.5 28q3 18 19.5 31t37.5 22t42 13.5l34 7.5q12 2 27.5 0t31.5 -6t31 -9t26 -11q14 -34 21 -72.5t2 -77.5z" />
    <glyph glyph-name="k" unicode="k" horiz-adv-x="841" 
d="M819 699q-14 -21 -40.5 -64l-57 -92l-61 -99.5t-51.5 -88.5q20 -47 45.5 -88.5t52.5 -80.5l54 -78t49 -82q-24 -8 -61.5 -15.5t-76.5 -12t-74.5 -7.5t-56.5 -5l-61 81.5l-52.5 75l-41 61t-28.5 38.5q-9 5 -15 5q-5 0 -9.5 -3t-4.5 -15q0 -19 0.5 -47.5t0.5 -59.5
t-0.5 -62.5t-2.5 -55.5q-14 -7 -52 -11t-81 -6.5t-81.5 -2.5t-54.5 4q-4 45 -6 123.5t-1.5 173t2 194t3.5 187t4 154t3 93.5q25 5 65.5 6t82 0.5t75 -2t45.5 -2.5q-1 -17 -2 -50t-1.5 -75t-0.5 -88t0.5 -88t2.5 -77t5 -54q2 -13 13.5 -14t28.5 19l37 51l48 68l49.5 71.5
l41.5 60.5q29 1 62.5 -2.5t68 -9.5t69 -13.5z" />
    <glyph glyph-name="l" unicode="l" horiz-adv-x="442" 
d="M373 915q-1 -47 -2 -128t-1.5 -175t-0.5 -194v-185.5v-148v-82.5l-56.5 -6.5t-49.5 -3t-65.5 1.5t-105.5 5q-1 39 -3 108.5t-4 154.5t-4.5 178.5t-3.5 180.5t-0.5 161t3.5 120q8 3 29 6.5t49.5 5.5t61 2.5l62.5 1t54.5 -0.5t36.5 -2z" />
    <glyph glyph-name="m" unicode="m" horiz-adv-x="1111" 
d="M1063 1q-20 -9 -54 -13.5t-73 -5.5t-79.5 1.5l-74.5 4.5q-1 13 -2.5 41.5t-4 63t-4.5 72t-4.5 69t-4 54t-2.5 25.5q-7 21 -19.5 18.5t-18.5 -15.5l-29 -58.5l-39 -79.5l-43 -89l-43 -88q-26 0 -51 -0.5t-50 3.5q-24 38 -45 79.5l-39 80.5t-32.5 74.5l-25.5 61.5
q-5 11 -17 14.5t-20 -9.5q-4 -7 -7.5 -31t-5.5 -55.5t-3.5 -68t-2.5 -69t-1.5 -58.5t-0.5 -37q-57 -10 -112 -10.5t-118 5.5q-1 49 0 117t4 141.5t7 148.5t8 140t8 115t7 72q26 8 60 14t70.5 10.5t73 7.5t66.5 5t51 2t26 -1q23 -63 42.5 -126t48.5 -120q5 -12 18 -17.5
t25 2.5q5 4 15 22.5t23 45.5l27 57.5l26.5 59l22 50.5t13.5 32q27 7 73 10t96.5 3.5t99 -2t80.5 -7.5q10 -190 16.5 -378t18.5 -384z" />
    <glyph glyph-name="n" unicode="n" horiz-adv-x="930" 
d="M869 732q2 -176 1 -353.5t-6 -352.5q-29 -4 -69 -8.5l-86.5 -9.5t-96.5 -8t-100 -4q-49 72 -88.5 150.5t-74.5 159.5q-4 9 -12.5 13.5t-17.5 3t-16.5 -8.5t-9.5 -22q-7 -60 -8.5 -130.5t3.5 -155.5q-54 -14 -108.5 -16t-113.5 7q-4 30 -7 81.5t-4.5 115.5t-2 134
t-0.5 139t1 132t3 110q5 5 31 9.5t63.5 9.5t81.5 8.5t85 6t75 2.5t50 -3q29 -81 64.5 -159l70.5 -156q3 -7 10 -11.5t15 -3t15 8t11 19.5q1 5 2.5 38.5t2.5 78t2.5 89t2.5 69.5q57 13 115 17t116 0z" />
    <glyph glyph-name="o" unicode="o" horiz-adv-x="880" 
d="M831 150q-29 -36 -56.5 -74.5t-59.5 -74.5q-48 -9 -120.5 -13t-152 -4t-157.5 3t-137 10q-13 13 -28.5 34t-30.5 45t-28 48t-20 42q-1 46 -1 102.5v113t1.5 109.5t3.5 93q12 12 31 33l39.5 42.5l39.5 40t32 26.5q46 3 110.5 8.5t134 8.5t137 2t119.5 -11q38 -30 73.5 -78
l64.5 -90q3 -41 5.5 -101.5t3.5 -122.5t0.5 -114.5t-4.5 -77.5zM534 195q2 75 4 166.5t-10 187.5q-26 -1 -49.5 -1.5t-45 -2.5t-42.5 -6.5t-43 -14.5q-5 -10 -7.5 -35.5t-4 -60t-1.5 -73.5v-75t1 -64t1 -42q21 -10 48.5 -12.5t55.5 0.5t53 12t40 21z" />
    <glyph glyph-name="p" unicode="p" horiz-adv-x="904" 
d="M851 384q-2 -18 -17.5 -51t-38.5 -69t-49.5 -70t-50.5 -55q-43 -13 -91 -24.5t-96 -20t-92 -14.5t-79 -8q0 -28 1 -60.5l2 -65t1.5 -64t-1.5 -59.5q-25 -3 -58 -6t-68 -5t-70 -2t-64 2l-4.5 142t-4 165.5t-1.5 175.5t0.5 171t3.5 151.5t7 117.5q23 7 70 12t105.5 7.5
t123 3t124.5 0t109.5 -2.5t76.5 -5q37 -41 62.5 -82.5t43.5 -85.5t30.5 -93t24.5 -105zM545 352q-2 60 -12 113t-19 77q-9 13 -28 19.5t-40.5 8.5t-42.5 -0.5t-35 -8.5q-2 -21 -6 -55t-6.5 -72t-2.5 -78.5t4 -75.5q15 -2 40 1.5t52.5 12.5t53.5 23.5t42 34.5z" />
    <glyph glyph-name="q" unicode="q" horiz-adv-x="902" 
d="M46 312q3 42 11.5 101.5t21 117t28 105t32.5 64.5l63 11t85 13.5t94 12.5t91 8q100 6 192 5t168 -20q4 -30 5.5 -91t1.5 -139t-1 -168.5t-2.5 -181t-3.5 -174.5t-3 -150q-33 -10 -71.5 -19t-77.5 -14t-74 -7.5t-60 -0.5q2 23 3.5 66t2 89.5t1 85t-1.5 51.5q-17 -4 -51 -7
t-74.5 -5.5t-82 -3.5t-71.5 -1q-28 11 -61 38.5t-64.5 63.5t-58 75.5t-42.5 74.5zM370 296q10 -9 32 -14.5t48 -7.5t52 0.5t44 9.5q5 35 6 76t0 80t-3 72t-5 52q-16 4 -35.5 4t-39 -3t-37.5 -7.5t-32 -9.5q-10 -16 -16.5 -46t-10 -66t-4 -73t0.5 -67z" />
    <glyph glyph-name="r" unicode="r" horiz-adv-x="878" 
d="M837 28q-15 -8 -46.5 -17t-69 -17t-76.5 -13.5t-70 -6.5q-21 23 -38 43.5l-33.5 41.5l-32.5 42.5l-36 46.5q-7 10 -15.5 19.5t-17.5 17t-18.5 11.5t-20.5 0q-13 -5 -16 -20t-2 -28v-77t-2 -78q-18 -5 -47 -9t-64 -7t-75.5 -3t-81.5 4q-3 33 -5.5 96.5t-4.5 141t-3 161.5
t0.5 157.5t5 129t9.5 77.5q25 7 70.5 11t101.5 5.5t119 0t123.5 -4.5t113.5 -7t89 -10q26 -22 53 -56t47.5 -77t31.5 -93t6 -103q-20 -24 -55.5 -60.5t-75.5 -71.5q12 -18 32.5 -54.5l42 -75.5l39 -72.5t22.5 -44.5zM533 425q2 16 0 35.5t-5.5 38.5t-7 33t-4.5 19
q-10 10 -33.5 16t-50 8.5t-50.5 0.5t-36 -9q-2 -22 -3 -48.5t-1 -52t1.5 -49t4.5 -39.5q19 0 44.5 2.5t52 7.5t50 14t38.5 23z" />
    <glyph glyph-name="s" unicode="s" horiz-adv-x="747" 
d="M687 584q-77 -11 -153.5 -17.5t-153.5 -19.5q-16 -23 -20 -50t-5 -54q83 -15 165 -27.5l166 -25.5q16 -34 21 -74.5t1 -82t-16.5 -81t-31.5 -71.5q-64 -30 -134 -51t-141.5 -35t-143.5 -24.5t-142 -17.5q-9 5 -15.5 30t-10.5 54.5t-6 57.5t-1 39q38 3 83.5 7.5t88.5 12
t79.5 16.5t55.5 17q4 12 6 31t0 35q-11 8 -36 13t-57.5 10t-69.5 9t-71.5 9t-63 12t-45.5 18q-5 91 12.5 183t58.5 173q65 22 135.5 37.5t142.5 24.5t143.5 12.5t140.5 1.5q13 -39 16 -85.5t2 -86.5z" />
    <glyph glyph-name="t" unicode="t" horiz-adv-x="786" 
d="M764 675q2 -18 2 -42t-1.5 -48t-4.5 -45.5t-6 -35.5q-24 -3 -53.5 -5l-59.5 -4t-59.5 -3t-53.5 -3q-7 -30 -10 -88.5t-4.5 -128t-1 -140t1.5 -123.5q-68 -9 -136 -19.5t-136 -4.5q-8 82 -11.5 139.5t-4.5 109t0 105t1 126.5q-51 5 -106 0.5t-103 -9.5q-3 45 1.5 97
t18.5 100q31 13 198 22q0 24 0.5 56.5l1 66t1.5 65t2 52.5q29 6 67.5 9t78 4.5t77.5 1.5h67v-57t-0.5 -68l-1 -67.5t-0.5 -56.5h78t69.5 -0.5t54.5 -1.5t33 -4z" />
    <glyph glyph-name="u" unicode="u" 
d="M822 725q-1 -62 -3 -135t-3 -147.5t-1 -144t2 -124.5q-6 -18 -18.5 -39.5t-28.5 -44.5t-33 -44.5t-32 -38.5q-51 -1 -119 -4t-141.5 -5.5t-146 -2.5t-133.5 5q-12 12 -28 32.5t-31.5 43.5t-28 46t-18.5 40q0 30 -1 75t-2 97l-2 106.5t-0.5 105t2 92.5t5.5 67
q72 9 139.5 10.5t144.5 -7.5q-6 -77 -8 -144t-1.5 -128.5t3.5 -118t7 -112.5q18 -7 44 -10t52.5 -1.5t51 9.5t40.5 21q0 58 -1 121t-1.5 126.5t-0.5 124.5t1 113q72 14 143.5 14t146.5 2z" />
    <glyph glyph-name="v" unicode="v" horiz-adv-x="826" 
d="M802 715l-66.5 -167.5l-72.5 -180.5l-73.5 -184.5l-69.5 -180.5q-32 -3 -69.5 -6t-76 -5t-76 -2t-70.5 1q-28 71 -58.5 167.5t-58 198.5t-49.5 197t-32 162q33 4 75 8.5t80 9t67 6t36 -1.5q6 -35 17 -85.5t23.5 -100.5l23.5 -92.5t15 -60.5q1 -3 5 -13.5t9 -21t11 -18.5
t10 -8q8 0 14 5t10.5 12t8 15t4.5 12q26 87 59.5 178l63.5 176q44 5 83.5 4t71 -5.5t54 -9.5t31.5 -9z" />
    <glyph glyph-name="w" unicode="w" horiz-adv-x="1177" 
d="M1158 746q-3 -56 -11 -123t-18.5 -138t-22.5 -141l-24 -134t-23 -117l-19 -89q-48 -4 -92 -6t-87 -3.5t-85.5 -1.5h-89.5q-2 7 -5.5 27.5l-8.5 48.5l-11 59.5l-11.5 60.5l-10 52t-7.5 34q-8 30 -24 28t-24 -28l-15.5 -50.5l-20.5 -70l-23 -81l-23 -84.5q-49 -3 -91 -5
t-81 -2t-78.5 2t-84.5 4q-23 92 -39.5 184t-30.5 184.5l-28.5 184t-33.5 184.5q65 9 132 14t139 -7q17 -78 31 -155.5l28 -156.5q1 -4 4.5 -7t8 -3.5t8.5 0t5 4.5q14 31 28.5 74.5l29 89l27.5 88.5t24 74q62 6 126.5 8t125.5 -8l54 -154l53 -155q2 -5 6 -9t9 -3.5t9.5 7.5
t7.5 25q11 72 21 146.5t19 148.5q51 10 108.5 8t118.5 -8z" />
    <glyph glyph-name="x" unicode="x" horiz-adv-x="842" 
d="M837 735l-64.5 -105.5l-62.5 -94.5l-61 -87.5l-59 -85.5l54 -89l60.5 -97l60.5 -96l55 -84q-33 -3 -75 -7.5t-81 -8t-68 -5.5t-36 0l-27.5 45l-31.5 48.5l-30 43l-22 30.5q-4 4 -9.5 13t-15.5 9q-14 0 -23 -11t-13 -17l-55 -80t-48 -85q-44 -4 -87.5 -4t-79.5 2t-62 4
t-36 5q16 39 39 87t50.5 98l57.5 100t61 94q-19 24 -46 73t-54 105t-49 110t-31 86l58.5 7t69.5 7.5t70.5 5.5t60.5 0l47.5 -89t34.5 -67q1 -3 5 -9t9.5 -12t11 -10.5t10.5 -4.5q14 0 23 10.5t13 16.5q8 15 20.5 34.5l27.5 42.5l30.5 46.5l28.5 43.5q44 4 88 2.5t81 -5
t63.5 -8.5z" />
    <glyph glyph-name="y" unicode="y" 
d="M843 731q-32 -45 -67.5 -102.5l-73 -118.5l-75 -121l-72.5 -112l-4 -143.5t-4 -126.5q-30 -6 -63.5 -8t-67 -2t-66.5 2t-63 2q0 72 -2 142.5l-4 142.5q-20 23 -44 58l-49.5 75.5t-50.5 85.5l-46.5 87t-36.5 78t-22 61q35 3 78.5 6t84 5.5t71 3.5t37.5 -1q6 -21 21 -51.5
t31.5 -60.5l30.5 -55t19 -36q1 -3 5 -9t9.5 -12.5t11.5 -11t11 -4.5q15 0 25 10.5t13 16.5q28 51 53.5 106t56.5 105q47 4 88.5 3.5t74.5 -3t56.5 -6t33.5 -6.5z" />
    <glyph glyph-name="z" unicode="z" horiz-adv-x="684" 
d="M640 140q4 -38 -0.5 -75t-13.5 -75q-70 -10 -144 -13t-147 -3t-141.5 2.5l-126.5 4.5q-8 19 -15 42.5t-11.5 46.5t-6.5 43.5t0 34.5l86 117l87.5 124l78 115t55.5 90q-69 3 -142 -0.5t-140 6.5q-12 38 -15 75.5t-1 79.5q44 3 113.5 9t149 9.5t163 0t155.5 -20.5
q1 -18 2.5 -41t2.5 -46.5t0 -46t-4 -40.5q-35 -67 -70.5 -123.5t-71.5 -108l-72 -101l-71 -100.5q30 -4 69.5 -4h81h81t68.5 -2z" />
    <glyph glyph-name="braceleft" unicode="{" horiz-adv-x="504" 
d="M468 820q-36 -4 -65.5 -21.5t-49.5 -44.5q-8 -10 -3.5 -35t13 -56t16.5 -65t5 -64q-1 -14 -12 -26t-24 -21q-15 -12 -34 -23q17 -22 30 -41q11 -17 20.5 -33.5t9.5 -28.5q0 -36 -10 -69t-19.5 -60.5t-15 -47.5t2.5 -31q5 -7 15.5 -15.5t24 -16t28.5 -13.5t29 -9
q-4 -48 -15 -89.5t-26 -61.5q-33 5 -72.5 15.5t-78.5 25t-74 31t-59 31.5q-16 10 -18 37t2.5 64.5t12 81.5t11.5 88q2 17 -8 40.5t-23 46.5q-15 26 -35 55q20 16 37 34q14 15 26.5 33.5t14.5 38.5q5 42 -3 83l-15.5 79t-7 71t21.5 57q44 50 123.5 72t179.5 34
q6 -11 14 -28.5t15 -37.5t11.5 -41t4.5 -39z" />
    <glyph glyph-name="bar" unicode="|" horiz-adv-x="574" 
d="M532 703q-20 -2 -46 -3t-48 -2q-2 -123 -6 -247t-9 -250q23 0 47.5 -0.5t38.5 -2.5q3 -16 5 -43t3.5 -55t0.5 -54.5t-4 -42.5q-51 -3 -109 -5t-117.5 -3t-117.5 -3.5t-109 -8.5q-7 26 -9.5 57t-1 60t5 54.5t8.5 40.5q7 0 18 1t23.5 1.5l25.5 1t23 0.5q-4 121 -5 246.5
t1 241.5q-10 0 -23.5 -0.5t-27.5 -1.5t-27.5 -2.5t-23.5 -2.5q-8 29 -10.5 62.5t-1 66t5.5 60t10 44.5q23 1 61 3t83.5 2.5l94.5 1t94 0.5t82.5 -1t58.5 -4q3 -18 5.5 -46.5t4 -59t0.5 -59.5t-4 -47z" />
    <glyph glyph-name="braceright" unicode="}" horiz-adv-x="504" 
d="M39 103q36 5 66 22.5t49 43.5q8 11 3.5 35.5t-13 56.5t-16.5 66t-5 63q2 13 13 25.5t24 22.5q15 12 34 22q-17 21 -30 40q-11 17 -21 34.5t-10 28.5q1 36 10.5 69t19.5 60.5t15 47.5t-3 30q-5 8 -15.5 16t-24 16t-28 14.5t-28.5 7.5q3 48 14 89.5t26 62.5q33 -5 72.5 -16
t78.5 -25.5t74 -30.5t59 -32q16 -9 18.5 -36t-2 -65t-12 -81.5t-12.5 -88.5q-2 -15 8.5 -39t23.5 -47q15 -27 34 -55q-20 -16 -37 -34q-14 -16 -26.5 -34.5t-14.5 -37.5q-4 -41 3.5 -82.5l15 -79.5t7 -71t-21.5 -57q-22 -26 -53 -43t-70 -28.5t-84.5 -19.5t-95.5 -15
q-6 11 -14 28.5t-15 37t-11.5 40.5t-4.5 39z" />
    <glyph glyph-name="asciitilde" unicode="~" horiz-adv-x="710" 
d="M680 704l-22 -36.5l-33.5 -54.5t-40.5 -61.5t-44.5 -57t-44 -40.5t-39.5 -14q-30 4 -68.5 22.5t-74.5 39.5t-65 35.5t-40 8.5q-7 -4 -16.5 -13t-19.5 -21.5t-20 -27l-19 -28.5q-37 20 -60.5 43.5t-34.5 47.5q15 36 35.5 77.5t44 79t49 67.5t49.5 43q26 15 54.5 6.5
t59 -27.5t63 -43t66.5 -42q23 -12 46 1t41 33q21 24 41 58q28 -17 53.5 -41t39.5 -55z" />
    <glyph glyph-name="uni00A0" unicode="&#xa0;" horiz-adv-x="400" 
 />
    <glyph glyph-name="exclamdown" unicode="&#xa1;" horiz-adv-x="442" 
d="M55 -3l28.5 190.5l24.5 174l19 141t12 93.5l43 6t61.5 7t61 4.5t40.5 -2.5q11 -158 8.5 -314t-2.5 -311q-79 -10 -155 -11.5t-141 22.5zM110 928q6 12 27.5 22t49.5 17t60 10t60 2t48.5 -6t26.5 -16t7.5 -28.5t0.5 -37t-3.5 -38.5t-4.5 -31q-4 -19 -20 -32t-37 -22
t-42 -14.5t-35 -7.5q-11 -3 -26.5 -1t-31.5 5.5t-31 9.5t-26 11q-14 36 -21 76t-2 81z" />
    <glyph glyph-name="cent" unicode="&#xa2;" horiz-adv-x="776" 
d="M710 654q-35 -2 -75.5 -8t-81 -14.5l-78.5 -17l-69 -15.5q-12 -23 -21.5 -57.5t-13.5 -72.5t-0.5 -75.5t17.5 -65.5q15 -7 54.5 -13.5t87.5 -12t96.5 -10.5t81.5 -8q1 -10 -1.5 -32t-7 -47t-11.5 -47.5t-16 -33.5q-25 2 -42.5 3t-33.5 1t-34.5 1.5t-45.5 5.5
q-2 -34 -2 -68t-1 -87q-18 -5 -50 -8t-67 -3.5t-66 0.5t-47 6q-12 45 -15 89t-6 95q-24 6 -51 9t-53 8.5t-51 15t-45 26.5q-12 52 -12.5 126.5t8.5 150t25.5 141t37.5 101.5q15 5 29 9l30 8.5t36.5 8.5t49.5 8q-1 31 -2 56t-2 47l-2 42t-3 42q32 13 68 21t73 12t72.5 4
t65.5 -3q-10 -59 -12.5 -107.5t-7.5 -92.5q33 4 58.5 6.5t46.5 4t39.5 2.5t37.5 -1q2 -8 4.5 -26.5t5 -41t3.5 -44t-1 -38.5z" />
    <glyph glyph-name="sterling" unicode="&#xa3;" horiz-adv-x="760" 
d="M730 737l-75.5 -11t-69.5 -9t-69 -9.5l-76 -12.5q-16 -25 -16 -53t9 -44q33 -10 57.5 -15.5t48 -9t49.5 -6.5t62 -10q4 -35 4.5 -78t-4.5 -78q-12 -1 -25 -5t-31 -8t-42 -7.5t-58 -3.5l-55.5 -81t-68.5 -93q38 -1 78 -0.5l80 1t79.5 -0.5t76.5 -7q14 -45 17 -90t1 -94
q-33 -1 -79 -6t-100 -9t-113.5 -7t-120.5 -2t-120.5 7t-112.5 19q-1 22 -3 48.5t-3 54.5t-0.5 55t4.5 49l65.5 98t38.5 57q-29 -3 -50 -4.5t-34 -4.5q-10 60 -7.5 103.5t9.5 77.5q11 3 43 3.5t78 1.5l-55.5 44t-59.5 44l11.5 98t23.5 106q139 50 293.5 70.5t300.5 14.5
q7 -22 11 -46t6 -49t2 -50v-48z" />
    <glyph glyph-name="yen" unicode="&#xa5;" horiz-adv-x="918" 
d="M885 944q-28 -54 -63 -130l-72 -160q22 0 40 -1.5t30 -3.5q2 -17 3.5 -45t2 -58t0 -58.5t-2.5 -44.5q-41 -6 -84 -7.5t-87 -3.5q-24 -54 -45 -97q27 1 58.5 1.5t60.5 0.5t54 -1t40 -4q2 -17 3.5 -45t2 -58t0 -58t-2.5 -45q-55 -7 -113.5 -8t-115.5 -7l-6 -122
q-8 -5 -29 -9t-48.5 -7t-58.5 -5t-59.5 -2.5t-51 -0.5t-32.5 1q-2 37 -3.5 75.5t-3.5 78.5q-54 -3 -109.5 -4.5t-107.5 -11.5q-5 29 -6.5 61.5t-0.5 63.5t3.5 58t5.5 44q15 1 40 3t53.5 2.5l59 1t57.5 -0.5v22q-22 33 -46 75q-42 -1 -84 -3.5t-82 -9.5q-5 29 -6.5 61.5
t-0.5 63.5t3.5 58t5.5 44l58 3q-35 81 -64.5 156.5t-49.5 133.5q11 3 39 7.5t67 8t86.5 4t95.5 -3.5q24 -75 54.5 -142.5l59.5 -135.5q4 -8 14 -22t26 -14q11 0 17.5 11.5t8.5 18.5q5 14 20 49l33 77.5l35.5 86l29.5 73.5q8 2 37.5 1.5t68.5 -3.5l82.5 -6.5z" />
    <glyph glyph-name="section" unicode="&#xa7;" horiz-adv-x="812" 
d="M756 648q19 -71 23 -147.5t-3.5 -150.5t-24.5 -141.5t-40 -120.5q-64 -25 -136.5 -44t-148.5 -33t-152.5 -23t-148.5 -16q-9 11 -15.5 34.5t-11 48.5t-7 48t-1.5 32l53 7t66 9t71 9.5t67.5 10.5t55 11.5t33.5 10.5q7 3 13 11.5t7.5 18t-4 18t-22.5 9.5q-18 3 -47 7t-55 7
q-23 2 -57 5.5t-71.5 8.5t-74.5 11.5t-67 14.5q-8 44 -10 99t0 114.5t9 119.5t18 113.5t25.5 95.5t32.5 66q29 8 74.5 16.5t100 16l113.5 15t115 11.5t104 6.5t80 1.5q2 -10 5 -29t5.5 -41.5t3.5 -44.5t-1 -39q-34 -2 -80.5 -7.5t-95.5 -12l-95 -13l-80 -11.5
q-14 -13 -19 -35t3 -42q17 -4 47 -8.5l67 -10l77.5 -11l78.5 -11t69.5 -9.5t50.5 -6zM510 499q-14 0 -36.5 3t-48 7.5l-51.5 9.5t-49 9q-13 -27 -14.5 -45t5.5 -43q20 -8 48 -13.5t55.5 -8.5t51.5 -4.5t36 -1.5q8 27 9.5 46t-6.5 41z" />
    <glyph glyph-name="dieresis" unicode="&#xa8;" horiz-adv-x="654" 
d="M593 607q-7 -19 -36.5 -32.5t-63.5 -19t-63 -0.5t-35 22q-4 11 -5 30t-0.5 39.5t2.5 41t3 32.5q3 20 14.5 34.5t26.5 24t30.5 15.5t25.5 8q17 4 42.5 -5.5t41.5 -21.5q11 -39 16 -82t1 -86zM284 600q-5 -14 -22 -25t-39 -18.5t-47.5 -11.5t-47.5 -3t-38.5 7t-20.5 17
q-4 12 -5.5 32t-1 42.5t2.5 43.5t4 34q3 21 15.5 36t29 25.5t33.5 16.5t28 9q9 2 21.5 0.5t25 -6.5t24.5 -11t20 -12q11 -41 17 -86t1 -90z" />
    <glyph glyph-name="copyright" unicode="&#xa9;" horiz-adv-x="1026" 
d="M962 198q-33 -48 -62.5 -97t-65.5 -94q-83 -11 -176.5 -16.5t-181.5 -6t-163 1.5t-122 4q-16 17 -34.5 43.5t-35.5 56.5t-31.5 59t-23.5 53q-7 64 -10.5 133.5t-4 138.5t2 134.5t6.5 120.5q35 39 71 85.5t74 87.5q43 8 99 13.5t115.5 9t118.5 5t109 1.5t86.5 0.5
t51.5 0.5q22 -18 43.5 -44t42 -54t39.5 -57l35 -55q5 -35 9 -81.5t6.5 -97.5t4 -104t1.5 -99t-1 -83.5t-3 -58.5zM740 147q17 73 22 158t0.5 169t-17 162.5t-29.5 139.5q-52 14 -116.5 19t-126 1t-111 -17t-70.5 -34q-25 -42 -37.5 -118.5t-14 -162.5t8.5 -169t31 -138
q50 -17 114 -28t128.5 -12.5t122.5 5.5t95 25zM696 182q-16 -4 -45.5 -4.5t-66 2.5t-76.5 8t-76.5 12t-66 16t-45.5 19q-13 23 -19.5 59t-8 78t1.5 85.5t9.5 83t16.5 71.5t21 49q72 38 150 52.5t163 15.5q5 -5 10 -17.5t8.5 -30t5.5 -35.5t2 -33q-9 -5 -33.5 -10l-52.5 -11
t-55 -13.5t-41 -18.5q-9 -18 -12.5 -46t-3.5 -60.5t3.5 -65t9.5 -57.5q21 -11 44.5 -15t49 -5.5t52.5 -2t55 -2.5q5 -39 3.5 -73t-3.5 -51z" />
    <glyph glyph-name="ordfeminine" unicode="&#xaa;" horiz-adv-x="630" 
d="M580 309q-8 -4 -38 -9.5t-65 -10t-66.5 -6t-42.5 -0.5q0 10 -0.5 25t-1.5 24h-61t-73 2.5t-77 7.5t-72 15q-14 26 -19.5 83.5t-3.5 124t12 129t26 97.5q20 8 55.5 16.5t79 16t91.5 14.5t93 11.5t83 7t62 2.5q8 -68 12.5 -142.5t6.5 -147t1.5 -139.5t-2.5 -121zM362 455
q-2 72 -2.5 132.5t0.5 128.5q-14 -1 -24 -2t-19 -4t-19.5 -8t-25.5 -13q-5 -26 -10 -60t-7 -67.5t-0.5 -63.5t8.5 -48q18 -6 46.5 -0.5t52.5 5.5zM578 5q-62 -4 -127 -6t-130.5 -3t-130.5 -4t-126 -9q-9 29 -12 62t-1.5 64.5t6.5 58.5t11 44l66.5 2.5t88 2.5t99 1.5t98.5 0
t87 -1.5t64 -4q3 -16 6 -44.5t4.5 -59t1 -59.5t-4.5 -45z" />
    <glyph glyph-name="guillemotleft" unicode="&#xab;" horiz-adv-x="920" 
d="M523 808q-30 -57 -58.5 -106l-56 -94l-54.5 -87l-53 -85l49 -89l54.5 -97.5l54.5 -96l49 -83.5q-30 -4 -67.5 -8l-72.5 -8t-61 -5.5t-33 0.5q-64 94 -120.5 187.5t-105.5 190.5q63 101 118.5 199l114.5 201q40 3 79.5 1.5t73 -5t57 -8.5zM880 808q-29 -57 -57.5 -106
l-56 -94l-54.5 -87l-53 -85l48.5 -89l54 -97.5l54.5 -96l49 -83.5q-30 -4 -67.5 -8l-72 -8t-61 -5.5t-32.5 0.5q-65 94 -121.5 187.5t-105.5 190.5l119 199l115 201q40 3 79.5 1.5t72.5 -5t56.5 -8.5z" />
    <glyph glyph-name="logicalnot" unicode="&#xac;" horiz-adv-x="922" 
d="M609 28q4 40 8 84.5t6 89.5t0 90t-10 85h-95.5h-139.5t-161 -0.5t-159 -2.5q-1 14 -2 42.5t-1 63t1 72.5t3.5 71t5.5 58t7 34q48 3 111.5 3.5t134 -0.5t144 -3.5l142 -5l127.5 -4.5t100 -4q3 -51 3 -114t-1.5 -128.5t-4.5 -130.5t-6.5 -122t-7 -102.5t-6.5 -71.5
q-51 -11 -99.5 -10.5t-99.5 6.5z" />
    <glyph glyph-name="registered" unicode="&#xae;" horiz-adv-x="1026" 
d="M962 198q-33 -48 -62.5 -97t-65.5 -94q-83 -11 -176.5 -16.5t-181.5 -6t-163 1.5t-122 4q-16 17 -34.5 43.5t-35.5 56.5t-31.5 59t-23.5 53q-7 64 -10.5 133.5t-4 138.5t2 134.5t6.5 120.5q35 39 71 85.5t74 87.5q43 8 99 13.5t115.5 9t118.5 5t109 1.5t86.5 0.5
t51.5 0.5q22 -18 43.5 -44t42 -54t39.5 -57l35 -55q5 -35 9 -81.5t6.5 -97.5t4 -104t1.5 -99t-1 -83.5t-3 -58.5zM740 147q17 73 22 158t0.5 169t-17 162.5t-29.5 139.5q-52 14 -116.5 19t-126 1t-111 -17t-70.5 -34q-25 -42 -37.5 -118.5t-14 -162.5t8.5 -169t31 -138
q50 -17 114 -28t128.5 -12.5t122.5 5.5t95 25zM726 201q-25 -19 -62.5 -24.5t-73.5 -0.5q-15 20 -26.5 37t-21 34l-19 33.5t-21.5 35.5q-7 14 -17 21.5t-21 1.5q-3 -1 -5.5 -7.5t-4 -14.5t-2 -15.5t-0.5 -11.5q-1 -31 0 -49.5t-1 -50.5q-13 -1 -30.5 -1t-36 0.5t-37 2.5
t-33.5 3q-2 15 -3 51.5t-1 85t0.5 103.5t2 106t3 92t3.5 61q12 4 36 7.5t53 6.5t62 5t63 2.5t55.5 0.5t39.5 -2q38 -46 58 -99.5t33 -118.5q-1 -10 -12 -27l-23.5 -35l-24 -33.5t-13.5 -22.5q10 -18 22.5 -46l24.5 -54t21 -48zM558 487q3 29 -5.5 50t-10.5 36q-5 6 -15 9
t-21 3.5t-22 -0.5t-19 -3q-1 -10 -3 -25.5t-3.5 -33t-1.5 -35.5t2 -34q8 -1 21.5 1t27.5 6t27.5 10.5t22.5 15.5z" />
    <glyph glyph-name="degree" unicode="&#xb0;" horiz-adv-x="548" 
d="M504 441q-17 -25 -52.5 -42t-79.5 -25.5t-92.5 -9t-92.5 8.5t-79 26.5t-52 43.5q-3 33 -5 82t-2 100.5t1 99t3 75.5q21 22 57 38t79.5 24t91 9t89.5 -7t76 -25t50 -43q4 -26 6.5 -79t3.5 -109.5t0.5 -104t-2.5 -62.5zM335 530q0 49 1.5 88.5t-6.5 85.5q-11 0 -24.5 1.5
t-28 2t-29 -0.5t-26.5 -7q-4 -26 -6 -46.5t-2 -40.5t1 -41t2 -47q13 -3 29.5 -4.5t33 -1.5t31.5 2.5t24 8.5z" />
    <glyph glyph-name="plusminus" unicode="&#xb1;" horiz-adv-x="542" 
d="M497 467q-20 -2 -47.5 -2.5t-59.5 -2.5q-1 -18 -2.5 -39.5l-3 -45t-2.5 -46.5t-3 -44q-10 -5 -40 -8t-63.5 -4.5t-64.5 -1.5t-45 1q-1 19 -3 43t-3.5 48.5t-2.5 48t-2 42.5q-30 -2 -55.5 -4t-43.5 -4q-5 25 -6.5 54t-0.5 56.5t3.5 51.5t6.5 38q11 3 36 3.5t57 1.5
q0 21 0.5 45.5t1.5 50l2 50.5t2 44q56 9 121.5 11t120.5 1v-49.5v-53.5v-52t-1 -46q33 0 58 -0.5t36 -2.5q2 -16 3.5 -40.5t2.5 -51.5t0.5 -51.5t-2.5 -40.5zM492 12q-52 -3 -106.5 -4.5t-109 -2.5t-109 -4t-106.5 -9q-7 28 -9.5 59t-1 61t5.5 56.5t9 41.5q21 2 55 3t74 2
t83 1h83t73 -1t53 -3q3 -16 5.5 -43t4 -56.5t0.5 -56.5t-4 -44z" />
    <glyph glyph-name="acute" unicode="&#xb4;" horiz-adv-x="386" 
d="M358 743l-92.5 -110.5t-94.5 -87.5q-33 2 -74 9.5t-72 20.5q17 26 31.5 57.5t26.5 62t21 58l15 45.5q68 0 128 -14.5t111 -40.5z" />
    <glyph glyph-name="mu" unicode="&#xb5;" horiz-adv-x="960" 
d="M895 918q8 -76 9 -160t-1.5 -168t-7.5 -162.5l-9 -143.5q-59 -31 -112.5 -47.5t-91.5 -22.5q-81 -4 -166 -9t-160 -5q-1 -32 -2.5 -55t-3 -43t-2.5 -43t-3 -55q-8 -5 -27 -8.5t-43.5 -6.5t-52 -4.5t-53 -2t-46 -0.5t-31.5 1q-14 221 -15.5 452.5t7.5 463.5q7 5 28.5 8.5
t51.5 5t64 2.5t65 1t56 -1t36 -2q-3 -54 -7.5 -113.5t-8.5 -120t-5.5 -119t1.5 -112.5q7 -5 35.5 -9.5t63.5 -5t69.5 1.5t52.5 7q6 32 9.5 91.5t4.5 128t0 135.5t-4 113q25 3 70.5 5.5t92.5 3.5t85.5 1t50.5 -2z" />
    <glyph glyph-name="mu" unicode="&#x3bc;" horiz-adv-x="960" 
d="M895 918q8 -76 9 -160t-1.5 -168t-7.5 -162.5l-9 -143.5q-59 -31 -112.5 -47.5t-91.5 -22.5q-81 -4 -166 -9t-160 -5q-1 -32 -2.5 -55t-3 -43t-2.5 -43t-3 -55q-8 -5 -27 -8.5t-43.5 -6.5t-52 -4.5t-53 -2t-46 -0.5t-31.5 1q-14 221 -15.5 452.5t7.5 463.5q7 5 28.5 8.5
t51.5 5t64 2.5t65 1t56 -1t36 -2q-3 -54 -7.5 -113.5t-8.5 -120t-5.5 -119t1.5 -112.5q7 -5 35.5 -9.5t63.5 -5t69.5 1.5t52.5 7q6 32 9.5 91.5t4.5 128t0 135.5t-4 113q25 3 70.5 5.5t92.5 3.5t85.5 1t50.5 -2z" />
    <glyph glyph-name="paragraph" unicode="&#xb6;" horiz-adv-x="1026" 
d="M967 906q2 -102 4 -216t2 -232.5t-3.5 -238.5t-11.5 -234q-41 -5 -81 -5t-75 3t-63.5 8.5t-46.5 11.5q-1 24 -3 52.5l-4 58.5t-3 59t-1 52q-20 3 -59 7q-3 -115 -3 -241q-57 -1 -114.5 -4t-115.5 11q-2 62 -3.5 128t-3.5 136q-63 10 -114.5 20t-77.5 20q-21 18 -43.5 43
t-44.5 53t-42 56.5t-35 52.5q-5 65 6 127t31.5 116t47.5 97.5t53 69.5q36 5 102.5 8t147.5 5t168 1t164.5 -3t137 -7.5t84.5 -14.5zM689 700q-6 5 -21.5 7.5t-38.5 3.5q1 -61 0.5 -119.5t-1.5 -115.5q41 -4 59 -4q3 18 4.5 46t1.5 60t-1 64t-3 58zM382 698q-35 -8 -42 -16
q-1 -6 -4.5 -23.5t-7.5 -40t-6 -46.5t0 -44q8 -4 23 -9t35 -9q0 47 0.5 94t1.5 94z" />
    <glyph glyph-name="periodcentered" unicode="&#xb7;" horiz-adv-x="442" 
d="M360 308q-6 -12 -27.5 -21t-50 -15.5t-60 -9.5t-60 -2.5t-48.5 6t-26 15.5q-6 9 -7.5 26.5t-0.5 36t3.5 36.5t4.5 29q3 18 19.5 30.5t37.5 21.5t42 14t34 7q12 3 27.5 1t31.5 -5.5t31.5 -9t25.5 -10.5q14 -35 21 -73t2 -77z" />
    <glyph glyph-name="periodcentered" unicode="&#x2219;" horiz-adv-x="442" 
d="M360 308q-6 -12 -27.5 -21t-50 -15.5t-60 -9.5t-60 -2.5t-48.5 6t-26 15.5q-6 9 -7.5 26.5t-0.5 36t3.5 36.5t4.5 29q3 18 19.5 30.5t37.5 21.5t42 14t34 7q12 3 27.5 1t31.5 -5.5t31.5 -9t25.5 -10.5q14 -35 21 -73t2 -77z" />
    <glyph glyph-name="cedilla" unicode="&#xb8;" horiz-adv-x="810" 
d="M581 261q3 -37 3.5 -87t-2.5 -99.5t-11.5 -92.5t-23.5 -64q-36 -15 -83 -23t-96 -12t-96.5 -5t-85.5 -1q-5 4 -8.5 18t-6 32t-3.5 37t-1 32q22 2 48 5t51 6.5t46 9.5t34 16q8 16 12 42t5.5 58.5t1 68.5t-1.5 70q18 3 48.5 3t63.5 -2t62 -6z" />
    <glyph glyph-name="ordmasculine" unicode="&#xba;" horiz-adv-x="630" 
d="M578 5q-62 -4 -127 -6t-130.5 -3t-130.5 -4t-126 -9q-9 29 -12 62t-1.5 64.5t6.5 58.5t11 44l66.5 2.5t88 2.5t99 1.5t98.5 0t87 -1.5t64 -4q3 -16 6 -44.5t4.5 -59t1 -59.5t-4.5 -45zM574 375q-20 -27 -60 -46.5t-90 -29.5t-105 -10t-105 9.5t-90 29.5t-59 50
q-4 36 -6 91t-2 113.5t1 111t3 83.5q23 26 64.5 44t91 27.5t103 10t102 -8.5t86.5 -27.5t57 -48.5q3 -19 5 -53.5t4 -74.5t2.5 -82.5t0.5 -80.5t-0.5 -67t-2.5 -41zM382 476q0 53 2 98.5t-8 96.5q-12 0 -27.5 1.5t-32 2t-33 -0.5t-30.5 -7q-5 -29 -7 -52.5t-2 -45.5t1.5 -46
t2.5 -54l33.5 -4.5t37.5 -2.5t35.5 3.5t27.5 10.5z" />
    <glyph glyph-name="guillemotright" unicode="&#xbb;" horiz-adv-x="902" 
d="M48 70q29 57 57.5 106l56.5 94l54.5 87.5l52.5 86.5l-48.5 88l-54 97.5l-54.5 96l-49 84.5q30 2 67.5 7t72.5 8.5t61 5t33 -0.5q64 -94 120.5 -187.5t105.5 -191.5l-118.5 -197.5l-114.5 -201.5q-40 -3 -79.5 -1.5t-73 5.5t-57 8t-32.5 6zM396 70q29 57 57.5 106l56 94
l54.5 87.5l53 86.5l-48.5 88l-54 97.5l-54.5 96l-49 84.5q30 2 67.5 7t72 8.5t61 5t32.5 -0.5q65 -94 121.5 -187.5t105.5 -191.5l-119 -197.5l-115 -201.5q-40 -3 -79.5 -1.5t-72.5 5.5t-56.5 8t-32.5 6z" />
    <glyph glyph-name="questiondown" unicode="&#xbf;" horiz-adv-x="708" 
d="M38 328l42.5 36.5l50.5 40.5t51 36.5t44 27.5q16 39 19.5 75t12.5 78q19 6 56.5 10t79.5 7t80 5t58 2q5 -20 6.5 -47t1.5 -54.5t-2 -54t-4 -46.5q-13 -12 -32 -28t-42.5 -32.5t-50 -32.5l-53.5 -31q-5 -24 -3.5 -49t7.5 -44q13 -9 38 -11t54.5 -1.5t61.5 4t60.5 9
l50.5 10t31 8.5l-11.5 -59.5t-12.5 -56t-15 -56t-20 -61.5q-32 -17 -78 -27t-98 -13.5t-106.5 -2t-103.5 7.5t-88 16t-61 22q-6 24 -13 64t-11.5 85t-5.5 89t6 74zM240 893q12 12 34.5 22.5t51 18t59.5 11.5t60 4t52.5 -3.5t36.5 -11.5q6 -4 9 -24t3.5 -44t-1.5 -45t-7 -27
q-22 -27 -58 -41.5t-75.5 -17.5t-78 3.5t-66.5 18.5q-1 5 -6 17.5t-9.5 30.5t-6.5 41t2 47z" />
    <glyph glyph-name="Agrave" unicode="&#xc0;" horiz-adv-x="1015" 
d="M1007 2q-38 -6 -79 -10t-81.5 -6t-78 -2.5t-67.5 0.5l-14 40t-10.5 32t-9 32t-9.5 40q-35 4 -80.5 5.5t-90.5 0.5t-85 -4t-66 -9l-17.5 -33.5t-13 -29t-10 -31l-10.5 -38.5q-28 -6 -66 -9t-77.5 -3t-76 3t-62.5 7q9 58 33 142t55.5 176.5l66.5 186l66 170.5q-15 1 -28 4
q-11 2 -22 4.5t-17 4.5q5 17 10 38l10.5 42t11.5 39.5t13 32.5q31 7 80 12.5t107.5 8.5t121.5 4t122.5 -1t111 -6t86.5 -12l48 -202l46.5 -201t43.5 -207t38 -221zM608 343q-3 30 -9 68t-14 75t-17.5 70t-19.5 55q-12 26 -27.5 23.5t-26.5 -23.5q-3 -5 -10.5 -25.5
l-17 -47.5l-20 -58t-19 -59.5t-13.5 -49.5t-5 -28q17 -4 46.5 -5t60 -1t56.5 2t36 4zM313 1083q103 53 238 56q6 -20 15 -47t21 -57.5t26.5 -61.5t32.5 -58q-16 -7 -34.5 -11.5t-38 -8.5t-38.5 -6t-35 -4q-23 16 -47 39t-47.5 48.5t-47 54.5z" />
    <glyph glyph-name="Aacute" unicode="&#xc1;" horiz-adv-x="1015" 
d="M1007 2q-38 -6 -79 -10t-81.5 -6t-78 -2.5t-67.5 0.5l-14 40t-10.5 32t-9 32t-9.5 40q-35 4 -80.5 5.5t-90.5 0.5t-85 -4t-66 -9l-17.5 -33.5t-13 -29t-10 -31l-10.5 -38.5q-28 -6 -66 -9t-77.5 -3t-76 3t-62.5 7q9 58 33 142t55.5 176.5l66.5 186l66 170.5q-15 1 -28 4
q-11 2 -22 4.5t-17 4.5q5 17 10 38l10.5 42t11.5 39.5t13 32.5q31 7 80 12.5t107.5 8.5t121.5 4t122.5 -1t111 -6t86.5 -12l48 -202l46.5 -201t43.5 -207t38 -221zM608 343q-3 30 -9 68t-14 75t-17.5 70t-19.5 55q-12 26 -27.5 23.5t-26.5 -23.5q-3 -5 -10.5 -25.5
l-17 -47.5l-20 -58t-19 -59.5t-13.5 -49.5t-5 -28q17 -4 46.5 -5t60 -1t56.5 2t36 4zM760 1079l-92.5 -111t-94.5 -87q-33 2 -74 10t-72 21q18 26 32.5 57.5t26.5 62t21 57.5l15 46q67 -1 127 -15.5t111 -40.5z" />
    <glyph glyph-name="Acircumflex" unicode="&#xc2;" horiz-adv-x="1015" 
d="M1007 2q-38 -6 -79 -10t-81.5 -6t-78 -2.5t-67.5 0.5l-14 40t-10.5 32t-9 32t-9.5 40q-35 4 -80.5 5.5t-90.5 0.5t-85 -4t-66 -9l-17.5 -33.5t-13 -29t-10 -31l-10.5 -38.5q-28 -6 -66 -9t-77.5 -3t-76 3t-62.5 7q9 58 33 142t55.5 176.5l66.5 186l66 170.5q-15 1 -28 4
q-11 2 -22 4.5t-17 4.5q5 17 10 38l10.5 42t11.5 39.5t13 32.5q31 7 80 12.5t107.5 8.5t121.5 4t122.5 -1t111 -6t86.5 -12l48 -202l46.5 -201t43.5 -207t38 -221zM608 343q-3 30 -9 68t-14 75t-17.5 70t-19.5 55q-12 26 -27.5 23.5t-26.5 -23.5q-3 -5 -10.5 -25.5
l-17 -47.5l-20 -58t-19 -59.5t-13.5 -49.5t-5 -28q17 -4 46.5 -5t60 -1t56.5 2t36 4zM776 902q-21 -1 -47.5 -4t-51 -5.5t-43 -3.5t-23.5 0q-7 13 -17 29.5l-20 32l-19 28.5l-14 20l-6 9t-10 6q-9 0 -14.5 -7.5l-8.5 -11.5l-34.5 -52.5t-30.5 -55.5q-28 -3 -55.5 -3.5
t-50.5 0.5t-39.5 3.5t-22.5 3.5q10 27 24.5 58t32 64t37 66t38.5 62q19 2 51.5 3.5t67 2t65 0t46.5 -1.5l34 -58.5l38.5 -64l38 -64z" />
    <glyph glyph-name="Atilde" unicode="&#xc3;" horiz-adv-x="1015" 
d="M1007 2q-38 -6 -79 -10t-81.5 -6t-78 -2.5t-67.5 0.5l-14 40t-10.5 32t-9 32t-9.5 40q-35 4 -80.5 5.5t-90.5 0.5t-85 -4t-66 -9l-17.5 -33.5t-13 -29t-10 -31l-10.5 -38.5q-28 -6 -66 -9t-77.5 -3t-76 3t-62.5 7q9 58 33 142t55.5 176.5l66.5 186l66 170.5q-15 1 -28 4
q-11 2 -22 4.5t-17 4.5q5 17 10 38l10.5 42t11.5 39.5t13 32.5q31 7 80 12.5t107.5 8.5t121.5 4t122.5 -1t111 -6t86.5 -12l48 -202l46.5 -201t43.5 -207t38 -221zM608 343q-3 30 -9 68t-14 75t-17.5 70t-19.5 55q-12 26 -27.5 23.5t-26.5 -23.5q-3 -5 -10.5 -25.5
l-17 -47.5l-20 -58t-19 -59.5t-13.5 -49.5t-5 -28q17 -4 46.5 -5t60 -1t56.5 2t36 4zM822 1058l-34 -41.5t-53 -59.5t-60 -52t-55 -21q-27 3 -61.5 15t-67 25.5t-58.5 23t-36 6.5q-13 -5 -32.5 -23t-35.5 -37q-66 27 -85 61q14 24 32 51t39 51.5t44 45t45 28.5
q23 10 48.5 4.5t53.5 -18t57 -28.5t60 -28q21 -8 41 0.5t37 21.5q19 16 37 39q25 -11 47.5 -27t36.5 -37z" />
    <glyph glyph-name="Adieresis" unicode="&#xc4;" horiz-adv-x="1015" 
d="M1007 2q-38 -6 -79 -10t-81.5 -6t-78 -2.5t-67.5 0.5l-14 40t-10.5 32t-9 32t-9.5 40q-35 4 -80.5 5.5t-90.5 0.5t-85 -4t-66 -9l-17.5 -33.5t-13 -29t-10 -31l-10.5 -38.5q-28 -6 -66 -9t-77.5 -3t-76 3t-62.5 7q9 58 33 142t55.5 176.5l66.5 186l66 170.5q-15 1 -28 4
q-11 2 -22 4.5t-17 4.5q5 17 10 38l10.5 42t11.5 39.5t13 32.5q31 7 80 12.5t107.5 8.5t121.5 4t122.5 -1t111 -6t86.5 -12l48 -202l46.5 -201t43.5 -207t38 -221zM608 343q-3 30 -9 68t-14 75t-17.5 70t-19.5 55q-12 26 -27.5 23.5t-26.5 -23.5q-3 -5 -10.5 -25.5
l-17 -47.5l-20 -58t-19 -59.5t-13.5 -49.5t-5 -28q17 -4 46.5 -5t60 -1t56.5 2t36 4zM826 951q-5 -13 -20 -23t-36 -17.5t-44 -11t-43.5 -2t-35.5 6.5t-19 16t-5 30t-0.5 40t2.5 41.5t3 32.5q3 21 14.5 34.5t26.5 23t30.5 15.5t25.5 9q8 2 19.5 0.5t23.5 -6t23 -10.5t18 -12
q11 -38 16 -80.5t1 -86.5zM517 943q-5 -13 -22 -24.5t-39 -18.5t-47.5 -11t-47.5 -3t-38 7t-21 18q-4 12 -5.5 31.5t-1 42t2.5 43.5t4 34q3 21 15.5 36t29 25.5t33.5 16.5t28 8q9 3 21.5 1t25 -7t24.5 -11t20 -12q11 -40 17 -85t1 -91z" />
    <glyph glyph-name="Aring" unicode="&#xc5;" horiz-adv-x="1015" 
d="M1007 2q-38 -6 -79 -10t-81.5 -6t-78 -2.5t-67.5 0.5l-14 40t-10.5 32t-9 32t-9.5 40q-35 4 -80.5 5.5t-90.5 0.5t-85 -4t-66 -9l-17.5 -33.5t-13 -29t-10 -31l-10.5 -38.5q-28 -6 -66 -9t-77.5 -3t-76 3t-62.5 7q9 58 33 142t55.5 176.5l66.5 186l66 170.5q-15 1 -28 4
q-11 2 -22 4.5t-17 4.5q5 17 10 38l10.5 42t11.5 39.5t13 32.5q31 7 80 12.5t107.5 8.5t121.5 4t122.5 -1t111 -6t86.5 -12l48 -202l46.5 -201t43.5 -207t38 -221zM608 343q-3 30 -9 68t-14 75t-17.5 70t-19.5 55q-12 26 -27.5 23.5t-26.5 -23.5q-3 -5 -10.5 -25.5
l-17 -47.5l-20 -58t-19 -59.5t-13.5 -49.5t-5 -28q17 -4 46.5 -5t60 -1t56.5 2t36 4zM786 924q-18 -12 -55 -20t-83 -12t-96.5 -4t-96.5 4t-82 12.5t-54 20.5q-4 16 -6 39t-2 48t1 47t3 35q21 11 59 18t83.5 11.5t95 4.5t94 -3.5t79.5 -11.5t52 -20q4 -12 6.5 -37t3.5 -52
t0.5 -50t-2.5 -30zM610 966q0 24 1.5 42.5t-7.5 40.5q-23 0 -55 1.5t-58 -3.5q-9 -25 -8 -41.5t4 -42.5q13 -1 30 -1.5t34.5 -0.5t33 0.5t25.5 4.5z" />
    <glyph glyph-name="AE" unicode="&#xc6;" horiz-adv-x="1380" 
d="M1335 751q-38 -1 -78.5 -1h-82t-81.5 -1t-78 -5q-8 -12 -12 -36t-3.5 -52t4.5 -55t13 -45q3 -1 21.5 -1t45.5 0.5t59 0.5h62.5t56 -0.5t38.5 -3.5q4 -36 6 -78t-2 -77q-34 -3 -69 -3.5t-70.5 -1.5t-70.5 -2.5t-68 -8.5q-6 -15 -7 -39.5t1.5 -51.5t7 -53t8.5 -41
q23 -7 60.5 -8.5t79.5 0t83 2.5t69 -3q7 -45 8 -96.5t-10 -97.5q-81 -8 -158.5 -12t-154 -4.5t-154 1.5l-158.5 4l-15.5 77t-10.5 78q-34 12 -79 15.5t-90.5 2t-86 -7.5t-66.5 -12l-22 -38t-16.5 -32.5t-14 -34.5l-14.5 -42q-28 -7 -66.5 -10t-78 -3t-76 2.5t-61.5 7.5
q16 66 50 159t77 196l89.5 206l86.5 190q-15 1 -28 3q-11 3 -22.5 5.5t-16.5 5.5q2 18 6 41.5t10 47t13 44t15 34.5q30 7 78.5 12.5t106.5 9t119.5 6t118.5 2.5q73 5 157.5 7.5t168 2.5t160.5 -2t134 -4q6 -16 8 -42.5t2.5 -55t-0.5 -56.5t-2 -46zM652 382q1 33 -0.5 74.5
t-5.5 83t-9.5 78t-12.5 60.5q-9 30 -24.5 27t-29.5 -27q-4 -6 -14 -28l-22.5 -52l-26.5 -65l-26 -66t-19.5 -54.5t-8.5 -31.5q14 -8 43 -9.5t60 -0.5t58.5 4.5t37.5 6.5z" />
    <glyph glyph-name="Ccedilla" unicode="&#xc7;" horiz-adv-x="820" 
d="M780 299q1 -22 -1.5 -52t-7 -58.5t-12 -50t-17.5 -28.5q-38 0 -77 0.5t-81 1.5q-2 -60 -10 -114t-27 -80q-36 -15 -83 -23t-96 -12t-96.5 -5t-85.5 -1q-5 4 -8.5 18t-6 32t-3.5 37t-1 32q22 2 48 5t51 6.5t46 9.5t34 16q8 14 11.5 39t5.5 55q-74 8 -144.5 22t-134.5 36
q-21 26 -32.5 75t-15 112t1 133t16 136t30 122t41.5 91q29 15 81.5 28.5t117 25t133.5 19.5t130 11t107.5 2t65.5 -9q2 -12 4 -32t3 -44t-0.5 -51.5t-6.5 -56.5q-52 -5 -97.5 -6.5t-87.5 -5.5t-81.5 -11.5t-79.5 -23.5q-11 -37 -21.5 -87.5t-15.5 -101.5t-1.5 -96t19.5 -72
q17 -11 49 -17t71 -9t81 -5t79 -3t65 -3t40 -7z" />
    <glyph glyph-name="Egrave" unicode="&#xc8;" horiz-adv-x="848" 
d="M792 675q-76 -2 -151.5 0t-151.5 -6q-8 -10 -13.5 -32t-7 -47t1 -49.5t9.5 -40.5q3 -1 21 -1t44.5 0.5t58 1t61 0.5t55 -1t38.5 -3q4 -32 6 -69.5t-3 -70.5q-34 -3 -70 -3.5t-72 -0.5t-71.5 -2t-69.5 -8q-7 -12 -9.5 -35t-1.5 -47.5t3.5 -47t5.5 -37.5q22 -7 62.5 -7.5
t86 0t89.5 1.5t72 -2q7 -40 8 -86.5t-11 -87.5q-82 -7 -160.5 -11.5t-159 -5t-164.5 3t-176 13.5q-7 75 -9.5 159t-3 171t1 175t3.5 169q-17 0 -39.5 0.5t-39.5 0.5q2 41 8 84.5t16 80.5q52 9 112.5 16t125 10t130.5 3t129.5 -1t121.5 -2.5t106 -4.5q6 -14 8 -37.5t2.5 -50
t-0.5 -51t-2 -41.5zM230 1095q51 27 111 41.5t127 15.5l15 -46t21 -58t26.5 -62t32.5 -57q-16 -8 -34.5 -12.5l-38 -9t-38.5 -6.5t-35 -4q-47 33 -94.5 88z" />
    <glyph glyph-name="Eacute" unicode="&#xc9;" horiz-adv-x="848" 
d="M792 675q-76 -2 -151.5 0t-151.5 -6q-8 -10 -13.5 -32t-7 -47t1 -49.5t9.5 -40.5q3 -1 21 -1t44.5 0.5t58 1t61 0.5t55 -1t38.5 -3q4 -32 6 -69.5t-3 -70.5q-34 -3 -70 -3.5t-72 -0.5t-71.5 -2t-69.5 -8q-7 -12 -9.5 -35t-1.5 -47.5t3.5 -47t5.5 -37.5q22 -7 62.5 -7.5
t86 0t89.5 1.5t72 -2q7 -40 8 -86.5t-11 -87.5q-82 -7 -160.5 -11.5t-159 -5t-164.5 3t-176 13.5q-7 75 -9.5 159t-3 171t1 175t3.5 169q-17 0 -39.5 0.5t-39.5 0.5q2 41 8 84.5t16 80.5q52 9 112.5 16t125 10t130.5 3t129.5 -1t121.5 -2.5t106 -4.5q6 -14 8 -37.5t2.5 -50
t-0.5 -51t-2 -41.5zM675 1087l-92.5 -110.5t-94.5 -87.5q-16 1 -35 3.5t-38.5 6.5t-38 9t-34.5 12q18 27 32.5 58t26.5 61.5t21 57.5l15 46q67 -1 127 -15.5t111 -40.5z" />
    <glyph glyph-name="Ecircumflex" unicode="&#xca;" horiz-adv-x="848" 
d="M792 675q-76 -2 -151.5 0t-151.5 -6q-8 -10 -13.5 -32t-7 -47t1 -49.5t9.5 -40.5q3 -1 21 -1t44.5 0.5t58 1t61 0.5t55 -1t38.5 -3q4 -32 6 -69.5t-3 -70.5q-34 -3 -70 -3.5t-72 -0.5t-71.5 -2t-69.5 -8q-7 -12 -9.5 -35t-1.5 -47.5t3.5 -47t5.5 -37.5q22 -7 62.5 -7.5
t86 0t89.5 1.5t72 -2q7 -40 8 -86.5t-11 -87.5q-82 -7 -160.5 -11.5t-159 -5t-164.5 3t-176 13.5q-7 75 -9.5 159t-3 171t1 175t3.5 169q-17 0 -39.5 0.5t-39.5 0.5q2 41 8 84.5t16 80.5q52 9 112.5 16t125 10t130.5 3t129.5 -1t121.5 -2.5t106 -4.5q6 -14 8 -37.5t2.5 -50
t-0.5 -51t-2 -41.5zM702 913q-21 -1 -47.5 -4t-51 -5.5t-43 -3.5t-23.5 0q-7 13 -17 29l-20 32t-19 29l-14 20l-6 9t-10 6q-9 0 -14.5 -8t-8.5 -12l-34.5 -52t-30.5 -56q-28 -2 -55.5 -2.5t-50.5 0.5t-39.5 3.5t-22.5 3.5q10 27 24.5 58t32 64t37 66t38.5 62q19 2 51.5 3.5
t67 2t65 0t46.5 -2.5l34 -58.5l38.5 -65l38 -63z" />
    <glyph glyph-name="Edieresis" unicode="&#xcb;" horiz-adv-x="848" 
d="M792 675q-76 -2 -151.5 0t-151.5 -6q-8 -10 -13.5 -32t-7 -47t1 -49.5t9.5 -40.5q3 -1 21 -1t44.5 0.5t58 1t61 0.5t55 -1t38.5 -3q4 -32 6 -69.5t-3 -70.5q-34 -3 -70 -3.5t-72 -0.5t-71.5 -2t-69.5 -8q-7 -12 -9.5 -35t-1.5 -47.5t3.5 -47t5.5 -37.5q22 -7 62.5 -7.5
t86 0t89.5 1.5t72 -2q7 -40 8 -86.5t-11 -87.5q-82 -7 -160.5 -11.5t-159 -5t-164.5 3t-176 13.5q-7 75 -9.5 159t-3 171t1 175t3.5 169q-17 0 -39.5 0.5t-39.5 0.5q2 41 8 84.5t16 80.5q52 9 112.5 16t125 10t130.5 3t129.5 -1t121.5 -2.5t106 -4.5q6 -14 8 -37.5t2.5 -50
t-0.5 -51t-2 -41.5zM713 963q-5 -13 -20 -23t-36 -17.5t-44 -11t-43.5 -2t-35.5 6.5t-19 16t-5 30t-0.5 40t2.5 41.5t3 32.5q3 21 15 34.5t27 23t30.5 15.5t25.5 9q8 2 19.5 0.5t23 -6t22.5 -10.5t18 -12q11 -38 16 -80.5t1 -86.5zM405 955q-8 -20 -40 -34.5t-69 -20
t-68.5 -0.5t-38.5 23q-4 12 -5.5 31.5t-1 42t2.5 43.5t4 34q3 21 16 36t29.5 25.5t33.5 16.5t27 8q9 3 21.5 1t25 -7t24.5 -11t20 -12q11 -40 17 -85t2 -91z" />
    <glyph glyph-name="Igrave" unicode="&#xcc;" horiz-adv-x="438" 
d="M369 809q0 -195 -6.5 -391t-17.5 -397q-8 -4 -27 -7t-43.5 -5.5t-52 -4.5t-53 -2.5t-46 0t-31.5 1.5q-6 92 -9.5 195t-4 207.5t0.5 204t4 182.5q33 6 70 9.5t74.5 5.5t73.5 2h68zM19 1055q104 52 238 55l15 -46t21 -58t26.5 -62t32.5 -57q-31 -14 -72 -21t-74 -9
q-23 15 -47 38t-47.5 48.5t-46.5 54.5z" />
    <glyph glyph-name="Iacute" unicode="&#xcd;" horiz-adv-x="438" 
d="M369 809q0 -195 -6.5 -391t-17.5 -397q-8 -4 -27 -7t-43.5 -5.5t-52 -4.5t-53 -2.5t-46 0t-31.5 1.5q-6 92 -9.5 195t-4 207.5t0.5 204t4 182.5q33 6 70 9.5t74.5 5.5t73.5 2h68zM452 1056l-45.5 -56l-47 -54.5t-47.5 -49.5t-47 -38q-16 1 -35 3.5t-38.5 6t-38 8.5
t-33.5 12q17 26 31.5 57.5t26.5 62t21 58l15 45.5q67 0 127 -14.5t111 -40.5z" />
    <glyph glyph-name="Icircumflex" unicode="&#xce;" horiz-adv-x="438" 
d="M369 809q0 -195 -6.5 -391t-17.5 -397q-8 -4 -27 -7t-43.5 -5.5t-52 -4.5t-53 -2.5t-46 0t-31.5 1.5q-6 92 -9.5 195t-4 207.5t0.5 204t4 182.5q33 6 70 9.5t74.5 5.5t73.5 2h68zM424 871q-17 -1 -38.5 -4t-41.5 -5.5l-35 -4.5t-19 0l-14 29.5l-16 32.5t-15.5 28.5
l-11.5 19.5q-2 2 -4.5 8t-7.5 6q-8 0 -12.5 -7.5t-6.5 -11.5l-28 -52t-25 -56q-23 -2 -45 -2t-41 0.5t-32 3l-18 3.5q8 26 20 57.5t26 64.5t29.5 65.5t31.5 60.5q15 3 41.5 4t54 1.5t52.5 0t38 -0.5l27.5 -58l31 -64.5l31 -63z" />
    <glyph glyph-name="Idieresis" unicode="&#xcf;" horiz-adv-x="438" 
d="M369 809q0 -195 -6.5 -391t-17.5 -397q-8 -4 -27 -7t-43.5 -5.5t-52 -4.5t-53 -2.5t-46 0t-31.5 1.5q-6 92 -9.5 195t-4 207.5t0.5 204t4 182.5q33 6 70 9.5t74.5 5.5t73.5 2h68zM438 918q-6 -19 -29.5 -33t-51 -19.5t-51 -0.5t-28.5 22q-3 10 -4 29.5t-0.5 40.5t2 41.5
t2.5 32.5q2 20 12 34t22 23.5t24.5 15.5t20.5 8q14 5 34.5 -5t33.5 -22q8 -39 12.5 -81.5t0.5 -85.5zM188 909q-6 -20 -32 -34.5t-56 -20t-55.5 -0.5t-30.5 23q-4 12 -5 32t-0.5 42t2.5 43t3 34q2 22 12.5 37t24 25t27 16t21.5 9q8 2 17.5 0t20 -6.5t20 -10.5t16.5 -12
q10 -41 14.5 -86t0.5 -91z" />
    <glyph glyph-name="Ntilde" unicode="&#xd1;" horiz-adv-x="1034" 
d="M966 823q2 -197 1 -396.5t-7 -397.5q-32 -5 -76.5 -10.5t-96 -10t-107.5 -8.5t-111 -4q-54 80 -98.5 168.5t-82.5 179.5q-4 11 -14 16t-20 3t-18 -9.5t-10 -24.5q-15 -133 -6 -323q-60 -16 -120.5 -18t-126.5 8q-4 35 -7 92.5t-5 129t-2.5 151.5t-0.5 157.5t1.5 148
t3.5 123.5q6 5 34.5 11t70 10.5t90.5 9t94.5 7t83 2.5t55.5 -3q32 -91 71.5 -179l78.5 -176q4 -8 11.5 -12.5t16.5 -4t17 8.5t12 24q1 3 2 21.5t1.5 47t2 62t2 67t1.5 63t2 48.5q127 29 257 18zM829 1038l-34 -41.5t-53 -60t-60 -52.5t-55 -21q-27 2 -61.5 14.5t-67 26.5
t-58.5 23t-36 5q-13 -4 -32.5 -22t-35.5 -36q-32 13 -54 28.5t-31 31.5q14 24 32 51t39 52t44 45t45 29q23 10 48.5 4.5t53 -18t57 -29t60.5 -28.5q21 -8 41 1t37 22q19 16 37 39q25 -11 47.5 -27.5t36.5 -36.5z" />
    <glyph glyph-name="Ograve" unicode="&#xd2;" horiz-adv-x="1030" 
d="M972 154q-35 -44 -66.5 -89.5t-69.5 -87.5q-37 -6 -88 -10t-109.5 -6.5t-121 -2.5t-123.5 1t-117.5 5t-102.5 8q-15 16 -33.5 41t-36.5 54t-33 57t-23 50q-1 54 -1 120.5t0.5 133t1.5 129.5t4 110l36 40l46 51t46.5 48t37.5 29q36 4 82 8t97.5 7l106.5 6t108 2.5
t102.5 -3.5t89.5 -10q22 -18 44 -41.5t42.5 -50.5l39.5 -54.5l35 -52.5q3 -48 6 -119.5t4.5 -145t1 -135.5t-5.5 -92zM625 200q1 44 3 93.5t2 103t-2.5 110t-9.5 112.5q-31 -1 -58 -1.5t-52.5 -3t-50 -8t-50.5 -17.5q-6 -11 -9 -41.5t-4.5 -71t-2 -87t0 -88.5t1.5 -76t1 -50
q24 -11 56.5 -14t65.5 1t62 14t47 24zM308 1096q51 26 111 40.5t128 14.5l15 -45.5t21 -58.5t26.5 -62t31.5 -57q-31 -14 -72 -21t-74 -9q-23 15 -47 38t-47.5 49.5l-46.5 54.5z" />
    <glyph glyph-name="Oacute" unicode="&#xd3;" horiz-adv-x="1030" 
d="M972 154q-35 -44 -66.5 -89.5t-69.5 -87.5q-37 -6 -88 -10t-109.5 -6.5t-121 -2.5t-123.5 1t-117.5 5t-102.5 8q-15 16 -33.5 41t-36.5 54t-33 57t-23 50q-1 54 -1 120.5t0.5 133t1.5 129.5t4 110l36 40l46 51t46.5 48t37.5 29q36 4 82 8t97.5 7l106.5 6t108 2.5
t102.5 -3.5t89.5 -10q22 -18 44 -41.5t42.5 -50.5l39.5 -54.5l35 -52.5q3 -48 6 -119.5t4.5 -145t1 -135.5t-5.5 -92zM625 200q1 44 3 93.5t2 103t-2.5 110t-9.5 112.5q-31 -1 -58 -1.5t-52.5 -3t-50 -8t-50.5 -17.5q-6 -11 -9 -41.5t-4.5 -71t-2 -87t0 -88.5t1.5 -76t1 -50
q24 -11 56.5 -14t65.5 1t62 14t47 24zM719 1090l-45.5 -56l-47 -54.5t-47.5 -49.5t-47 -38q-33 2 -73.5 9t-72.5 21q18 26 32.5 57t26.5 62t21 58.5l15 45.5q67 0 127 -14.5t111 -40.5z" />
    <glyph glyph-name="Ocircumflex" unicode="&#xd4;" horiz-adv-x="1030" 
d="M972 154q-35 -44 -66.5 -89.5t-69.5 -87.5q-37 -6 -88 -10t-109.5 -6.5t-121 -2.5t-123.5 1t-117.5 5t-102.5 8q-15 16 -33.5 41t-36.5 54t-33 57t-23 50q-1 54 -1 120.5t0.5 133t1.5 129.5t4 110l36 40l46 51t46.5 48t37.5 29q36 4 82 8t97.5 7l106.5 6t108 2.5
t102.5 -3.5t89.5 -10q22 -18 44 -41.5t42.5 -50.5l39.5 -54.5l35 -52.5q3 -48 6 -119.5t4.5 -145t1 -135.5t-5.5 -92zM625 200q1 44 3 93.5t2 103t-2.5 110t-9.5 112.5q-31 -1 -58 -1.5t-52.5 -3t-50 -8t-50.5 -17.5q-6 -11 -9 -41.5t-4.5 -71t-2 -87t0 -88.5t1.5 -76t1 -50
q24 -11 56.5 -14t65.5 1t62 14t47 24zM761 918q-21 -2 -47.5 -5t-51 -5.5t-43 -4t-23.5 0.5q-7 13 -17 29l-20 31.5l-19 29l-14 20.5q-2 2 -6 8t-10 6q-9 0 -15 -7t-8 -11l-34.5 -52.5t-30.5 -56.5q-28 -2 -55.5 -2.5t-50.5 0.5t-39.5 3.5t-22.5 3.5q10 26 24.5 57.5
t32 64.5t37 66t38.5 62q19 2 51.5 3l67 2t65 0t45.5 -2l34 -58l38.5 -64.5l38.5 -63z" />
    <glyph glyph-name="Otilde" unicode="&#xd5;" horiz-adv-x="1030" 
d="M972 154q-35 -44 -66.5 -89.5t-69.5 -87.5q-37 -6 -88 -10t-109.5 -6.5t-121 -2.5t-123.5 1t-117.5 5t-102.5 8q-15 16 -33.5 41t-36.5 54t-33 57t-23 50q-1 54 -1 120.5t0.5 133t1.5 129.5t4 110l36 40l46 51t46.5 48t37.5 29q36 4 82 8t97.5 7l106.5 6t108 2.5
t102.5 -3.5t89.5 -10q22 -18 44 -41.5t42.5 -50.5l39.5 -54.5l35 -52.5q3 -48 6 -119.5t4.5 -145t1 -135.5t-5.5 -92zM625 200q1 44 3 93.5t2 103t-2.5 110t-9.5 112.5q-31 -1 -58 -1.5t-52.5 -3t-50 -8t-50.5 -17.5q-6 -11 -9 -41.5t-4.5 -71t-2 -87t0 -88.5t1.5 -76t1 -50
q24 -11 56.5 -14t65.5 1t62 14t47 24zM822 1062l-34 -41.5t-53 -59.5t-60 -52t-55 -21q-27 2 -61.5 14t-67 26t-58.5 23.5t-36 6.5q-13 -5 -32.5 -23t-35.5 -37q-66 27 -85 61q14 24 32 51t39 51.5t44 45t45 28.5q23 10 48.5 4.5t53.5 -18t57 -29t60 -28.5q21 -7 41 1.5
t37 21.5q19 16 37 39q25 -11 47.5 -27.5t36.5 -36.5z" />
    <glyph glyph-name="Odieresis" unicode="&#xd6;" horiz-adv-x="1030" 
d="M972 154q-35 -44 -66.5 -89.5t-69.5 -87.5q-37 -6 -88 -10t-109.5 -6.5t-121 -2.5t-123.5 1t-117.5 5t-102.5 8q-15 16 -33.5 41t-36.5 54t-33 57t-23 50q-1 54 -1 120.5t0.5 133t1.5 129.5t4 110l36 40l46 51t46.5 48t37.5 29q36 4 82 8t97.5 7l106.5 6t108 2.5
t102.5 -3.5t89.5 -10q22 -18 44 -41.5t42.5 -50.5l39.5 -54.5l35 -52.5q3 -48 6 -119.5t4.5 -145t1 -135.5t-5.5 -92zM625 200q1 44 3 93.5t2 103t-2.5 110t-9.5 112.5q-31 -1 -58 -1.5t-52.5 -3t-50 -8t-50.5 -17.5q-6 -11 -9 -41.5t-4.5 -71t-2 -87t0 -88.5t1.5 -76t1 -50
q24 -11 56.5 -14t65.5 1t62 14t47 24zM773 955q-5 -13 -20.5 -23t-36 -17.5t-44 -11t-43.5 -2.5t-35 6.5t-19 16.5t-5.5 30t-0.5 40t2.5 41.5t3.5 32.5q3 20 14.5 34t26.5 23.5t30.5 15.5t25.5 9q17 4 42.5 -6t41.5 -22q11 -38 16 -81t1 -86zM464 947q-5 -13 -22 -24.5
t-39.5 -19t-47.5 -11t-47.5 -3t-38.5 6.5t-20 18t-5.5 32t-1 42t2.5 43t4 35q3 21 15.5 36t29 25.5t33.5 16.5t27 8q9 2 21.5 0.5t25.5 -6.5t24.5 -11t20.5 -12q11 -41 17 -86t1 -90z" />
    <glyph glyph-name="Oslash" unicode="&#xd8;" horiz-adv-x="1030" 
d="M974 195q-35 -46 -66.5 -92.5t-69.5 -90.5q-34 -6 -78 -10t-95 -6.5t-106 -3t-111 -0.5l-18 -39t-17 -39q-47 -5 -92.5 -5.5t-84 2t-66 6.5t-37.5 8l18.5 43l18.5 42q-16 17 -34.5 42.5t-35.5 54.5t-31.5 58t-22.5 50q-1 57 -1.5 124.5t0 136.5t1.5 134t4 114
q15 14 37 40l46 53t46.5 49t37.5 31q38 3 86.5 7.5t102.5 8t111.5 6t112.5 2.5l16.5 27t17.5 27q47 5 93.5 3t85.5 -7.5t67 -11.5t38 -9l-35 -57.5l-36 -60.5q26 -31 48.5 -65.5l42.5 -65.5q2 -32 4.5 -77t4 -94.5t2.5 -100.5t1 -96.5t-1.5 -81.5t-4.5 -56zM484 666
q-20 -3 -39 -8.5t-39 -15.5q-7 -13 -10 -55t-4 -96l45.5 88.5zM629 370l-40 -81l-40 -81q23 6 43 14.5t33 20.5l2 60.5t2 66.5z" />
    <glyph glyph-name="Ugrave" unicode="&#xd9;" horiz-adv-x="974" 
d="M913 816q-1 -70 -3 -152.5t-3 -166t-1 -162t2 -139.5q-7 -21 -21 -45.5t-31.5 -49.5l-36 -50t-35.5 -44q-57 -1 -133 -4.5t-157.5 -6t-162 -2.5t-147.5 6q-14 13 -31.5 36.5t-35 49.5t-31.5 51.5t-21 43.5q0 34 -1 85t-2.5 109.5t-2 120.5t0 119t2.5 104t6 74
q80 10 155 11.5t160 -8.5q-7 -87 -9 -162.5t-1.5 -144t4 -132t7.5 -127.5q20 -8 49 -11.5t58.5 -1t57 10.5t44.5 24q0 65 -1 135.5t-1.5 142.5t-0.5 140.5t1 127.5q80 17 159 16.5t163 1.5zM255 1054q104 52 238 55l15 -46t21 -58t26.5 -62t32.5 -57q-16 -8 -34.5 -12.5
t-38 -8t-38.5 -6t-35 -3.5q-23 15 -47 38t-47.5 48.5t-47 54.5z" />
    <glyph glyph-name="Uacute" unicode="&#xda;" horiz-adv-x="974" 
d="M913 816q-1 -70 -3 -152.5t-3 -166t-1 -162t2 -139.5q-7 -21 -21 -45.5t-31.5 -49.5l-36 -50t-35.5 -44q-57 -1 -133 -4.5t-157.5 -6t-162 -2.5t-147.5 6q-14 13 -31.5 36.5t-35 49.5t-31.5 51.5t-21 43.5q0 34 -1 85t-2.5 109.5t-2 120.5t0 119t2.5 104t6 74
q80 10 155 11.5t160 -8.5q-7 -87 -9 -162.5t-1.5 -144t4 -132t7.5 -127.5q20 -8 49 -11.5t58.5 -1t57 10.5t44.5 24q0 65 -1 135.5t-1.5 142.5t-0.5 140.5t1 127.5q80 17 159 16.5t163 1.5zM729 1046l-92.5 -111t-94.5 -88q-16 1 -35 3.5t-38.5 7l-38 9t-34.5 11.5
q18 27 32.5 58t26.5 61.5t21 57.5t15 47q67 -2 127 -16t111 -40z" />
    <glyph glyph-name="Ucircumflex" unicode="&#xdb;" horiz-adv-x="974" 
d="M913 816q-1 -70 -3 -152.5t-3 -166t-1 -162t2 -139.5q-7 -21 -21 -45.5t-31.5 -49.5l-36 -50t-35.5 -44q-57 -1 -133 -4.5t-157.5 -6t-162 -2.5t-147.5 6q-14 13 -31.5 36.5t-35 49.5t-31.5 51.5t-21 43.5q0 34 -1 85t-2.5 109.5t-2 120.5t0 119t2.5 104t6 74
q80 10 155 11.5t160 -8.5q-7 -87 -9 -162.5t-1.5 -144t4 -132t7.5 -127.5q20 -8 49 -11.5t58.5 -1t57 10.5t44.5 24q0 65 -1 135.5t-1.5 142.5t-0.5 140.5t1 127.5q80 17 159 16.5t163 1.5zM741 877q-21 -1 -47.5 -4t-51.5 -5.5t-43 -3.5t-23 0q-7 13 -17.5 29.5l-20.5 32
t-19 28l-14 19.5q-2 3 -5.5 9.5t-9.5 5.5q-10 0 -15.5 -7.5t-7.5 -10.5l-35 -53t-30 -57q-28 -2 -55.5 -2t-50.5 1t-39.5 3t-22.5 3q10 27 24.5 58.5t31.5 64.5t36.5 66t38.5 62q19 2 51.5 3.5t67 1.5t65 -0.5t46.5 -0.5l34 -59.5l38.5 -64.5l38.5 -63z" />
    <glyph glyph-name="Udieresis" unicode="&#xdc;" horiz-adv-x="974" 
d="M913 816q-1 -70 -3 -152.5t-3 -166t-1 -162t2 -139.5q-7 -21 -21 -45.5t-31.5 -49.5l-36 -50t-35.5 -44q-57 -1 -133 -4.5t-157.5 -6t-162 -2.5t-147.5 6q-14 13 -31.5 36.5t-35 49.5t-31.5 51.5t-21 43.5q0 34 -1 85t-2.5 109.5t-2 120.5t0 119t2.5 104t6 74
q80 10 155 11.5t160 -8.5q-7 -87 -9 -162.5t-1.5 -144t4 -132t7.5 -127.5q20 -8 49 -11.5t58.5 -1t57 10.5t44.5 24q0 65 -1 135.5t-1.5 142.5t-0.5 140.5t1 127.5q80 17 159 16.5t163 1.5zM754 934q-5 -14 -20.5 -24t-36 -17t-44 -10t-43.5 -2.5t-35 6.5t-19 17
q-4 10 -5.5 29.5t-0.5 40t2.5 40.5t3.5 32q3 21 14.5 34.5t26.5 24t30.5 16t25.5 7.5q17 5 42.5 -5.5t41.5 -20.5q11 -39 16 -82t1 -86zM445 926q-8 -21 -40 -35t-69 -19.5t-68.5 -0.5t-38.5 22q-4 12 -5.5 31.5t-0.5 42.5t3 44t3 34q3 21 16 36t29.5 25.5t33.5 16.5t27 9
q9 2 21.5 0t25 -6.5t24.5 -10.5t21 -12q11 -42 17 -86.5t1 -90.5z" />
    <glyph glyph-name="Yacute" unicode="&#xdd;" horiz-adv-x="918" 
d="M937 823q-36 -52 -75.5 -116l-81 -132.5l-83 -136.5l-80.5 -127l-4 -159.5t-5 -144.5q-34 -6 -71 -8t-74.5 -2t-74 2t-69.5 2q0 80 -2.5 160t-4.5 161q-22 25 -49 65l-55 85.5t-56 96t-51 97t-40.5 88t-24.5 69.5q38 2 86.5 5.5l93.5 6.5t78.5 4.5t42.5 -1.5
q6 -24 22.5 -58t35 -67.5l34.5 -62t21 -41.5q1 -2 5.5 -9t10.5 -14t12.5 -12.5t12.5 -5.5q17 -1 28 11.5t15 18.5q31 58 59 119.5t63 119.5q51 4 97.5 3t83.5 -4t63 -6.5t37 -6.5zM704 1054l-45.5 -56t-47 -55t-47.5 -48.5t-47 -38.5q-33 3 -73.5 10t-72.5 20q18 27 32.5 58
t26.5 61.5t21 58l15 45.5q67 0 127 -14t111 -41z" />
    <glyph glyph-name="germandbls" unicode="&#xdf;" horiz-adv-x="976" 
d="M946 337q2 -22 -6 -51t-24 -61t-38.5 -64t-48.5 -59q-23 -15 -67.5 -26t-97.5 -19t-107.5 -13t-96.5 -6l-8 33.5t-6 38.5t-1 46.5t6 56.5q25 3 50 7t45 9q21 17 33 36.5t16.5 40t2 38.5t-10.5 31q-14 6 -40.5 10.5t-56.5 6t-58.5 0.5t-45.5 -7q-3 -12 -4 -40t-0.5 -65.5
t2 -82t3.5 -89.5t5.5 -87.5t7.5 -75.5q-41 0 -80 -1.5t-77 -2.5t-76.5 0.5t-78.5 9.5q-5 60 -8 143t-4 176t-0.5 189t2 183t4.5 158t6 112q61 9 130.5 16t139.5 10.5t136.5 4t123.5 -2t99.5 -6.5t63.5 -10q20 -12 37.5 -32.5t32 -47t25 -56.5t15.5 -62q-9 -31 -26.5 -63
t-39 -59.5t-46 -49t-48.5 -33.5l47.5 -24t63 -37.5t61.5 -53.5t43 -69zM548 739q-9 13 -28.5 18.5t-42.5 6.5t-44.5 -2t-33.5 -7q-9 -8 -14 -33.5t-7.5 -55.5t-1.5 -54.5t4 -29.5q9 -11 31 -11t47.5 4t49.5 10t36 10q6 14 9.5 33t4.5 38.5t-1.5 38t-8.5 34.5z" />
    <glyph glyph-name="agrave" unicode="&#xe0;" horiz-adv-x="834" 
d="M782 22q-35 -10 -87 -19t-112 -15.5t-124.5 -11t-124 -6t-110 1t-83.5 8.5l-29.5 40.5t-32 46.5t-28.5 47t-20 41q2 65 18 129t39 108q24 15 68.5 28.5t98.5 26.5t113 24t113 20q-3 12 -6 27.5t-6 21.5q-23 14 -64 21t-89.5 9t-98.5 1.5t-90 -0.5q-1 24 1 51.5t6.5 53
t11 45t15.5 28.5q68 7 139.5 11t143.5 2t142 -12t135 -28q19 -24 31.5 -72.5t20.5 -111.5t11.5 -135t4 -141.5t-1.5 -132.5t-5 -107zM502 155q-1 45 -1.5 86t-2.5 84q-40 -8 -76.5 -12.5t-73.5 -22.5q-7 -13 -10 -30.5t-2 -36t4.5 -36.5t8.5 -32q23 -10 61 -7.5t92 7.5z
M238 946q51 26 111 40.5t127 14.5l15 -45.5t21 -58t26.5 -62t32.5 -57.5q-16 -6 -34.5 -11.5t-38 -9t-38.5 -6t-35 -3.5q-47 32 -94.5 87.5z" />
    <glyph glyph-name="aacute" unicode="&#xe1;" horiz-adv-x="834" 
d="M782 22q-35 -10 -87 -19t-112 -15.5t-124.5 -11t-124 -6t-110 1t-83.5 8.5l-29.5 40.5t-32 46.5t-28.5 47t-20 41q2 65 18 129t39 108q24 15 68.5 28.5t98.5 26.5t113 24t113 20q-3 12 -6 27.5t-6 21.5q-23 14 -64 21t-89.5 9t-98.5 1.5t-90 -0.5q-1 24 1 51.5t6.5 53
t11 45t15.5 28.5q68 7 139.5 11t143.5 2t142 -12t135 -28q19 -24 31.5 -72.5t20.5 -111.5t11.5 -135t4 -141.5t-1.5 -132.5t-5 -107zM502 155q-1 45 -1.5 86t-2.5 84q-40 -8 -76.5 -12.5t-73.5 -22.5q-7 -13 -10 -30.5t-2 -36t4.5 -36.5t8.5 -32q23 -10 61 -7.5t92 7.5z
M682 948l-92.5 -110.5t-94.5 -87.5q-33 2 -74 9.5t-72 20.5q17 26 31.5 57.5t26.5 62t21 58l15 45.5q68 0 128 -14.5t111 -40.5z" />
    <glyph glyph-name="acircumflex" unicode="&#xe2;" horiz-adv-x="834" 
d="M782 22q-35 -10 -87 -19t-112 -15.5t-124.5 -11t-124 -6t-110 1t-83.5 8.5l-29.5 40.5t-32 46.5t-28.5 47t-20 41q2 65 18 129t39 108q24 15 68.5 28.5t98.5 26.5t113 24t113 20q-3 12 -6 27.5t-6 21.5q-23 14 -64 21t-89.5 9t-98.5 1.5t-90 -0.5q-1 24 1 51.5t6.5 53
t11 45t15.5 28.5q68 7 139.5 11t143.5 2t142 -12t135 -28q19 -24 31.5 -72.5t20.5 -111.5t11.5 -135t4 -141.5t-1.5 -132.5t-5 -107zM502 155q-1 45 -1.5 86t-2.5 84q-40 -8 -76.5 -12.5t-73.5 -22.5q-7 -13 -10 -30.5t-2 -36t4.5 -36.5t8.5 -32q23 -10 61 -7.5t92 7.5z
M710 793q-21 -1 -47.5 -4t-51.5 -5.5t-43 -3.5t-23 0q-7 13 -17.5 29.5l-20.5 32t-19 28l-14 19.5q-2 3 -5.5 9t-9.5 6q-9 0 -15 -7.5t-8 -10.5l-34.5 -53t-30.5 -57q-28 -2 -55.5 -2t-50.5 1t-39.5 3t-22.5 3q10 27 24.5 58.5t32 64.5t36.5 65.5t38 61.5q20 2 52 3.5
t66.5 2t65 0t46.5 -0.5l34 -59.5l38.5 -64.5l38.5 -63z" />
    <glyph glyph-name="atilde" unicode="&#xe3;" horiz-adv-x="834" 
d="M782 22q-35 -10 -87 -19t-112 -15.5t-124.5 -11t-124 -6t-110 1t-83.5 8.5l-29.5 40.5t-32 46.5t-28.5 47t-20 41q2 65 18 129t39 108q24 15 68.5 28.5t98.5 26.5t113 24t113 20q-3 12 -6 27.5t-6 21.5q-23 14 -64 21t-89.5 9t-98.5 1.5t-90 -0.5q-1 24 1 51.5t6.5 53
t11 45t15.5 28.5q68 7 139.5 11t143.5 2t142 -12t135 -28q19 -24 31.5 -72.5t20.5 -111.5t11.5 -135t4 -141.5t-1.5 -132.5t-5 -107zM502 155q-1 45 -1.5 86t-2.5 84q-40 -8 -76.5 -12.5t-73.5 -22.5q-7 -13 -10 -30.5t-2 -36t4.5 -36.5t8.5 -32q23 -10 61 -7.5t92 7.5z
M725 941l-33.5 -41.5t-53 -60t-60.5 -52.5t-55 -21q-27 2 -61.5 15l-67 26t-58.5 22.5t-36 6.5q-13 -5 -32.5 -23t-35.5 -37q-32 13 -54 29t-31 32q14 24 32 51t39 52t44 45t45 28q23 10 49 5t53.5 -17.5t57 -28.5t59.5 -28q21 -9 41.5 -0.5t37.5 21.5q19 16 37 39
q25 -10 47.5 -26t35.5 -37z" />
    <glyph glyph-name="adieresis" unicode="&#xe4;" horiz-adv-x="834" 
d="M782 22q-35 -10 -87 -19t-112 -15.5t-124.5 -11t-124 -6t-110 1t-83.5 8.5l-29.5 40.5t-32 46.5t-28.5 47t-20 41q2 65 18 129t39 108q24 15 68.5 28.5t98.5 26.5t113 24t113 20q-3 12 -6 27.5t-6 21.5q-23 14 -64 21t-89.5 9t-98.5 1.5t-90 -0.5q-1 24 1 51.5t6.5 53
t11 45t15.5 28.5q68 7 139.5 11t143.5 2t142 -12t135 -28q19 -24 31.5 -72.5t20.5 -111.5t11.5 -135t4 -141.5t-1.5 -132.5t-5 -107zM502 155q-1 45 -1.5 86t-2.5 84q-40 -8 -76.5 -12.5t-73.5 -22.5q-7 -13 -10 -30.5t-2 -36t4.5 -36.5t8.5 -32q23 -10 61 -7.5t92 7.5z
M726 849q-7 -19 -36.5 -32.5t-63.5 -19t-63 -0.5t-35 22q-4 11 -5 30t-0.5 39.5t2.5 41t3 32.5q3 20 14.5 34.5t26.5 24t30.5 15.5t25.5 8q17 4 42.5 -5.5t41.5 -21.5q11 -39 16 -82t1 -86zM417 842q-5 -14 -22 -25t-39 -18.5t-47.5 -11.5t-47.5 -3t-38.5 7t-20.5 17
q-4 12 -5.5 32t-1 42.5t2.5 43.5t4 34q3 21 15.5 36t29 25.5t33.5 16.5t28 9q9 2 21.5 0.5t25 -6.5t24.5 -11t20 -12q11 -41 17 -86t1 -90z" />
    <glyph glyph-name="aring" unicode="&#xe5;" horiz-adv-x="834" 
d="M782 22q-35 -10 -87 -19t-112 -15.5t-124.5 -11t-124 -6t-110 1t-83.5 8.5l-29.5 40.5t-32 46.5t-28.5 47t-20 41q2 65 18 129t39 108q24 15 68.5 28.5t98.5 26.5t113 24t113 20q-3 12 -6 27.5t-6 21.5q-23 14 -64 21t-89.5 9t-98.5 1.5t-90 -0.5q-1 24 1 51.5t6.5 53
t11 45t15.5 28.5q68 7 139.5 11t143.5 2t142 -12t135 -28q19 -24 31.5 -72.5t20.5 -111.5t11.5 -135t4 -141.5t-1.5 -132.5t-5 -107zM502 155q-1 45 -1.5 86t-2.5 84q-40 -8 -76.5 -12.5t-73.5 -22.5q-7 -13 -10 -30.5t-2 -36t4.5 -36.5t8.5 -32q23 -10 61 -7.5t92 7.5z
M689 822q-18 -12 -55 -20t-83 -12t-96.5 -4t-96.5 4t-82.5 12.5t-54.5 20.5q-3 16 -5 39.5t-2 48t1 46.5t3 35q21 11 59 19t83.5 11.5t95 4t94 -3.5t79.5 -12t52 -20q4 -12 6.5 -37t3.5 -52t0.5 -50t-2.5 -30zM513 865q0 23 1.5 41.5t-7.5 40.5q-23 0 -55 1.5t-58 -2.5
q-9 -26 -8 -42.5t4 -41.5q13 -2 30 -2.5t34.5 -0.5t33 1.5t25.5 4.5z" />
    <glyph glyph-name="ae" unicode="&#xe6;" horiz-adv-x="1336" 
d="M1299 304q-32 -5 -89 -11t-124.5 -11.5t-139 -9l-131.5 -6.5q2 -18 6 -33t11 -25q15 -10 46 -17t69 -12t79.5 -8.5l78 -6.5t64 -6t37.5 -8q1 -20 -1 -48t-6.5 -53t-11 -45t-15.5 -26q-46 0 -97.5 2.5t-105.5 7t-108.5 11t-107.5 15.5q-39 -8 -91 -16t-110 -14
t-117.5 -9.5t-114.5 -4.5t-101.5 1.5t-77.5 8.5l-29.5 40.5t-32 46.5t-28.5 47t-20 41q2 65 18 129t39 108q24 15 68.5 28.5t98.5 26.5t113 24t113 20q-3 12 -6 27.5t-6 21.5q-23 14 -64 21t-89.5 9t-98.5 1.5t-90 -0.5q-1 24 1 51.5t6.5 53t11 45t15.5 28.5q68 7 139.5 11
t143.5 2t142 -12t135 -28q6 -7 8 -12q44 9 93 16t98.5 12t96.5 8t86.5 3.5t68 -1.5t41.5 -8q23 -39 40 -91.5t27.5 -110t15.5 -118t3 -116.5zM1006 442q2 27 -0.5 58.5t-15.5 55.5q-17 -2 -32.5 -2.5t-32 -2t-35 -6t-41.5 -13.5q-9 -29 -17 -52t-13 -61q55 -3 103.5 5
t83.5 18zM502 155q-1 45 -1.5 86t-2.5 84q-40 -8 -76.5 -12.5t-73.5 -22.5q-7 -13 -10 -30.5t-2 -36t4.5 -36.5t8.5 -32q23 -10 61 -7.5t92 7.5z" />
    <glyph glyph-name="ccedilla" unicode="&#xe7;" horiz-adv-x="738" 
d="M688 64q-23 -5 -66 -5.5t-97 1.5q-2 -43 -9.5 -80t-22.5 -55q-33 -12 -75 -19t-86 -10t-87 -4t-77 -1q-4 4 -7.5 15t-6 25.5t-3 29.5t-0.5 26q20 2 43.5 4t46 5.5t41.5 8.5t30 12q6 10 9 25.5t5 34.5q-40 5 -78 11t-71 13t-59 14.5t-42 15.5q-21 30 -31.5 77t-13 101.5
t2.5 112t16 109t26.5 93.5t33.5 64q117 50 245 68.5t266 21.5q8 -6 16 -23t14 -39t9.5 -46t2.5 -45q-15 -6 -55 -12.5l-86 -14t-89.5 -18t-66.5 -24.5q-14 -23 -20.5 -60t-6.5 -79t6 -84t16 -76q35 -13 73 -18.5t79.5 -7.5t85 -3t89.5 -5q5 -25 6 -49t0.5 -45t-2.5 -37.5
t-4 -27.5z" />
    <glyph glyph-name="egrave" unicode="&#xe8;" horiz-adv-x="865" 
d="M827 302q-32 -5 -89 -11t-124.5 -11t-139 -9t-131.5 -6q2 -18 6 -33t11 -26q15 -9 46 -16.5t69 -12t79.5 -8.5t78 -7t64 -6t37.5 -7q1 -21 -1 -48.5t-6.5 -52.5t-11 -45t-15.5 -26q-69 0 -150 5t-163 15t-161 27t-145 39q-19 23 -29.5 68t-13.5 102t1 120.5t14.5 123
t26.5 110.5t37 82q26 14 77.5 27t115 23t132.5 17.5t129.5 10.5t106.5 1t63 -9q23 -40 40 -92t27.5 -109.5t15.5 -118t3 -117.5zM534 440q2 28 -0.5 59t-15.5 55q-17 -1 -32.5 -1.5t-32 -2.5t-35 -6t-41.5 -14q-9 -29 -17 -51.5t-13 -61.5q55 -2 103.5 6t83.5 17zM194 926
q51 26 111 40.5t127 14.5l15 -45.5t21 -58t26.5 -62t32.5 -57.5q-16 -6 -34.5 -11.5t-38 -9t-38.5 -6t-35 -3.5q-47 32 -94.5 87.5z" />
    <glyph glyph-name="eacute" unicode="&#xe9;" horiz-adv-x="865" 
d="M827 302q-32 -5 -89 -11t-124.5 -11t-139 -9t-131.5 -6q2 -18 6 -33t11 -26q15 -9 46 -16.5t69 -12t79.5 -8.5t78 -7t64 -6t37.5 -7q1 -21 -1 -48.5t-6.5 -52.5t-11 -45t-15.5 -26q-69 0 -150 5t-163 15t-161 27t-145 39q-19 23 -29.5 68t-13.5 102t1 120.5t14.5 123
t26.5 110.5t37 82q26 14 77.5 27t115 23t132.5 17.5t129.5 10.5t106.5 1t63 -9q23 -40 40 -92t27.5 -109.5t15.5 -118t3 -117.5zM534 440q2 28 -0.5 59t-15.5 55q-17 -1 -32.5 -1.5t-32 -2.5t-35 -6t-41.5 -14q-9 -29 -17 -51.5t-13 -61.5q55 -2 103.5 6t83.5 17zM698 927
l-92.5 -110.5t-94.5 -87.5q-33 2 -74 9.5t-72 20.5q17 26 31.5 57.5t26.5 62t21 58l15 45.5q68 0 128 -14.5t111 -40.5z" />
    <glyph glyph-name="ecircumflex" unicode="&#xea;" horiz-adv-x="865" 
d="M827 302q-32 -5 -89 -11t-124.5 -11t-139 -9t-131.5 -6q2 -18 6 -33t11 -26q15 -9 46 -16.5t69 -12t79.5 -8.5t78 -7t64 -6t37.5 -7q1 -21 -1 -48.5t-6.5 -52.5t-11 -45t-15.5 -26q-69 0 -150 5t-163 15t-161 27t-145 39q-19 23 -29.5 68t-13.5 102t1 120.5t14.5 123
t26.5 110.5t37 82q26 14 77.5 27t115 23t132.5 17.5t129.5 10.5t106.5 1t63 -9q23 -40 40 -92t27.5 -109.5t15.5 -118t3 -117.5zM534 440q2 28 -0.5 59t-15.5 55q-17 -1 -32.5 -1.5t-32 -2.5t-35 -6t-41.5 -14q-9 -29 -17 -51.5t-13 -61.5q55 -2 103.5 6t83.5 17zM696 757
q-21 -1 -47.5 -4t-51.5 -5.5t-43 -3.5t-23 0q-7 13 -17.5 29.5l-20.5 32t-19 28l-14 19.5q-2 3 -5.5 9t-9.5 6q-9 0 -15 -7.5t-8 -10.5l-34.5 -53t-30.5 -57q-28 -2 -55.5 -2t-50.5 1t-39.5 3t-22.5 3q10 27 24.5 58.5t32 64.5t36.5 65.5t38 61.5q20 2 52 3.5t66.5 2t65 0
t46.5 -0.5l34 -59.5l38.5 -64.5l38.5 -63z" />
    <glyph glyph-name="edieresis" unicode="&#xeb;" horiz-adv-x="865" 
d="M827 302q-32 -5 -89 -11t-124.5 -11t-139 -9t-131.5 -6q2 -18 6 -33t11 -26q15 -9 46 -16.5t69 -12t79.5 -8.5t78 -7t64 -6t37.5 -7q1 -21 -1 -48.5t-6.5 -52.5t-11 -45t-15.5 -26q-69 0 -150 5t-163 15t-161 27t-145 39q-19 23 -29.5 68t-13.5 102t1 120.5t14.5 123
t26.5 110.5t37 82q26 14 77.5 27t115 23t132.5 17.5t129.5 10.5t106.5 1t63 -9q23 -40 40 -92t27.5 -109.5t15.5 -118t3 -117.5zM534 440q2 28 -0.5 59t-15.5 55q-17 -1 -32.5 -1.5t-32 -2.5t-35 -6t-41.5 -14q-9 -29 -17 -51.5t-13 -61.5q55 -2 103.5 6t83.5 17zM725 817
q-7 -19 -36.5 -32.5t-63.5 -19t-63 -0.5t-35 22q-4 11 -5 30t-0.5 39.5t2.5 41t3 32.5q3 20 14.5 34.5t26.5 24t30.5 15.5t25.5 8q17 4 42.5 -5.5t41.5 -21.5q11 -39 16 -82t1 -86zM416 810q-5 -14 -22 -25t-39 -18.5t-47.5 -11.5t-47.5 -3t-38.5 7t-20.5 17q-4 12 -5.5 32
t-1 42.5t2.5 43.5t4 34q3 21 15.5 36t29 25.5t33.5 16.5t28 9q9 2 21.5 0.5t25 -6.5t24.5 -11t20 -12q11 -41 17 -86t1 -90z" />
    <glyph glyph-name="igrave" unicode="&#xec;" horiz-adv-x="394" 
d="M332 731q0 -173 -6 -353.5t-15 -358.5q-11 -6 -43 -9.5t-68 -6t-69.5 -2.5t-47.5 1q-6 82 -9 175.5t-3.5 189t0.5 186t4 163.5q30 6 63 9t66.5 4.5t66 1.5h61.5zM-2 956q51 26 111 40.5t127 14.5l15 -45.5t21 -58t26.5 -62t32.5 -57.5q-16 -6 -34.5 -11.5t-38 -9
t-38.5 -6t-35 -3.5q-47 32 -94.5 87.5z" />
    <glyph glyph-name="iacute" unicode="&#xed;" horiz-adv-x="394" 
d="M332 731q0 -173 -6 -353.5t-15 -358.5q-11 -6 -43 -9.5t-68 -6t-69.5 -2.5t-47.5 1q-6 82 -9 175.5t-3.5 189t0.5 186t4 163.5q30 6 63 9t66.5 4.5t66 1.5h61.5zM413 945l-92.5 -110.5t-94.5 -87.5q-33 2 -74 9.5t-72 20.5q17 26 31.5 57.5t26.5 62t21 58l15 45.5
q68 0 128 -14.5t111 -40.5z" />
    <glyph glyph-name="icircumflex" unicode="&#xee;" horiz-adv-x="394" 
d="M418 818q-18 -1 -40 -3.5l-42.5 -5t-36 -3.5t-19.5 0q-6 13 -14.5 28l-17 30l-16 28l-11.5 20q-2 2 -5 7.5t-8 5.5q-8 0 -12.5 -7l-6.5 -10l-29.5 -51.5t-25.5 -53.5q-24 -3 -47 -3t-42 1.5t-32.5 3t-18.5 2.5q8 26 20 56.5t26.5 62t31 63t32.5 58.5q16 3 43 4t55.5 1.5
t54.5 0t39 -1.5l28.5 -55.5l32 -62.5l32.5 -61.5zM332 731q0 -173 -6 -353.5t-15 -358.5q-11 -6 -43 -9.5t-68 -6t-69.5 -2.5t-47.5 1q-6 82 -9 175.5t-3.5 189t0.5 186t4 163.5q30 6 63 9t66.5 4.5t66 1.5h61.5z" />
    <glyph glyph-name="idieresis" unicode="&#xef;" horiz-adv-x="394" 
d="M412 854q-6 -15 -29.5 -26t-51 -15.5t-51 -0.5t-28.5 17q-3 9 -4 24t-0.5 32t2 33.5t2.5 25.5q2 16 11.5 27.5t21.5 19t24.5 12.5t20.5 7q14 4 35 -4.5t33 -17.5q9 -31 13 -65t1 -69zM162 848q-4 -11 -17.5 -20t-32 -14.5t-39 -9t-38.5 -2.5t-31 5.5t-17 14.5
q-3 10 -4 25.5t-0.5 33.5t2 34.5l2.5 27.5q3 16 13.5 28t23.5 20.5t26.5 13.5t22.5 7q8 2 17.5 0.5t20 -5.5t20 -9t16.5 -10q9 -32 14 -68t1 -72zM333 731q0 -173 -6 -353.5t-15 -358.5q-11 -6 -43 -9.5t-68 -6t-69.5 -2.5t-47.5 1q-6 82 -9 175.5t-3.5 189t0.5 186t4 163.5
q30 6 63 9t66.5 4.5t66 1.5h61.5z" />
    <glyph glyph-name="ntilde" unicode="&#xf1;" horiz-adv-x="930" 
d="M869 732q2 -176 1 -353.5t-6 -352.5q-29 -4 -69 -8.5l-86.5 -9.5t-96.5 -8t-100 -4q-49 72 -88.5 150.5t-74.5 159.5q-4 9 -12.5 13.5t-17.5 3t-16.5 -8.5t-9.5 -22q-7 -60 -8.5 -130.5t3.5 -155.5q-54 -14 -108.5 -16t-113.5 7q-4 30 -7 81.5t-4.5 115.5t-2 134
t-0.5 139t1 132t3 110q5 5 31 9.5t63.5 9.5t81.5 8.5t85 6t75 2.5t50 -3q29 -81 64.5 -159l70.5 -156q3 -7 10 -11.5t15 -3t15 8t11 19.5q1 5 2.5 38.5t2.5 78t2.5 89t2.5 69.5q57 13 115 17t116 0zM751 905l-33.5 -41.5t-53 -60t-60.5 -52.5t-55 -21q-27 2 -61.5 15l-67 26
t-58.5 22.5t-36 6.5q-13 -5 -32.5 -23t-35.5 -37q-32 13 -54 29t-31 32q14 24 32 51t39 52t44 45t45 28q23 10 49 5t53.5 -17.5t57 -28.5t59.5 -28q21 -9 41.5 -0.5t37.5 21.5q19 16 37 39q25 -10 47.5 -26t35.5 -37z" />
    <glyph glyph-name="ograve" unicode="&#xf2;" horiz-adv-x="880" 
d="M831 150q-29 -36 -56.5 -74.5t-59.5 -74.5q-48 -9 -120.5 -13t-152 -4t-157.5 3t-137 10q-13 13 -28.5 34t-30.5 45t-28 48t-20 42q-1 46 -1 102.5v113t1.5 109.5t3.5 93q12 12 31 33l39.5 42.5l39.5 40t32 26.5q46 3 110.5 8.5t134 8.5t137 2t119.5 -11q38 -30 73.5 -78
l64.5 -90q3 -41 5.5 -101.5t3.5 -122.5t0.5 -114.5t-4.5 -77.5zM534 195q2 75 4 166.5t-10 187.5q-26 -1 -49.5 -1.5t-45 -2.5t-42.5 -6.5t-43 -14.5q-5 -10 -7.5 -35.5t-4 -60t-1.5 -73.5v-75t1 -64t1 -42q21 -10 48.5 -12.5t55.5 0.5t53 12t40 21zM192 926q51 26 111 40.5
t127 14.5l15 -45.5t21 -58t26.5 -62t32.5 -57.5q-16 -6 -34.5 -11.5t-38 -9t-38.5 -6t-35 -3.5q-47 32 -94.5 87.5z" />
    <glyph glyph-name="oacute" unicode="&#xf3;" horiz-adv-x="880" 
d="M831 150q-29 -36 -56.5 -74.5t-59.5 -74.5q-48 -9 -120.5 -13t-152 -4t-157.5 3t-137 10q-13 13 -28.5 34t-30.5 45t-28 48t-20 42q-1 46 -1 102.5v113t1.5 109.5t3.5 93q12 12 31 33l39.5 42.5l39.5 40t32 26.5q46 3 110.5 8.5t134 8.5t137 2t119.5 -11q38 -30 73.5 -78
l64.5 -90q3 -41 5.5 -101.5t3.5 -122.5t0.5 -114.5t-4.5 -77.5zM534 195q2 75 4 166.5t-10 187.5q-26 -1 -49.5 -1.5t-45 -2.5t-42.5 -6.5t-43 -14.5q-5 -10 -7.5 -35.5t-4 -60t-1.5 -73.5v-75t1 -64t1 -42q21 -10 48.5 -12.5t55.5 0.5t53 12t40 21zM711 936l-92.5 -110.5
t-94.5 -87.5q-33 2 -74 9.5t-72 20.5q17 26 31.5 57.5t26.5 62t21 58l15 45.5q68 0 128 -14.5t111 -40.5z" />
    <glyph glyph-name="ocircumflex" unicode="&#xf4;" horiz-adv-x="880" 
d="M831 150q-29 -36 -56.5 -74.5t-59.5 -74.5q-48 -9 -120.5 -13t-152 -4t-157.5 3t-137 10q-13 13 -28.5 34t-30.5 45t-28 48t-20 42q-1 46 -1 102.5v113t1.5 109.5t3.5 93q12 12 31 33l39.5 42.5l39.5 40t32 26.5q46 3 110.5 8.5t134 8.5t137 2t119.5 -11q38 -30 73.5 -78
l64.5 -90q3 -41 5.5 -101.5t3.5 -122.5t0.5 -114.5t-4.5 -77.5zM534 195q2 75 4 166.5t-10 187.5q-26 -1 -49.5 -1.5t-45 -2.5t-42.5 -6.5t-43 -14.5q-5 -10 -7.5 -35.5t-4 -60t-1.5 -73.5v-75t1 -64t1 -42q21 -10 48.5 -12.5t55.5 0.5t53 12t40 21zM696 773
q-21 -1 -47.5 -4t-51.5 -5.5t-43 -3.5t-23 0q-7 13 -17.5 29.5l-20.5 32t-19 28l-14 19.5q-2 3 -5.5 9t-9.5 6q-9 0 -15 -7.5t-8 -10.5l-34.5 -53t-30.5 -57q-28 -2 -55.5 -2t-50.5 1t-39.5 3t-22.5 3q10 27 24.5 58.5t32 64.5t36.5 65.5t38 61.5q20 2 52 3.5t66.5 2t65 0
t46.5 -0.5l34 -59.5l38.5 -64.5l38.5 -63z" />
    <glyph glyph-name="otilde" unicode="&#xf5;" horiz-adv-x="880" 
d="M831 150q-29 -36 -56.5 -74.5t-59.5 -74.5q-48 -9 -120.5 -13t-152 -4t-157.5 3t-137 10q-13 13 -28.5 34t-30.5 45t-28 48t-20 42q-1 46 -1 102.5v113t1.5 109.5t3.5 93q12 12 31 33l39.5 42.5l39.5 40t32 26.5q46 3 110.5 8.5t134 8.5t137 2t119.5 -11q38 -30 73.5 -78
l64.5 -90q3 -41 5.5 -101.5t3.5 -122.5t0.5 -114.5t-4.5 -77.5zM534 195q2 75 4 166.5t-10 187.5q-26 -1 -49.5 -1.5t-45 -2.5t-42.5 -6.5t-43 -14.5q-5 -10 -7.5 -35.5t-4 -60t-1.5 -73.5v-75t1 -64t1 -42q21 -10 48.5 -12.5t55.5 0.5t53 12t40 21zM727 920l-33.5 -41.5
t-53 -60t-60.5 -52.5t-55 -21q-27 2 -61.5 15l-67 26t-58.5 22.5t-36 6.5q-13 -5 -32.5 -23t-35.5 -37q-32 13 -54 29t-31 32q14 24 32 51t39 52t44 45t45 28q23 10 49 5t53.5 -17.5t57 -28.5t59.5 -28q21 -9 41.5 -0.5t37.5 21.5q19 16 37 39q25 -10 47.5 -26t35.5 -37z
" />
    <glyph glyph-name="odieresis" unicode="&#xf6;" horiz-adv-x="880" 
d="M831 150q-29 -36 -56.5 -74.5t-59.5 -74.5q-48 -9 -120.5 -13t-152 -4t-157.5 3t-137 10q-13 13 -28.5 34t-30.5 45t-28 48t-20 42q-1 46 -1 102.5v113t1.5 109.5t3.5 93q12 12 31 33l39.5 42.5l39.5 40t32 26.5q46 3 110.5 8.5t134 8.5t137 2t119.5 -11q38 -30 73.5 -78
l64.5 -90q3 -41 5.5 -101.5t3.5 -122.5t0.5 -114.5t-4.5 -77.5zM534 195q2 75 4 166.5t-10 187.5q-26 -1 -49.5 -1.5t-45 -2.5t-42.5 -6.5t-43 -14.5q-5 -10 -7.5 -35.5t-4 -60t-1.5 -73.5v-75t1 -64t1 -42q21 -10 48.5 -12.5t55.5 0.5t53 12t40 21zM713 817
q-7 -19 -36.5 -32.5t-63.5 -19t-63 -0.5t-35 22q-4 11 -5 30t-0.5 39.5t2.5 41t3 32.5q3 20 14.5 34.5t26.5 24t30.5 15.5t25.5 8q17 4 42.5 -5.5t41.5 -21.5q11 -39 16 -82t1 -86zM404 810q-5 -14 -22 -25t-39 -18.5t-47.5 -11.5t-47.5 -3t-38.5 7t-20.5 17q-4 12 -5.5 32
t-1 42.5t2.5 43.5t4 34q3 21 15.5 36t29 25.5t33.5 16.5t28 9q9 2 21.5 0.5t25 -6.5t24.5 -11t20 -12q11 -41 17 -86t1 -90z" />
    <glyph glyph-name="divide" unicode="&#xf7;" horiz-adv-x="540" 
d="M490 329q-51 -3 -105 -5t-108 -3.5t-107.5 -4t-104.5 -9.5q-7 30 -9.5 63.5t-1.5 66t5 60t9 45.5q21 1 54.5 3t73 2.5l82 1t82 0.5t72 -1t52.5 -4q3 -18 5.5 -47.5t3.5 -60.5t0.5 -60t-3.5 -47zM401 65q-6 -12 -24.5 -21.5t-43 -16t-52.5 -9.5t-52.5 -2.5t-42.5 6
t-23 15.5t-6 27.5t-0.5 37t2.5 37.5t4 30q3 18 17.5 31t32.5 22t36.5 14.5t30.5 7.5q10 3 23.5 1t27.5 -6t27 -9t22 -11q13 -35 19.5 -74.5t1.5 -79.5zM390 673q-5 -14 -22.5 -24t-41 -17t-50 -11t-49.5 -2.5t-40 7t-22 15.5q-5 11 -6 30.5t-0.5 39.5t2.5 40t4 32
q3 19 16.5 33.5t30.5 24t34.5 15t28.5 7.5q10 3 22.5 1t26 -6t26 -9.5t21.5 -11.5q12 -38 18 -80t1 -84z" />
    <glyph glyph-name="oslash" unicode="&#xf8;" horiz-adv-x="880" 
d="M831 162q-29 -36 -56.5 -74.5t-59.5 -74.5q-27 -5 -63.5 -8t-77.5 -5t-86.5 -2.5t-90.5 -0.5q-8 -18 -14.5 -34.5l-13.5 -33.5q-36 -5 -71 -5t-64.5 2t-50.5 5.5t-29 5.5q7 17 13.5 34.5l12.5 34.5q-8 1 -16 1.5t-16 1.5q-13 13 -28.5 34t-30.5 45t-28 48t-20 42
q-1 46 -1 102.5v113t1.5 109.5t3.5 93q12 12 31 33l39.5 42.5l39.5 40t32 26.5q30 2 68.5 5.5t82 6.5t89.5 5t91 2l21.5 40.5t22.5 40.5q36 4 71.5 2t65.5 -6t51.5 -9.5t29.5 -8.5l-28 -50l-28 -54q29 -30 54.5 -66.5l47.5 -67.5q3 -41 5.5 -101.5t3.5 -122.5t0.5 -114.5
t-4.5 -77.5zM414 554q-33 -4 -66 -18q-3 -7 -5.5 -21.5t-4 -35t-2.5 -45t-1 -50.5l39.5 86zM538 326l-33 -73l-31 -73q18 4 33.5 11t26.5 16l2 58z" />
    <glyph glyph-name="ugrave" unicode="&#xf9;" 
d="M822 725q-1 -62 -3 -135t-3 -147.5t-1 -144t2 -124.5q-6 -18 -18.5 -39.5t-28.5 -44.5t-33 -44.5t-32 -38.5q-51 -1 -119 -4t-141.5 -5.5t-146 -2.5t-133.5 5q-12 12 -28 32.5t-31.5 43.5t-28 46t-18.5 40q0 30 -1 75t-2 97l-2 106.5t-0.5 105t2 92.5t5.5 67
q72 9 139.5 10.5t144.5 -7.5q-6 -77 -8 -144t-1.5 -128.5t3.5 -118t7 -112.5q18 -7 44 -10t52.5 -1.5t51 9.5t40.5 21q0 58 -1 121t-1.5 126.5t-0.5 124.5t1 113q72 14 143.5 14t146.5 2zM193 896q51 26 111 40.5t127 14.5l15 -45.5t21 -58t26.5 -62t32.5 -57.5
q-16 -6 -34.5 -11.5t-38 -9t-38.5 -6t-35 -3.5q-47 32 -94.5 87.5z" />
    <glyph glyph-name="uacute" unicode="&#xfa;" 
d="M822 725q-1 -62 -3 -135t-3 -147.5t-1 -144t2 -124.5q-6 -18 -18.5 -39.5t-28.5 -44.5t-33 -44.5t-32 -38.5q-51 -1 -119 -4t-141.5 -5.5t-146 -2.5t-133.5 5q-12 12 -28 32.5t-31.5 43.5t-28 46t-18.5 40q0 30 -1 75t-2 97l-2 106.5t-0.5 105t2 92.5t5.5 67
q72 9 139.5 10.5t144.5 -7.5q-6 -77 -8 -144t-1.5 -128.5t3.5 -118t7 -112.5q18 -7 44 -10t52.5 -1.5t51 9.5t40.5 21q0 58 -1 121t-1.5 126.5t-0.5 124.5t1 113q72 14 143.5 14t146.5 2zM680 899l-92.5 -110.5t-94.5 -87.5q-33 2 -74 9.5t-72 20.5q17 26 31.5 57.5t26.5 62
t21 58l15 45.5q68 0 128 -14.5t111 -40.5z" />
    <glyph glyph-name="ucircumflex" unicode="&#xfb;" 
d="M822 725q-1 -62 -3 -135t-3 -147.5t-1 -144t2 -124.5q-6 -18 -18.5 -39.5t-28.5 -44.5t-33 -44.5t-32 -38.5q-51 -1 -119 -4t-141.5 -5.5t-146 -2.5t-133.5 5q-12 12 -28 32.5t-31.5 43.5t-28 46t-18.5 40q0 30 -1 75t-2 97l-2 106.5t-0.5 105t2 92.5t5.5 67
q72 9 139.5 10.5t144.5 -7.5q-6 -77 -8 -144t-1.5 -128.5t3.5 -118t7 -112.5q18 -7 44 -10t52.5 -1.5t51 9.5t40.5 21q0 58 -1 121t-1.5 126.5t-0.5 124.5t1 113q72 14 143.5 14t146.5 2zM699 743q-21 -1 -47.5 -4t-51.5 -5.5t-43 -3.5t-23 0q-7 13 -17.5 29.5l-20.5 32
t-19 28l-14 19.5q-2 3 -5.5 9t-9.5 6q-9 0 -15 -7.5t-8 -10.5l-34.5 -53t-30.5 -57q-28 -2 -55.5 -2t-50.5 1t-39.5 3t-22.5 3q10 27 24.5 58.5t32 64.5t36.5 65.5t38 61.5q20 2 52 3.5t66.5 2t65 0t46.5 -0.5l34 -59.5l38.5 -64.5l38.5 -63z" />
    <glyph glyph-name="udieresis" unicode="&#xfc;" 
d="M822 725q-1 -62 -3 -135t-3 -147.5t-1 -144t2 -124.5q-6 -18 -18.5 -39.5t-28.5 -44.5t-33 -44.5t-32 -38.5q-51 -1 -119 -4t-141.5 -5.5t-146 -2.5t-133.5 5q-12 12 -28 32.5t-31.5 43.5t-28 46t-18.5 40q0 30 -1 75t-2 97l-2 106.5t-0.5 105t2 92.5t5.5 67
q72 9 139.5 10.5t144.5 -7.5q-6 -77 -8 -144t-1.5 -128.5t3.5 -118t7 -112.5q18 -7 44 -10t52.5 -1.5t51 9.5t40.5 21q0 58 -1 121t-1.5 126.5t-0.5 124.5t1 113q72 14 143.5 14t146.5 2zM704 794q-7 -19 -36.5 -32.5t-63.5 -19t-63 -0.5t-35 22q-4 11 -5 30t-0.5 39.5
t2.5 41t3 32.5q3 20 14.5 34.5t26.5 24t30.5 15.5t25.5 8q17 4 42.5 -5.5t41.5 -21.5q11 -39 16 -82t1 -86zM395 787q-5 -14 -22 -25t-39 -18.5t-47.5 -11.5t-47.5 -3t-38.5 7t-20.5 17q-4 12 -5.5 32t-1 42.5t2.5 43.5t4 34q3 21 15.5 36t29 25.5t33.5 16.5t28 9
q9 2 21.5 0.5t25 -6.5t24.5 -11t20 -12q11 -41 17 -86t1 -90z" />
    <glyph glyph-name="yacute" unicode="&#xfd;" 
d="M843 731q-32 -45 -67.5 -102.5l-73 -118.5l-75 -121l-72.5 -112l-4 -143.5t-4 -126.5q-30 -6 -63.5 -8t-67 -2t-66.5 2t-63 2q0 72 -2 142.5l-4 142.5q-20 23 -44 58l-49.5 75.5t-50.5 85.5l-46.5 87t-36.5 78t-22 61q35 3 78.5 6t84 5.5t71 3.5t37.5 -1q6 -21 21 -51.5
t31.5 -60.5l30.5 -55t19 -36q1 -3 5 -9t9.5 -12.5t11.5 -11t11 -4.5q15 0 25 10.5t13 16.5q28 51 53.5 106t56.5 105q47 4 88.5 3.5t74.5 -3t56.5 -6t33.5 -6.5zM688 877l-92.5 -110.5t-94.5 -87.5q-33 2 -74 9.5t-72 20.5q17 26 31.5 57.5t26.5 62t21 58l15 45.5
q68 0 128 -14.5t111 -40.5z" />
    <glyph glyph-name="ydieresis" unicode="&#xff;" 
d="M843 731q-32 -45 -67.5 -102.5l-73 -118.5l-75 -121l-72.5 -112l-4 -143.5t-4 -126.5q-30 -6 -63.5 -8t-67 -2t-66.5 2t-63 2q0 72 -2 142.5l-4 142.5q-20 23 -44 58l-49.5 75.5t-50.5 85.5l-46.5 87t-36.5 78t-22 61q35 3 78.5 6t84 5.5t71 3.5t37.5 -1q6 -21 21 -51.5
t31.5 -60.5l30.5 -55t19 -36q1 -3 5 -9t9.5 -12.5t11.5 -11t11 -4.5q15 0 25 10.5t13 16.5q28 51 53.5 106t56.5 105q47 4 88.5 3.5t74.5 -3t56.5 -6t33.5 -6.5zM701 825q-7 -19 -36.5 -32.5t-63.5 -19t-63 -0.5t-35 22q-4 11 -5 30t-0.5 39.5t2.5 41t3 32.5q3 20 14.5 34.5
t26.5 24t30.5 15.5t25.5 8q17 4 42.5 -5.5t41.5 -21.5q11 -39 16 -82t1 -86zM392 818q-5 -14 -22 -25t-39 -18.5t-47.5 -11.5t-47.5 -3t-38.5 7t-20.5 17q-4 12 -5.5 32t-1 42.5t2.5 43.5t4 34q3 21 15.5 36t29 25.5t33.5 16.5t28 9q9 2 21.5 0.5t25 -6.5t24.5 -11t20 -12
q11 -41 17 -86t1 -90z" />
    <glyph glyph-name="Gbreve" unicode="&#x11e;" horiz-adv-x="950" 
d="M633 914l-31 -57q30 3 60 5q76 4 132 8q17 -45 25.5 -100t5.5 -98q-40 -5 -90.5 -9t-102.5 -10t-101.5 -15.5t-88.5 -22.5q-16 -15 -28 -42t-20.5 -61t-14 -72t-6.5 -74t2.5 -67t10.5 -52q23 -8 53 -15.5t60 -12.5t56 -6.5t41 -0.5q7 22 11 36.5t5 28.5t-1.5 28.5
t-8.5 35.5q-29 12 -63.5 13.5t-62.5 -0.5q-5 37 -3.5 68.5t13.5 67.5q41 9 94.5 15t108.5 9.5t105.5 5.5t85.5 2q4 -63 7 -142t5.5 -160t3.5 -158t1 -136q-24 -2 -59.5 -4t-75 -2t-79.5 3t-73 12v55q-46 4 -104.5 8t-120 9.5t-120.5 14.5t-105 27q-37 15 -57.5 30.5t-31 36
t-14.5 49.5t-7 69q-3 39 -2.5 91t7 108t19.5 113t33.5 105.5t48.5 84.5q28 35 68 51q56 22 128 37q74 14 154 24q15 2 34 3q-24 1 -52 1q-34 0 -66.5 1.5t-52.5 3.5l-38 65t-36.5 68.5t-32 67t-24.5 61.5q6 1 22.5 3t39.5 3t50.5 1t55.5 -2q12 -29 30.5 -59.5l34.5 -55.5
q2 -3 8 -11t15 -8q6 0 9.5 6.5t5.5 9.5l14 20t19 29.5l20.5 33.5t17.5 31q5 1 23 0t43 -4l51.5 -6t47.5 -4l-35 -58.5l-38.5 -66z" />
    <glyph glyph-name="gbreve" unicode="&#x11f;" horiz-adv-x="855" 
d="M796 688q1 -13 1.5 -58.5t0 -106t-1.5 -130.5t-3 -133t-5.5 -112t-7.5 -68q-8 -38 -20 -74.5t-29 -66.5t-40 -52.5t-52 -32.5q-49 -16 -116 -27.5t-138 -19.5t-139.5 -12t-119.5 -6q-15 35 -23 78.5t-5 79.5q36 3 81.5 6t92.5 8t91.5 12.5t79.5 18.5q9 8 16.5 31.5
t12.5 56.5q-103 -5 -205 0t-191 27q-19 19 -29.5 57.5t-13.5 87.5t1 104t14.5 106.5t27 97t37.5 73.5q36 18 88.5 31t113.5 21.5t126.5 13t129.5 4.5t122 -3.5t103 -11.5zM494 532q-32 -4 -61.5 -10t-59.5 -17q-10 -32 -19.5 -66t-14 -66.5t-1.5 -61.5t18 -51
q18 -8 53.5 -11t78.5 -2q4 71 5 142.5t1 142.5zM568 722q-16 0 -46.5 -0.5t-65 0t-66.5 2t-52 3.5l-38 65t-36.5 68.5t-32 67t-24.5 61.5q6 1 22.5 3t39.5 3t50.5 1t55.5 -2q12 -29 30.5 -59.5l34.5 -55.5q2 -3 8 -11t15 -8q6 0 9.5 6.5t5.5 9.5l14 20t19 29.5l20.5 33.5
t17.5 31q5 1 23 0t43 -4l51.5 -6t47.5 -4l-35 -58.5l-38.5 -66l-38.5 -67.5z" />
    <glyph glyph-name="Idotaccent" unicode="&#x130;" horiz-adv-x="438" 
d="M369 809q0 -195 -6.5 -391t-17.5 -397q-8 -4 -27 -7t-43.5 -5.5t-52 -4.5t-53 -2.5t-46 0t-31.5 1.5q-6 92 -9.5 195t-4 207.5t0.5 204t4 182.5q33 6 70 9.5t74.5 5.5t73.5 2h68zM343 933q-6 -12 -27.5 -22t-49.5 -16t-60 -9.5t-60 -2t-48.5 6t-26.5 14.5q-6 11 -7.5 28
t-0.5 36t3.5 37t4.5 28q3 18 19.5 31t37.5 22t42.5 13.5t34.5 7.5q11 2 26.5 0t31.5 -6t31.5 -9t25.5 -11q14 -34 21 -72t2 -76z" />
    <glyph glyph-name="dotlessi" unicode="&#x131;" horiz-adv-x="394" 
d="M332 731q0 -173 -6 -353.5t-15 -358.5q-11 -6 -43 -9.5t-68 -6t-69.5 -2.5t-47.5 1q-6 82 -9 175.5t-3.5 189t0.5 186t4 163.5q30 6 63 9t66.5 4.5t66 1.5h61.5z" />
    <glyph glyph-name="OE" unicode="&#x152;" horiz-adv-x="1360" 
d="M1316 754q-76 -4 -151.5 -2t-151.5 -5q-9 -12 -14.5 -36t-7 -52.5t1.5 -55.5t10 -45q3 -1 21 -1t44.5 0.5t58 0.5h61t54.5 -0.5t38 -2.5q4 -36 6.5 -78t-2.5 -77q-34 -4 -70 -4.5l-72 -1t-71.5 -2.5t-69.5 -9q-7 -14 -9.5 -39t-1.5 -52t3.5 -52.5t5.5 -41.5
q22 -7 62.5 -8t86 0l89 2t71.5 -2q8 -46 9 -97.5t-11 -97.5q-61 -6 -119.5 -9t-117 -4l-118 -2t-121.5 -5l-90 -4.5t-109 -4.5t-120 -2.5t-122 0t-115.5 3.5t-100.5 9q-15 17 -33.5 45t-36.5 59.5t-32.5 63t-22.5 55.5q-1 60 -1.5 134t0 148.5t1.5 144t4 122.5
q14 15 36 43.5l46 57l46.5 53.5t37.5 33q49 5 116 8t140 4t147 1t136 -1q71 -1 145.5 -1.5t146.5 -0.5t138.5 -1t120.5 -3q6 -16 8 -40.5t2.5 -51t-0.5 -52t-2 -43.5zM624 229q1 50 3 104.5t2 114t-2.5 121.5t-9.5 125q-31 -1 -58 -2t-52.5 -3t-50 -9t-50.5 -20
q-5 -12 -8.5 -45.5t-5 -78.5t-1.5 -96.5v-98.5t1 -84.5t1 -55.5q24 -12 56.5 -16t65.5 0.5t62 16t47 27.5z" />
    <glyph glyph-name="oe" unicode="&#x153;" horiz-adv-x="1390" 
d="M1334 302q-32 -5 -89 -11t-125 -11t-139 -9t-132 -6q2 -18 6 -33t11 -26q15 -9 46 -16.5t69 -12t79.5 -8.5t78 -7t64 -6t37.5 -7q1 -21 -1 -48.5t-6.5 -52.5t-11 -45t-15.5 -26q-52 0 -110.5 3t-119.5 8.5t-122.5 14.5t-120.5 21l-18 -22q-48 -8 -120.5 -12.5t-152 -4.5
t-157.5 3t-137 11q-13 13 -28.5 34t-30.5 45t-28 48t-20 42q-1 45 -1 101.5v113t1.5 110t3.5 92.5q12 12 31 33l39.5 43t39.5 40.5t32 25.5q46 4 110.5 9t134 8t137 2t119.5 -11q10 -7 19 -15.5l18 -17.5q43 9 94.5 17t105 14t105 10t95.5 5.5t76 -1t46 -8.5q24 -40 41 -92
t27.5 -109.5t15.5 -118t3 -117.5zM1040 440q2 28 -0.5 59t-15.5 55q-17 -1 -32.5 -1.5t-32 -2.5t-35 -6t-41.5 -14q-8 -29 -16.5 -51.5t-13.5 -61.5q55 -2 103.5 6t83.5 17zM534 197q2 74 4 166t-10 188q-26 -2 -49.5 -2.5t-45 -2t-42.5 -6.5t-43 -15q-5 -9 -7.5 -35t-4 -60
t-1.5 -73v-75t1 -64.5t1 -42.5q21 -10 48.5 -12t55.5 1t53 12t40 21z" />
    <glyph glyph-name="Scedilla" unicode="&#x15e;" horiz-adv-x="830" 
d="M648 15q-2 -69 -5 -128.5t-9 -98.5q-19 -14 -57.5 -26.5t-86 -22t-99.5 -16.5t-97.5 -8.5t-80 0t-47.5 10.5q-2 24 -4.5 67t4.5 98q28 2 50.5 3t43.5 4.5t43 11.5t48 22q1 21 0 47q-41 -8 -83 -14l-158 -23q-9 7 -16.5 38.5t-12 68.5t-7 71t-1.5 49q43 2 93.5 8.5
t98.5 15.5t88 20t61 22q5 15 7 38.5t0 44.5q-12 9 -40 15.5t-64 12t-77 11t-79 12t-70 15t-51 21.5q-5 115 14.5 229t64.5 216q72 28 150 47t158 31t160 16t156 1q15 -48 18 -106t2 -109q-85 -13 -170.5 -20.5t-170.5 -24.5q-17 -29 -22 -62.5t-6 -68.5q92 -18 183.5 -33
t184.5 -32q18 -43 23.5 -94t1 -102.5t-18.5 -100t-35 -88.5q-42 -21 -85 -39v-49z" />
    <glyph glyph-name="scedilla" unicode="&#x15f;" horiz-adv-x="747" 
d="M622 11q-2 -69 -5 -128.5t-9 -98.5q-19 -14 -57.5 -26.5t-86 -22t-99.5 -16.5t-97.5 -8.5t-80 0t-47.5 10.5q-2 24 -4.5 67t4.5 98q28 2 50.5 3t43.5 4.5t43 11.5t48 22q1 25 0 57q-42 -8 -84 -14q-72 -10 -142 -17q-9 5 -15.5 30t-10.5 54.5t-6 57.5t-1 39
q38 3 83.5 7.5t88.5 12t79.5 16.5t55.5 17q4 12 6 31t0 35q-11 8 -36 13t-57.5 10t-69.5 9t-71.5 9t-63 12t-45.5 18q-5 91 12.5 183t58.5 173q65 22 135.5 37.5t142.5 24.5t143.5 12.5t140.5 1.5q13 -39 16 -85.5t2 -86.5q-77 -11 -153.5 -17.5t-153.5 -19.5
q-16 -23 -20 -50t-5 -54q83 -15 165 -27.5l166 -25.5q16 -34 21 -74.5t1 -82t-16.5 -81t-31.5 -71.5q-19 -9 -38 -17v-53z" />
    <glyph glyph-name="Ydieresis" unicode="&#x178;" horiz-adv-x="918" 
d="M937 823q-36 -52 -75.5 -116l-81 -132.5l-83 -136.5l-80.5 -127l-4 -159.5t-5 -144.5q-34 -6 -71 -8t-74.5 -2t-74 2t-69.5 2q0 80 -2.5 160t-4.5 161q-22 25 -49 65l-55 85.5t-56 96t-51 97t-40.5 88t-24.5 69.5q38 2 86.5 5.5l93.5 6.5t78.5 4.5t42.5 -1.5
q6 -24 22.5 -58t35 -67.5l34.5 -62t21 -41.5q1 -2 5.5 -9t10.5 -14t12.5 -12.5t12.5 -5.5q17 -1 28 11.5t15 18.5q31 58 59 119.5t63 119.5q51 4 97.5 3t83.5 -4t63 -6.5t37 -6.5zM724 947q-5 -13 -20 -23t-36 -17.5t-44 -11t-43.5 -2t-35.5 6.5t-19 16t-5 30t-0.5 40
t2.5 41.5t3 32.5q3 21 14.5 34.5t26.5 23t30.5 15.5t25.5 9q9 2 20 0.5t23 -6t23 -10.5t18 -12q11 -38 16 -80.5t1 -86.5zM416 939q-8 -20 -40 -34.5t-69 -20t-68.5 -0.5t-38.5 23q-4 12 -5.5 31.5t-1 42t2.5 43.5t4 34q3 21 16 36t29.5 25.5t33.5 16.5t27 8q9 3 21.5 1
t25 -7t24.5 -11t20 -12q11 -40 17 -85t2 -91z" />
    <glyph glyph-name="florin" unicode="&#x192;" horiz-adv-x="786" 
d="M752 779q-60 -8 -108 -18.5t-83 -40.5q-9 -20 -14 -64.5t-7 -103.5q29 -1 52 -1.5t39 -2.5q4 -17 7 -44t4.5 -56.5t0.5 -56.5t-5 -44q-25 -2 -51 -2.5t-52 -2.5q-1 -91 -3.5 -173t-10.5 -133q-19 -14 -57.5 -26.5t-86 -22t-99.5 -16.5t-97.5 -8.5t-80 0t-47.5 10.5
q-2 24 -4.5 67t4.5 98q28 2 50.5 3t43.5 4.5t43 11.5t48 22q0 31 -0.5 70t-2.5 85q-30 -1 -59.5 -3t-58.5 -5q-9 27 -11.5 59t-1 62t6.5 56.5t11 41.5q20 3 48 3.5t62 1.5q1 50 3.5 98t8.5 90t15.5 77.5t23.5 59.5q49 24 105 36.5t114.5 18.5t116 7.5t108.5 2.5q6 -6 11 -24
t8 -41.5t4.5 -48.5t1.5 -47z" />
    <glyph glyph-name="circumflex" unicode="&#x2c6;" horiz-adv-x="646" 
d="M590 555q-21 -1 -47.5 -4t-51.5 -5.5t-43 -3.5t-23 0q-7 13 -17.5 29.5l-20.5 32t-19 28l-14 19.5q-2 3 -5.5 9t-9.5 6q-9 0 -15 -7.5t-8 -10.5l-34.5 -53t-30.5 -57q-28 -2 -55.5 -2t-50.5 1t-39.5 3t-22.5 3q10 27 24.5 58.5t32 64.5t36.5 65.5t38 61.5q20 2 52 3.5
t66.5 2t65 0t46.5 -0.5l34 -59.5l38.5 -64.5l38.5 -63z" />
    <glyph glyph-name="caron" unicode="&#x2c7;" horiz-adv-x="814" 
d="M778 735q2 -18 2 -42t-1.5 -48t-4.5 -45.5t-6 -35.5q-24 -3 -53.5 -5l-59.5 -4t-59.5 -3t-53.5 -3q-4 -20 -7 -58t-5 -86.5t-2.5 -103t-0.5 -108t0.5 -101.5t0.5 -83q-68 -9 -136 -19.5t-136 -4.5q-8 82 -11.5 149t-4.5 129.5t0 125.5t1 136q-51 5 -106 0.5t-103 -9.5
q-3 45 1.5 97t18.5 100q13 6 48.5 10t86 7t111 5.5t123 3.5t122 1h108.5t83 -1t44 -4z" />
    <glyph glyph-name="ring" unicode="&#x2da;" horiz-adv-x="548" 
d="M524 622q-18 -12 -55 -20t-83 -12t-96.5 -4t-96.5 4t-82.5 12.5t-54.5 20.5q-3 16 -5 39.5t-2 48t1 46.5t3 35q21 11 59 19t83.5 11.5t95 4t94 -3.5t79.5 -12t52 -20q4 -12 6.5 -37t3.5 -52t0.5 -50t-2.5 -30zM348 665q0 23 1.5 41.5t-7.5 40.5q-23 0 -55 1.5t-58 -2.5
q-9 -26 -8 -42.5t4 -41.5q13 -2 30 -2.5t34.5 -0.5t33 1.5t25.5 4.5z" />
    <glyph glyph-name="ogonek" unicode="&#x2db;" horiz-adv-x="842" 
d="M786 -9q-12 -2 -35 -4.5t-51 -5t-58 -4t-56.5 -2t-46.5 -1.5t-28 1q-1 18 -2 54.5t-1.5 82t-1.5 96t-2.5 96.5t-4 83.5t-6.5 57.5q-26 2 -64.5 3.5t-92.5 -15.5q-2 -32 -4 -95t-3.5 -133t-1.5 -133t1 -95q-29 -6 -62.5 -5.5t-68 4t-69 8.5t-66.5 7q-5 34 -8 106t-3.5 164
t0 193t2 193.5t3.5 166.5l3 110q16 5 41.5 8t55.5 5t61 3t57 0t43.5 -3t21.5 -7q-5 -30 -7.5 -68.5t-3 -78.5t-0.5 -79v-69q26 3 58.5 11t67.5 14t71.5 7.5t70.5 -6.5q23 -18 47.5 -42.5t47.5 -50.5t42.5 -51t30.5 -46q6 -49 10.5 -121t7.5 -143.5t4 -130.5t0 -85z" />
    <glyph glyph-name="tilde" unicode="&#x2dc;" horiz-adv-x="642" 
d="M616 723l-33.5 -41.5t-53 -60t-60.5 -52.5t-55 -21q-27 2 -61.5 15l-67 26t-58.5 22.5t-36 6.5q-13 -5 -32.5 -23t-35.5 -37q-32 13 -54 29t-31 32q14 24 32 51t39 52t44 45t45 28q23 10 49 5t53.5 -17.5t57 -28.5t59.5 -28q21 -9 41.5 -0.5t37.5 21.5q19 16 37 39
q25 -10 47.5 -26t35.5 -37z" />
    <glyph glyph-name="hungarumlaut" unicode="&#x2dd;" horiz-adv-x="730" 
d="M706 770q-40 -5 -86.5 -9.5t-91.5 -11t-83 -16t-61 -23.5q-9 -16 -15 -58.5t-10 -101.5q28 -5 67.5 -6t81.5 -1t81 0.5t64 -1.5q6 -26 8 -46t1.5 -40t-4.5 -40t-10 -45q-36 -5 -73 -6.5t-75 -3.5t-75 -5t-73 -10q-1 -50 -1 -99.5v-94t0.5 -81t1.5 -60.5q-32 -7 -70 -11
t-76.5 -6t-74 -1.5t-62.5 4.5q-2 30 -4.5 79t-4.5 110.5t-3 130.5t0 138.5t4.5 136t9.5 121t16 95t24 58.5q65 24 135 36.5t142 18.5t143.5 7l139.5 2q9 -6 15.5 -24t11 -41t6.5 -49t1 -46z" />
    <glyph glyph-name="Delta" unicode="&#x394;" horiz-adv-x="918" 
d="M887 5q-51 -5 -118 -10t-143 -8t-157 -4t-160.5 0t-153.5 5.5t-136 11.5q22 62 46.5 141.5l50.5 165l52 174l50 170l45.5 152.5l37.5 122q73 4 152 4t152 -10q26 -60 53.5 -133t54 -153.5t51.5 -164.5l47.5 -166l42 -158t33.5 -139zM543 220l-33 112.5l-32 111.5l-5.5 16
t-8.5 19t-11.5 15t-14.5 6q-5 0 -9.5 -5t-8 -12.5t-6 -15t-3.5 -12.5q-3 -13 -9.5 -37l-15 -56l-18.5 -69l-21 -76l98 2t98 1z" />
    <glyph glyph-name="Delta" unicode="&#x2206;" horiz-adv-x="918" 
d="M887 5q-51 -5 -118 -10t-143 -8t-157 -4t-160.5 0t-153.5 5.5t-136 11.5q22 62 46.5 141.5l50.5 165l52 174l50 170l45.5 152.5l37.5 122q73 4 152 4t152 -10q26 -60 53.5 -133t54 -153.5t51.5 -164.5l47.5 -166l42 -158t33.5 -139zM543 220l-33 112.5l-32 111.5l-5.5 16
t-8.5 19t-11.5 15t-14.5 6q-5 0 -9.5 -5t-8 -12.5t-6 -15t-3.5 -12.5q-3 -13 -9.5 -37l-15 -56l-18.5 -69l-21 -76l98 2t98 1z" />
    <glyph glyph-name="Omega" unicode="&#x3a9;" horiz-adv-x="1026" 
d="M960 219q2 -18 0.5 -49t-4.5 -64.5t-6.5 -63.5l-5.5 -48q-34 -3 -78.5 -3h-91t-90.5 -1.5t-78 -8.5q-20 52 -31.5 105t-8.5 112q17 65 27 130.5t15 128t5 118t-5 102.5q-19 6 -45 9.5t-54 3.5t-56 -4.5t-51 -15.5q-6 -51 -7.5 -109t2.5 -118.5t13.5 -122.5t25.5 -119
q0 -54 -4.5 -109.5t-15.5 -97.5q-34 -3 -82 -3h-98t-97.5 -1.5t-81.5 -8.5q-5 30 -8 62.5t-4.5 63t-0.5 57t4 44.5q13 2 42.5 7t61.5 6q-20 36 -39.5 90t-33 120t-19.5 142t0 157q35 38 71 85t74 88q43 8 99 13.5t115.5 9t118.5 4.5t109 1t86.5 1t51.5 1q22 -18 43.5 -44
t42 -54t39.5 -57l35 -55q2 -86 -4.5 -161t-18.5 -138.5t-28 -114t-34 -86.5q35 -1 61.5 -1.5t38.5 -2.5z" />
    <glyph glyph-name="Omega" unicode="&#x2126;" horiz-adv-x="1026" 
d="M960 219q2 -18 0.5 -49t-4.5 -64.5t-6.5 -63.5l-5.5 -48q-34 -3 -78.5 -3h-91t-90.5 -1.5t-78 -8.5q-20 52 -31.5 105t-8.5 112q17 65 27 130.5t15 128t5 118t-5 102.5q-19 6 -45 9.5t-54 3.5t-56 -4.5t-51 -15.5q-6 -51 -7.5 -109t2.5 -118.5t13.5 -122.5t25.5 -119
q0 -54 -4.5 -109.5t-15.5 -97.5q-34 -3 -82 -3h-98t-97.5 -1.5t-81.5 -8.5q-5 30 -8 62.5t-4.5 63t-0.5 57t4 44.5q13 2 42.5 7t61.5 6q-20 36 -39.5 90t-33 120t-19.5 142t0 157q35 38 71 85t74 88q43 8 99 13.5t115.5 9t118.5 4.5t109 1t86.5 1t51.5 1q22 -18 43.5 -44
t42 -54t39.5 -57l35 -55q2 -86 -4.5 -161t-18.5 -138.5t-28 -114t-34 -86.5q35 -1 61.5 -1.5t38.5 -2.5z" />
    <glyph glyph-name="pi" unicode="&#x3c0;" horiz-adv-x="808" 
d="M766 524q-12 -3 -33 -3h-48q-2 -125 -7 -249.5t-12 -251.5q-11 -6 -39 -10t-60.5 -6t-62 -2t-43.5 1q-8 120 -11 258.5t-1 268.5h-42t-30 -3q-7 -122 -8 -250.5t0 -253.5q-45 -23 -105 -25t-117 6q-5 16 -8 52.5t-4.5 84.5t-2.5 103t-1 107.5v96.5v71q-21 2 -40.5 -2
t-49.5 -2q-6 28 -7.5 53t0.5 50.5t6 50.5t8 54q80 7 171.5 11t186 5.5t187 -1.5t173.5 -10q9 -57 11.5 -104.5t-11.5 -99.5z" />
    <glyph glyph-name="afii10023" unicode="&#x401;" horiz-adv-x="840" 
d="M781 0h-736v919h736v-213h-473v-133h372v-215h-372v-144h473v-214zM145 1171h252v-214h-252v214zM435 1171h251v-214h-251v214z" />
    <glyph glyph-name="afii10051" unicode="&#x402;" horiz-adv-x="1078" 
d="M587 207h139q11 0 18 8t7 19v125q0 20 -12 32t-36 12q-64 0 -133 -6l-37 -2q-19 -1 -29.5 -1.5t-29.5 -1.5v-392h-264v706h-177v213h668v-213h-227v-101q18 2 38.5 2.5t37.5 1.5q51 5 107 7t112 2q247 0 247 -259v-164q0 -94 -56 -150.5t-159 -56.5q-50 0 -103.5 3
t-110.5 11v205z" />
    <glyph glyph-name="afii10052" unicode="&#x403;" horiz-adv-x="774" 
d="M299 0h-264v919h244l89 252h274l-163 -252h279v-213h-459v-706z" />
    <glyph glyph-name="afii10053" unicode="&#x404;" horiz-adv-x="863" 
d="M790 14q-151 -13 -272 -19.5t-213 -6.5q-135 0 -196.5 61.5t-61.5 196.5v402q0 71 15.5 122.5t48.5 84.5t84 48.5t122 15.5h473v-213h-422q-57 0 -57 -58v-87h335v-216h-335v-99q0 -20 12 -32.5t30 -12.5q26 0 57.5 0.5t64.5 1.5q8 0 16 0.5t16 0.5q43 2 110 6t173 12
v-208z" />
    <glyph glyph-name="afii10054" unicode="&#x405;" horiz-adv-x="916" 
d="M57 221q174 -9 299 -14.5t187 -5.5q20 0 32.5 12.5t12.5 32.5v95h-272q-71 0 -122 15.5t-84 48.5t-48.5 84t-15.5 122v37q0 71 15.5 122.5t48.5 84.5t84 48.5t122 15.5h461v-213h-410q-58 0 -58 -58v-25q0 -56 58 -56h225q135 0 197 -62t62 -197v-62q0 -135 -62 -196.5
t-197 -61.5q-29 0 -59.5 0.5t-64.5 1.5h-12l-116 6q-64 2 -139 7l-144 10v208z" />
    <glyph glyph-name="afii10055" unicode="&#x406;" horiz-adv-x="587" 
d="M539 0h-491v214h112v492h-112v213h491v-213h-114v-492h114v-214z" />
    <glyph glyph-name="afii10056" unicode="&#x407;" horiz-adv-x="639" 
d="M556 0h-491v214h113v492h-113v213h491v-213h-113v-492h113v-214zM40 1159h252v-214h-252v214zM329 1159h253v-214h-253v214z" />
    <glyph glyph-name="afii10057" unicode="&#x408;" horiz-adv-x="620" 
d="M28 208q50 -3 109.5 -5t111.5 -2q20 0 32 12.5t12 32.5v460h-164v213h428v-673q0 -135 -62 -196.5t-193 -61.5q-60 0 -128 3t-146 11v206z" />
    <glyph glyph-name="afii10058" unicode="&#x409;" horiz-adv-x="1490" 
d="M50 207h76q15 0 25.5 11.5t11.5 28.5l39 672h692v-301h252q141 0 205.5 -65t64.5 -207v-75q0 -141 -64.5 -206t-205.5 -65h-504v706h-197l-29 -506q-5 -50 -22 -89t-44 -66.5t-62.5 -42t-77.5 -14.5q-39 0 -78.5 3.5t-81.5 11.5v204zM1152 346q0 57 -56 57h-202v-189h202
q56 0 56 57v75z" />
    <glyph glyph-name="afii10059" unicode="&#x40a;" horiz-adv-x="1413" 
d="M821 591h251q71 0 122 -15.5t84 -48t49 -83.5t16 -123v-50q0 -141 -64.5 -206t-206.5 -65h-503v377h-246v-377h-264v919h264v-328h246v328h252v-328zM1079 321q0 56 -57 56h-201v-163h201q57 0 57 57v50z" />
    <glyph glyph-name="afii10060" unicode="&#x40b;" horiz-adv-x="1083" 
d="M1019 0h-265v359q0 20 -12 32t-37 12q-62 0 -131 -6l-40 -3l-57 -3v-391h-265v706h-176v213h667v-213h-226v-101q18 2 38.5 2.5t37.5 1.5q51 5 106.5 7t110.5 2q249 0 249 -259v-359z" />
    <glyph glyph-name="afii10061" unicode="&#x40c;" horiz-adv-x="898" 
d="M307 894l88 252h275l-163 -252h-200zM698 932q29 0 133 -15v-207h-70q-13 0 -23.5 -8t-16.5 -19v1l-114 -218l62.5 -114l65.5 -119l65.5 -119l62.5 -114h-284l-195 358h-83v-358h-264v919h264v-346h83l120 228q32 60 77 95.5t117 35.5z" />
    <glyph glyph-name="afii10062" unicode="&#x40e;" horiz-adv-x="1017" 
d="M351 -12q-34 0 -71 3.5t-79 11.5v204h133q23 0 33 19q8 19 0 35l-361 658h295l214 -420l89.5 210.5l88.5 209.5h293l-333 -718q-23 -52 -51 -91.5t-60 -65.5q-74 -56 -191 -56zM440 919q-181 0 -181 183v57h200v-50q0 -11 8 -19t19 -8h37q11 0 17.5 8t6.5 19v50h202v-57
q0 -183 -183 -183h-126z" />
    <glyph glyph-name="afii10145" unicode="&#x40f;" horiz-adv-x="915" 
d="M42 0v919h264v-705h277v705h265v-919h-272q-2 -19 -3.5 -40l-3 -43l-3 -42.5t-2.5 -38.5h-239l-13 164h-270z" />
    <glyph glyph-name="afii10017" unicode="&#x410;" horiz-adv-x="1029" 
d="M300 0h-286l347 919h279l347 -919h-286l-57 157h-288zM426 359h150l-19 55l-18 50.5l-18 52.5l-20 60z" />
    <glyph glyph-name="afii10018" unicode="&#x411;" horiz-adv-x="936" 
d="M316 579h284q141 0 206 -64t65 -207v-37q0 -141 -65 -206t-206 -65h-547v919h735v-213h-472v-127zM606 308q0 57 -57 57h-233v-151h233q57 0 57 57v37z" />
    <glyph glyph-name="afii10019" unicode="&#x412;" horiz-adv-x="937" 
d="M53 919h523q133 0 195.5 -61t62.5 -184q0 -67 -23.5 -113.5t-63.5 -72.5q79 -36 111 -133q13 -43 13 -97q0 -135 -62 -196.5t-196 -61.5h-560v919zM606 296q0 57 -57 57h-233v-139h233q57 0 57 57v25zM569 648q0 58 -57 58h-196v-139h196q57 0 57 56v25z" />
    <glyph glyph-name="afii10020" unicode="&#x413;" horiz-adv-x="797" 
d="M315 0h-264v919h724v-213h-460v-706z" />
    <glyph glyph-name="afii10021" unicode="&#x414;" horiz-adv-x="1096" 
d="M228 919h698v-705h94v-378h-251l-13 164h-455q-1 -19 -2.5 -40t-3.5 -43t-3.5 -42.5t-2.5 -38.5h-252v378h92q32 39 47.5 86t17.5 85zM660 214v492h-195l-18 -297q-5 -82 -41 -161l1 1q-3 -10 -6.5 -18t-8.5 -17h268z" />
    <glyph glyph-name="afii10022" unicode="&#x415;" horiz-adv-x="832" 
d="M787 0h-736v919h736v-213h-472v-133h372v-215h-372v-144h472v-214z" />
    <glyph glyph-name="afii10024" unicode="&#x416;" horiz-adv-x="1458" 
d="M1214 932q31 0 130 -15v-207h-69q-12 0 -22.5 -8t-17.5 -19l1 1l-113 -217l254 -467h-283l-194 358h-59v-358h-263v358h-58l-97 -179.5l-98 -178.5h-284l258 466l-117 218l1 -1q-6 11 -15.5 19t-23.5 8h-70v207q100 15 133 15q72 0 116 -35.5t76 -95.5l121 -228h58v346
h263v-346h59l121 228q15 30 33 54t41.5 41t52.5 26.5t66 9.5z" />
    <glyph glyph-name="afii10025" unicode="&#x417;" horiz-adv-x="895" 
d="M48 221q161 -9 283.5 -14.5t189.5 -5.5q20 0 32 12.5t12 32.5v50q0 57 -56 57h-322v214h296q57 0 57 56v25q0 58 -57 58h-422v213h485q134 0 196 -60.5t62 -184.5q0 -67 -26 -114t-71 -73q77 -37 109 -132q8 -23 10.5 -47t2.5 -50v-12q0 -135 -61.5 -196.5t-196.5 -61.5
q-109 0 -239 6t-284 19v208z" />
    <glyph glyph-name="afii10026" unicode="&#x418;" horiz-adv-x="937" 
d="M858 0h-265v487l-137 -244.5l-136 -242.5h-268v919h264v-487l138 244.5l136 242.5h268v-919z" />
    <glyph glyph-name="afii10027" unicode="&#x419;" horiz-adv-x="917" 
d="M585 0v487l-138 -244.5l-136 -242.5h-267v919h264v-487l137 244.5l136 242.5h269v-919h-265zM378 945q-183 0 -183 182v56h201v-50q0 -11 7.5 -18t18.5 -7h37q25 0 25 25v50h201v-56q0 -182 -182 -182h-125z" />
    <glyph glyph-name="afii10028" unicode="&#x41a;" horiz-adv-x="935" 
d="M714 932q28 0 132 -15v-207h-70q-13 0 -23.5 -8t-15.5 -19v1l-115 -218l63 -114l66 -119l65 -119l62 -114h-283l-195 358h-83v-358h-264v919h264v-346h83l120 228q32 60 76.5 95.5t117.5 35.5z" />
    <glyph glyph-name="afii10029" unicode="&#x41b;" horiz-adv-x="1006" 
d="M37 207h77q14 0 25 11.5t12 28.5l38 672h736v-919h-266v706h-227l-29 -506q-4 -50 -21 -89t-44 -66.5t-62.5 -42t-77.5 -14.5q-40 0 -79.5 3.5t-81.5 11.5v204z" />
    <glyph glyph-name="afii10030" unicode="&#x41c;" horiz-adv-x="1162" 
d="M811 438l-147 -262h-197l-148 261v-437h-264v919h269l240 -443l242 443h269v-919h-264v438z" />
    <glyph glyph-name="afii10031" unicode="&#x41d;" horiz-adv-x="937" 
d="M858 0h-265v358h-277v-358h-264v919h264v-346h277v346h265v-919z" />
    <glyph glyph-name="afii10032" unicode="&#x41e;" horiz-adv-x="982" 
d="M641 661q0 57 -57 57h-213q-57 0 -57 -57v-403q0 -57 57 -57h213q57 0 57 57v403zM906 258q0 -71 -16 -122t-49 -84t-84.5 -48.5t-121.5 -15.5h-315q-71 0 -122.5 15.5t-84.5 48.5t-48.5 84t-15.5 122v403q0 70 15.5 121.5t48.5 84.5t84.5 49t122.5 16h315q141 0 206 -65
t65 -206v-403z" />
    <glyph glyph-name="afii10033" unicode="&#x41f;" horiz-adv-x="937" 
d="M858 0h-265v706h-277v-706h-264v919h806v-919z" />
    <glyph glyph-name="afii10034" unicode="&#x420;" horiz-adv-x="912" 
d="M53 919h547q141 0 206 -64.5t65 -206.5v-126q0 -71 -16 -122t-49 -84t-84.5 -48.5t-121.5 -15.5h-284v-252h-263v919zM606 648q0 58 -57 58h-233v-241h233q57 0 57 57v126z" />
    <glyph glyph-name="afii10035" unicode="&#x421;" horiz-adv-x="863" 
d="M790 14q-151 -13 -272 -19.5t-213 -6.5q-135 0 -196.5 61.5t-61.5 196.5v402q0 71 15.5 122.5t48.5 84.5t84 48.5t122 15.5h473v-213h-422q-57 0 -57 -58v-402q0 -20 12 -32.5t30 -12.5q26 0 57.5 0.5t64.5 1.5q8 0 16.5 0.5t16.5 0.5q43 1 110 5.5t172 12.5v-208z" />
    <glyph glyph-name="afii10036" unicode="&#x422;" horiz-adv-x="859" 
d="M550 0h-264v706h-265v213h794v-213h-265v-706z" />
    <glyph glyph-name="afii10037" unicode="&#x423;" horiz-adv-x="1030" 
d="M362 -12q-33 0 -70 3.5t-79 11.5v204h133q23 0 32 19q10 19 0 35l-360 658h295l214 -420l89.5 210.5l88.5 209.5h293l-333 -718q-23 -52 -51.5 -91.5t-60.5 -65.5q-72 -56 -191 -56z" />
    <glyph glyph-name="afii10038" unicode="&#x424;" horiz-adv-x="1185" 
d="M1111 333q0 -141 -64 -205.5t-205 -64.5h-134v-88h-263v88h-133q-71 0 -122 15.5t-84 48.5t-48.5 84t-15.5 122v252q0 71 15.5 122.5t48.5 84.5t84 49t122 16h133v87h263v-87h134q141 0 205 -65t64 -207v-252zM847 585q0 57 -56 57h-95v-365h95q56 0 56 56v252zM305 333
q0 -56 58 -56h95v365h-95q-58 0 -58 -57v-252z" />
    <glyph glyph-name="afii10039" unicode="&#x425;" horiz-adv-x="1007" 
d="M649 919h298l-297 -459l303 -460h-297l-167 261l-82.5 -131l-82.5 -130h-297l302 460l-297 459h296l162 -260z" />
    <glyph glyph-name="afii10040" unicode="&#x426;" horiz-adv-x="1005" 
d="M33 0v919h264v-705h277v705h265v-705h95v-378h-252l-13 164h-636z" />
    <glyph glyph-name="afii10041" unicode="&#x427;" horiz-adv-x="894" 
d="M552 288q-70 -6 -136.5 -8.5t-130.5 -2.5q-142 0 -205 64q-64 63 -64 194v384h265v-384q0 -20 12 -31.5t33 -11.5q49 0 104 2.5t122 7.5v417h265v-919h-265v288z" />
    <glyph glyph-name="afii10042" unicode="&#x428;" horiz-adv-x="1295" 
d="M1203 0h-1146v919h264v-705h177v705h264v-705h177v705h264v-919z" />
    <glyph glyph-name="afii10043" unicode="&#x429;" horiz-adv-x="1365" 
d="M36 0v919h264v-705h177v705h264v-705h177v705h264v-705h94v-378h-250l-13 164h-977z" />
    <glyph glyph-name="afii10044" unicode="&#x42a;" horiz-adv-x="1082" 
d="M477 919v-301h284q142 0 206.5 -65t64.5 -207v-75q0 -141 -64.5 -206t-206.5 -65h-548v706h-176v213h440zM767 346q0 57 -57 57h-233v-189h233q57 0 57 57v75z" />
    <glyph glyph-name="afii10045" unicode="&#x42b;" horiz-adv-x="1281" 
d="M321 618h271q142 0 206.5 -65t64.5 -207v-75q0 -141 -64.5 -206t-206.5 -65h-535v919h264v-301zM1189 0h-263v919h263v-919zM598 346q0 57 -57 57h-220v-189h220q57 0 57 57v75z" />
    <glyph glyph-name="afii10046" unicode="&#x42c;" horiz-adv-x="908" 
d="M316 618h284q141 0 206 -65t65 -207v-75q0 -141 -65 -206t-206 -65h-547v919h263v-301zM606 346q0 57 -57 57h-233v-189h233q57 0 57 57v75z" />
    <glyph glyph-name="afii10047" unicode="&#x42d;" horiz-adv-x="862" 
d="M48 221q155 -9 267.5 -14.5t167.5 -5.5q20 0 31.5 12.5t11.5 32.5v99h-335v216h335v87q0 58 -57 58h-408v213h460q141 0 205.5 -64.5t64.5 -206.5v-402q0 -135 -61.5 -196.5t-196.5 -61.5q-94 0 -215 6.5t-270 19.5v207z" />
    <glyph glyph-name="afii10048" unicode="&#x42e;" horiz-adv-x="1278" 
d="M1189 258q0 -71 -15.5 -122t-48 -84t-83.5 -48.5t-123 -15.5h-252q-71 0 -122 15.5t-84 48.5t-48.5 84t-15.5 122v100h-76v-358h-264v919h264v-346h76v88q0 141 64.5 206t205.5 65h252q143 0 206.5 -65t63.5 -206v-403zM926 661q0 57 -56 57h-152q-57 0 -57 -57v-403
q0 -57 57 -57h152q56 0 56 57v403z" />
    <glyph glyph-name="afii10049" unicode="&#x42f;" horiz-adv-x="955" 
d="M875 0h-265v289h-139l-79 -144l-79 -145h-282l168 308q-75 25 -109 85.5t-34 166.5v88q0 142 64 206.5t207 64.5h548v-919zM321 560q0 -56 57 -56h232v202h-232q-57 0 -57 -58v-88z" />
    <glyph glyph-name="afii10065" unicode="&#x430;" horiz-adv-x="867" 
d="M394 205q34 0 74.5 7.5t85.5 18.5v65h-195q-17 0 -28 -11t-11 -28v-13q0 -17 11 -28t28 -11h35zM121 755q138 14 257 21t222 7q50 0 89 -15.5t70 -45.5q62 -62 62 -161v-561h-237l-13 65q-30 -19 -65.5 -34t-61.5 -24q-35 -11 -66.5 -16t-54.5 -5h-50q-50 0 -90.5 16
t-69.5 45t-44.5 70t-15.5 91v64q0 102 60 161q61 63 160 63h281v45q0 15 -10.5 27t-27.5 12q-47 0 -97.5 -2.5t-106.5 -6.5q-25 -2 -51 -3.5t-51.5 -3.5t-48 -3.5t-40.5 -2.5v197z" />
    <glyph glyph-name="afii10066" unicode="&#x431;" horiz-adv-x="829" 
d="M300 583q103 22 190 22h55q46 0 83.5 -14.5t64.5 -41.5t41.5 -64.5t14.5 -83.5v-197q0 -103 -58 -159.5t-158 -56.5h-271q-102 0 -159 56.5t-57 159.5v436q0 97 66 163q65 65 173 78l438 52l21 -211l-401 -44q-43 -5 -43 -44v-51zM465 191q32 0 32 31v154q0 25 -25 25
h-43q-38 0 -71.5 -4l-57.5 -7v-168q0 -31 29 -31h136z" />
    <glyph glyph-name="afii10067" unicode="&#x432;" horiz-adv-x="870" 
d="M66 0v770h504q100 0 161 -58q63 -59 63 -134q0 -55 -22.5 -97.5t-62.5 -70.5q48 -25 78 -60q24 -26 36.5 -62t12.5 -80q0 -90 -61 -150q-30 -28 -70.5 -43t-91.5 -15h-547zM568 252q0 15 -11 27t-28 12h-193v-101h193q17 0 28 10.5t11 28.5v23zM524 541q0 15 -10.5 27
t-27.5 12h-150v-107h150q17 0 27.5 11t10.5 28v29z" />
    <glyph glyph-name="afii10068" unicode="&#x433;" horiz-adv-x="703" 
d="M695 770v-211h-359v-559h-269v770h628z" />
    <glyph glyph-name="afii10069" unicode="&#x434;" horiz-adv-x="1035" 
d="M457 364q-2 -37 -14 -77t-31 -76h216v348h-156zM894 770v-559h108v-381h-255l-16 170h-410l-18 -170h-255v381h98q28 34 41 67.5t16 70.5l29 421h662z" />
    <glyph glyph-name="afii10070" unicode="&#x435;" horiz-adv-x="859" 
d="M374 586q-44 0 -44 -45v-68h217v68q0 45 -43 45h-130zM787 15q-144 -14 -269.5 -21.5t-234.5 -7.5q-51 0 -92 16t-70 45t-45 70t-16 91v340q0 112 62.5 173.5t173.5 61.5h283q111 0 174.5 -61.5t63.5 -173.5v-271h-487v-48q0 -18 10 -28.5t27 -10.5q70 0 179 6.5
t241 17.5v-199z" />
    <glyph glyph-name="afii10072" unicode="&#x436;" horiz-adv-x="1368" 
d="M354 0h-292l217 382l-68 139q-20 38 -61 38h-60v209l44 9q30 6 70 6q41 0 80 -10.5t66 -31.5q25 -18 45 -43.5t32 -51.5l75 -150h61v274h268v-274h60l75 150v-1q47 94 141 127q31 11 65 11q51 0 89 -6q10 -2 21 -4.5t22 -4.5v-209h-59q-40 0 -60 -37q-10 -17 -18 -34
l-16 -34l-34 -72l109 -190.5l109 -191.5h-293l-155 282h-56v-282h-268v282h-52z" />
    <glyph glyph-name="afii10073" unicode="&#x437;" horiz-adv-x="840" 
d="M61 206q135 -10 246 -15.5t189 -5.5q17 0 28 10.5t11 27.5v21q0 17 -11 27.5t-28 10.5h-321v199h292q18 0 29.5 11t11.5 28v13q0 18 -11.5 29t-29.5 11h-391v197h478q98 0 159 -58q63 -59 63 -134q0 -113 -97 -169q54 -28 89.5 -79.5t35.5 -126.5q0 -47 -15.5 -86.5
t-47.5 -69.5q-60 -61 -160 -61q-117 0 -246 7.5t-274 21.5v191z" />
    <glyph glyph-name="afii10074" unicode="&#x438;" horiz-adv-x="884" 
d="M560 770h276v-770h-268v384l-225 -384h-277v770h270v-384z" />
    <glyph glyph-name="afii10075" unicode="&#x439;" horiz-adv-x="867" 
d="M364 820q-96 0 -145 48.5t-49 145.5v53h205v-45q0 -17 11 -28.5t28 -11.5h43q15 0 27 11.5t12 28.5v45h203v-53q0 -194 -192 -194h-143zM551 770h276v-770h-268v384l-225 -384h-275v770h267v-384z" />
    <glyph glyph-name="afii10076" unicode="&#x43a;" horiz-adv-x="915" 
d="M423 282h-89v-282h-269v770h269v-274h94l18 35.5l20.5 39.5l20 39l17.5 36q22 44 57.5 76.5t79.5 49.5q36 11 66 11q23 0 47.5 -1.5t44.5 -4.5q10 -2 20.5 -4.5t20.5 -4.5v-209h-59q-43 0 -62 -39l-67 -138l109 -190.5l109 -191.5h-292z" />
    <glyph glyph-name="afii10077" unicode="&#x43b;" horiz-adv-x="935" 
d="M201 -14q-31 0 -67.5 3.5t-84.5 11.5v204h69q41 0 44 47l27 518h700v-770h-267v559h-179l-20 -352q-2 -49 -19 -89.5t-48 -70.5q-62 -61 -155 -61z" />
    <glyph glyph-name="afii10078" unicode="&#x43c;" horiz-adv-x="1085" 
d="M652 127h-197l-105 191l-18 -4v-314h-268v770h275l213 -384l213 384h279v-770h-269v315l-18 4z" />
    <glyph glyph-name="afii10079" unicode="&#x43d;" horiz-adv-x="884" 
d="M568 496v274h268v-770h-268v282h-232v-282h-270v770h270v-274h232z" />
    <glyph glyph-name="afii10080" unicode="&#x43e;" horiz-adv-x="901" 
d="M859 223q0 -113 -63.5 -175t-173.5 -62h-324q-112 0 -175 62t-63 175v325q0 112 63 173.5t175 61.5h324q110 0 173.5 -61.5t63.5 -173.5v-325zM591 527q0 46 -47 46h-170q-44 0 -44 -46v-283q0 -46 44 -46h170q47 0 47 46v283z" />
    <glyph glyph-name="afii10081" unicode="&#x43f;" horiz-adv-x="884" 
d="M836 770v-770h-268v559h-232v-559h-270v770h770z" />
    <glyph glyph-name="afii10082" unicode="&#x440;" horiz-adv-x="867" 
d="M495 559q-36 0 -74.5 -6.5t-85.5 -19.5v-322h200q46 0 46 46v263q0 16 -10.5 27.5t-27.5 11.5h-48zM335 0v-241h-269v1011h240l14 -63q34 20 64.5 33t59.5 21q37 12 67 17t55 5h61q51 0 92 -16t70.5 -45t45 -70t15.5 -91v-323q0 -56 -16.5 -100t-47 -75t-74.5 -47
t-98 -16h-279z" />
    <glyph glyph-name="afii10083" unicode="&#x441;" horiz-adv-x="808" 
d="M760 15q-140 -14 -258.5 -21.5t-218.5 -7.5q-50 0 -91.5 16t-70.5 45t-45 70t-16 91v325q0 112 63 174.5t174 62.5h463v-211h-385q-45 0 -45 -47v-274q0 -18 10.5 -29t27.5 -11q59 0 157 5.5t235 16.5v-205z" />
    <glyph glyph-name="afii10084" unicode="&#x442;" horiz-adv-x="792" 
d="M539 559v-559h-269v559h-232v211h733v-211h-232z" />
    <glyph glyph-name="afii10085" unicode="&#x443;" horiz-adv-x="941" 
d="M350 -254q-37 0 -85 2.5t-107 10.5v207h136q35 0 50.5 11.5t15.5 34.5q0 11 -2.5 24t-9.5 28l-296 706h286l169 -456l34 111l36 116.5l36 116.5l35 112h284l-288 -791v1q-41 -110 -110.5 -172t-183.5 -62z" />
    <glyph glyph-name="afii10086" unicode="&#x444;" horiz-adv-x="1074" 
d="M1064 238q0 -112 -62 -175t-176 -63h-144v-241h-268v241h-145q-112 0 -174 63t-62 175v295q0 112 62 174.5t174 62.5h145v240h268v-240h144q114 0 176 -62.5t62 -174.5v-295zM302 257q0 -46 44 -46h90v348h-90q-44 0 -44 -47v-255zM796 512q0 25 -11 36t-37 11h-72v-348
h72q26 0 37 11.5t11 34.5v255z" />
    <glyph glyph-name="afii10087" unicode="&#x445;" horiz-adv-x="980" 
d="M628 770h302l-246 -388l254 -382h-303l-136 215l-67.5 -107.5l-66.5 -107.5h-302l255 382l-55.5 85l-55.5 86l-139 217h303l128 -216z" />
    <glyph glyph-name="afii10088" unicode="&#x446;" horiz-adv-x="952" 
d="M649 0h-608v770h270v-559h232v559h268v-559h106v-381h-253z" />
    <glyph glyph-name="afii10089" unicode="&#x447;" horiz-adv-x="846" 
d="M340 423q54 0 100 1.5t88 5.5v340h269v-770h-269v225q-77 -7 -144 -9.5t-127 -2.5q-51 0 -92 15.5t-70.5 44.5t-45.5 69.5t-16 91.5v336h270v-307q0 -17 10 -28.5t27 -11.5z" />
    <glyph glyph-name="afii10090" unicode="&#x448;" horiz-adv-x="1188" 
d="M63 0v770h268v-559h140v559h269v-559h140v559h270v-770h-1087z" />
    <glyph glyph-name="afii10091" unicode="&#x449;" horiz-adv-x="1255" 
d="M960 0h-924v770h268v-559h139v559h270v-559h141v559h269v-559h105v-381h-251z" />
    <glyph glyph-name="afii10092" unicode="&#x44a;" horiz-adv-x="1025" 
d="M511 770v-233h279q102 0 162 -61q60 -63 60 -161v-92q0 -50 -15.5 -91.5t-44.5 -70.5t-70 -45t-92 -16h-547v559h-199v211h467zM706 198q17 0 27 11t10 29v63q0 16 -10 26t-27 10h-195v-139h195z" />
    <glyph glyph-name="afii10093" unicode="&#x44b;" horiz-adv-x="1194" 
d="M63 0v770h268v-233h264q103 0 161 -61q63 -63 63 -161v-92q0 -50 -16 -91.5t-45.5 -70.5t-70.5 -45t-92 -16h-532zM512 198q14 0 26.5 11t12.5 29v60q0 17 -12.5 27.5t-26.5 10.5h-181v-138h181zM1156 0h-268v770h268v-770z" />
    <glyph glyph-name="afii10094" unicode="&#x44c;" horiz-adv-x="848" 
d="M66 0v770h270v-233h277q51 0 91.5 -14.5t70.5 -46.5q32 -32 46.5 -72t14.5 -89v-92q0 -50 -16 -91.5t-45.5 -70.5t-70.5 -45t-91 -16h-547zM529 198q17 0 28 11t11 29v63q0 16 -11 26t-28 10h-193v-139h193z" />
    <glyph glyph-name="afii10095" unicode="&#x44d;" horiz-adv-x="805" 
d="M538 -14q-103 0 -221.5 7.5t-255.5 21.5v191q141 -11 236 -16t156 -5q17 0 29 10.5t12 27.5v59h-320v199h320v46q0 46 -48 46h-371v197h449q111 0 174 -62.5t63 -174.5v-325q0 -50 -16 -91t-45 -70t-70 -45t-92 -16z" />
    <glyph glyph-name="afii10096" unicode="&#x44e;" horiz-adv-x="1190" 
d="M415 496v52q0 112 63 173.5t174 61.5h269q112 0 173.5 -61.5t61.5 -173.5v-325q0 -113 -61.5 -175t-173.5 -62h-269q-111 0 -174 62t-63 175v59h-84v-282h-268v770h268v-274h84zM888 527q0 46 -46 46h-113q-47 0 -47 -46v-283q0 -46 47 -46h113q46 0 46 46v283z" />
    <glyph glyph-name="afii10097" unicode="&#x44f;" horiz-adv-x="900" 
d="M852 770v-770h-267v233h-105l-134 -233h-286l143 252q-57 28 -89 79.5t-32 123.5v93q0 50 16 91t45 70t70 45t91 16h548zM388 573q-16 0 -26.5 -11t-10.5 -29v-63q0 -16 10.5 -28t26.5 -12h197v143h-197z" />
    <glyph glyph-name="afii10071" unicode="&#x451;" horiz-adv-x="851" 
d="M141 1052h264v-219h-264v219zM466 1052h262v-219h-262v219zM371 586q-44 0 -44 -45v-68h217v68q0 45 -45 45h-128zM784 15q-144 -14 -269.5 -21.5t-234.5 -7.5q-51 0 -92 16t-70 45t-45 70t-16 91v340q0 112 62.5 173.5t173.5 61.5h282q111 0 174.5 -61.5t63.5 -173.5
v-271h-486v-48q0 -18 9.5 -28.5t26.5 -10.5q34 0 80 2t100 5t115 7.5l126 9.5v-199z" />
    <glyph glyph-name="afii10099" unicode="&#x452;" horiz-adv-x="931" 
d="M402 631q66 12 124 18.5t106 6.5h63q51 0 92 -15.5t70 -44t44.5 -70t15.5 -92.5v-226q0 -49 -15 -90t-46 -71q-61 -61 -158 -61q-86 0 -198 15v204h111q17 0 28 11t11 28v162q0 17 -11 28t-28 11h-50q-34 0 -62.5 -3l-54.5 -6l-42 -4v-432h-267v698h-87v199h88l5 21
q5 23 12.5 47.5t11.5 44.5h237v-113h177v-199h-177v-67z" />
    <glyph glyph-name="afii10100" unicode="&#x453;" horiz-adv-x="681" 
d="M679 770v-211h-359v-559h-270v770h629zM215 805l92 262h285l-85.5 -131.5l-85.5 -130.5h-206z" />
    <glyph glyph-name="afii10101" unicode="&#x454;" horiz-adv-x="806" 
d="M760 15q-140 -14 -258.5 -21.5t-218.5 -7.5q-50 0 -91.5 16t-70.5 45t-45 70t-16 91v325q0 112 63 174.5t174 62.5h450v-197h-372q-45 0 -45 -46v-46h317v-199h-317v-59q0 -17 10.5 -27.5t27.5 -10.5q60 0 157.5 5.5t234.5 15.5v-191z" />
    <glyph glyph-name="afii10102" unicode="&#x455;" horiz-adv-x="879" 
d="M73 220q144 -11 261.5 -16.5t201.5 -5.5q18 0 28.5 11t10.5 29v39h-294q-51 0 -92 15.5t-70.5 44.5t-45 70t-15.5 91v50q0 50 15.5 91t45 70t70.5 45t92 16h491v-205h-405q-17 0 -28 -11.5t-11 -26.5q0 -18 11 -28.5t28 -10.5h254q50 0 91 -16t70.5 -45t45.5 -70t16 -91
v-58q0 -50 -16 -91t-45.5 -70t-70.5 -45t-91 -16q-124 0 -260 7.5t-288 21.5v205z" />
    <glyph glyph-name="afii10103" unicode="&#x456;" horiz-adv-x="466" 
d="M405 743v-743h-268v529h-107v214h375zM137 1024h268v-219h-268v219z" />
    <glyph glyph-name="afii10104" unicode="&#x457;" horiz-adv-x="658" 
d="M37 1024h262v-219h-262v219zM362 1024h262v-219h-262v219zM501 743v-743h-267v529h-106v214h373z" />
    <glyph glyph-name="afii10105" unicode="&#x458;" horiz-adv-x="585" 
d="M308 -254q-64 0 -133.5 3t-145.5 11v206h194q17 0 27.5 11t10.5 25v741h269v-775q0 -51 -16 -92t-45 -70t-70 -44.5t-91 -15.5zM261 1024h269v-219h-269v219z" />
    <glyph glyph-name="afii10106" unicode="&#x459;" horiz-adv-x="1316" 
d="M202 -14q-59 0 -152 15v204h68q42 0 45 47l29 518h648v-247h245q98 0 161 -60q62 -64 62 -162v-78q0 -100 -62 -162q-64 -61 -161 -61h-498v559h-144l-17 -352q-2 -49 -20 -89.5t-48 -70.5q-62 -61 -156 -61zM1001 190q17 0 27.5 10.5t10.5 28.5v50q0 18 -10.5 29
t-27.5 11h-161v-129h161z" />
    <glyph glyph-name="afii10107" unicode="&#x45a;" horiz-adv-x="1257" 
d="M527 0v319h-198v-319h-267v770h267v-247h198v247h254v-247h244q99 0 162 -60q31 -32 45.5 -72.5t14.5 -89.5v-78q0 -102 -60 -162q-64 -61 -162 -61h-498zM941 205q15 0 26 11t11 28v35q0 18 -11 29t-26 11h-160v-114h160z" />
    <glyph glyph-name="afii10108" unicode="&#x45b;" horiz-adv-x="934" 
d="M403 631q66 12 124 18.5t106 6.5h63q51 0 92 -15.5t70 -44t44.5 -70t15.5 -92.5v-434h-266v406q0 17 -12 28t-28 11h-50q-34 0 -62.5 -3l-54.5 -6l-42 -4v-432h-267v698h-87v199h88l5 21q5 23 12.5 47.5t11.5 44.5h237v-113h177v-199h-177v-67z" />
    <glyph glyph-name="afii10109" unicode="&#x45c;" horiz-adv-x="880" 
d="M309 805l91 262h285l-85.5 -131.5l-84.5 -130.5h-206zM402 282h-87v-282h-269v770h269v-274h94l38 75l38 75q22 45 57.5 77t80.5 49q36 11 66 11q23 0 46.5 -1.5t43.5 -4.5q11 -2 21.5 -4.5t20.5 -4.5v-209h-59q-42 0 -63 -39l-66 -138l108.5 -190.5l108.5 -191.5h-291z
" />
    <glyph glyph-name="afii10110" unicode="&#x45e;" horiz-adv-x="930" 
d="M411 805q-195 0 -195 194v53h204v-45q0 -18 12.5 -28.5t26.5 -10.5h44q17 0 27.5 10.5t10.5 28.5v45h206v-53q0 -194 -195 -194h-141zM340 -254q-38 0 -86 2.5t-108 10.5v207h138q66 0 66 46q0 10 -3.5 23t-8.5 28l-296 707h285l168 -456l34.5 111l37 116.5l36.5 116.5
l35 112h282l-286 -791v1q-41 -110 -110.5 -172t-183.5 -62z" />
    <glyph glyph-name="afii10193" unicode="&#x45f;" horiz-adv-x="860" 
d="M55 0v770h267v-559h235v559h266v-770h-244l-8.5 -85t-7.5 -85h-248l-13 170h-247z" />
    <glyph glyph-name="endash" unicode="&#x2013;" horiz-adv-x="550" 
d="M490 266q-51 -4 -105 -5.5t-108 -3.5t-107.5 -4.5t-104.5 -9.5q-7 30 -9.5 63.5t-1.5 66t5 60t9 45.5q21 1 54.5 3t73 2.5l82 1t82 0.5t72 -1t52.5 -3q3 -18 5.5 -47.5t3.5 -61t0.5 -60t-3.5 -46.5z" />
    <glyph glyph-name="emdash" unicode="&#x2014;" horiz-adv-x="696" 
d="M636 266q-68 -4 -139.5 -5.5t-144 -3.5t-143.5 -4.5t-139 -9.5q-10 30 -13 63.5t-1.5 66t6.5 60t12 45.5q28 1 73 3t98 2.5l109.5 1t108.5 0.5t95.5 -1t70.5 -3q4 -18 7 -47.5t4.5 -61t1 -60t-5.5 -46.5z" />
    <glyph glyph-name="quoteleft" unicode="&#x2018;" horiz-adv-x="368" 
d="M263 883l15.5 -97t13 -96.5t8 -90.5t-0.5 -79q-26 -25 -61 -51t-69 -38q-10 42 -26 87t-34 87l-34.5 78.5l-28.5 61.5q48 56 103 90t114 48z" />
    <glyph glyph-name="quoteright" unicode="&#x2019;" horiz-adv-x="368" 
d="M355 766l-43.5 -87.5l-45.5 -84t-45.5 -74.5t-45.5 -58q-31 4 -69 16.5t-67 33.5q17 41 31 89t26 95.5t21 89.5l15 71q63 -3 119 -26t104 -65z" />
    <glyph glyph-name="quotesinglbase" unicode="&#x201a;" horiz-adv-x="368" 
d="M355 266l-43.5 -87.5l-45.5 -84t-45.5 -74.5t-45.5 -58q-31 4 -69 16.5t-67 33.5q17 41 31 89t26 95.5t21 89.5l15 71q63 -3 119 -26t104 -65z" />
    <glyph glyph-name="quotedblleft" unicode="&#x201c;" horiz-adv-x="578" 
d="M214 828l28 -92.5t25.5 -91.5t20 -86.5t10.5 -76.5q-20 -23 -50 -45.5t-60 -32.5q-15 41 -36.5 84l-44 84l-43.5 76.5l-35 59.5q38 50 84.5 80t100.5 41zM491 873l10.5 -97.5t8.5 -96.5t3.5 -89.5t-3.5 -77.5q-23 -20 -56 -41t-64 -27q-7 43 -20 90t-27.5 90.5
t-28.5 81.5l-23 64q45 47 95.5 72t104.5 31z" />
    <glyph glyph-name="quotedblright" unicode="&#x201d;" horiz-adv-x="578" 
d="M302 821l-28.5 -92.5t-29.5 -91t-31 -81.5t-33 -66q-27 -1 -62 3.5t-64 21.5q10 43 17 93t11.5 98.5t7.5 92l5 73.5q112 15 207 -51zM575 723l-43.5 -83t-45.5 -80.5t-45.5 -72t-44.5 -57.5q-29 2 -65 12t-63 29q17 38 32 83.5t27.5 90.5t22.5 85.5l17 67.5
q119 0 208 -75z" />
    <glyph glyph-name="quotedblbase" unicode="&#x201e;" horiz-adv-x="598" 
d="M305 341l-28.5 -93.5t-30 -90.5t-31 -81.5t-32.5 -66.5q-28 -2 -63 3.5t-63 22.5q10 43 17 92t11.5 97.5t7.5 92l5 73.5q56 9 108 -4t99 -45zM584 281l-44.5 -82.5l-45.5 -80.5t-45.5 -72t-43.5 -57q-29 2 -65.5 12t-63.5 29q17 38 32 83.5t28 90.5t22.5 85t16.5 67
q60 1 112 -18.5t97 -56.5z" />
    <glyph glyph-name="dagger" unicode="&#x2020;" horiz-adv-x="466" 
d="M424 315q-16 -3 -39.5 -3.5t-40.5 -1.5q-2 -72 -4.5 -141.5t-5.5 -141.5q-10 -8 -36 -12.5t-56 -7t-57 -2.5t-41 1q-4 69 -6 142l-4 151q-16 -1 -36.5 -3t-35.5 -4q-6 29 -8 62.5t-1 66t4.5 60t7.5 45.5q11 1 30.5 1.5t36.5 1.5q0 96 1 185t3 166q57 13 118 16t116 2
q0 -91 -9 -182.5t-11 -183.5q17 -1 38 -2t31 -2q3 -18 5 -46.5t3 -60t0.5 -60t-3.5 -46.5z" />
    <glyph glyph-name="daggerdbl" unicode="&#x2021;" horiz-adv-x="474" 
d="M428 159q-17 -3 -42 -3.5t-43 -1.5l-2 -67t-3 -66q-11 -7 -37.5 -12t-56.5 -7.5t-58 -3t-42 1.5l-6 144q-16 -2 -38.5 -3t-37.5 -4q-6 29 -8 61t-1 62.5t4.5 57.5t7.5 44q10 0 31 0.5t37 1.5q-1 24 -1 46v46q-14 -2 -35 -2.5t-35 -3.5q-6 28 -8 60.5t-1 63t4.5 57
t7.5 43.5q10 1 30.5 1.5t36.5 1.5q1 55 1.5 106t2.5 98q59 13 112.5 16t110.5 2v-109.5t-1 -109.5q15 -2 35.5 -2.5t29.5 -1.5q3 -17 5 -45t3 -57.5t0.5 -57.5t-3.5 -45q-15 -1 -37.5 -2t-37.5 -2q-1 -25 -1.5 -50t-1.5 -49q18 -2 40 -2.5t33 -2.5q3 -17 5 -44.5t3 -57.5
t0.5 -57.5t-3.5 -44.5z" />
    <glyph glyph-name="bullet" unicode="&#x2022;" horiz-adv-x="442" 
d="M375 294q-7 -17 -30 -29.5t-53.5 -21.5t-65.5 -13t-65.5 -3t-52.5 8.5t-28 20.5t-8 36.5t-1 49t4 49.5l5 40q4 24 21.5 42t40 30t45.5 18.5l38 10.5q12 2 29 0.5t34.5 -7t33.5 -13t28 -14.5q16 -47 23.5 -99t1.5 -105z" />
    <glyph glyph-name="ellipsis" unicode="&#x2026;" horiz-adv-x="1140" 
d="M300 22q-5 -12 -22 -22.5t-39.5 -17.5t-48 -10.5t-48 -2.5t-38.5 6.5t-21 16.5q-4 11 -5.5 29.5t-0.5 39.5t3 40.5t3 31.5q3 20 16 33.5t29.5 23t33.5 15.5t28 9q9 2 21.5 0.5t25 -6t24.5 -10t21 -11.5q11 -38 17 -80t1 -85zM647 41q-5 -13 -22 -23.5t-39.5 -17t-48 -10
t-48 -2.5t-38.5 6.5t-21 16.5q-4 11 -5.5 29.5t-0.5 39.5t3 41t3 32q3 19 16 32.5t29.5 23.5t33.5 16t28 8q9 2 21.5 0t25 -6.5t24.5 -10t21 -11.5q11 -38 17 -80t1 -84zM1003 27q-5 -12 -22 -22.5t-39.5 -17.5t-48 -10.5t-48 -2.5t-38.5 6.5t-21 16.5q-4 10 -5.5 29
t-0.5 40t3 40.5t3 31.5q3 19 16 33t29.5 23.5t33.5 15.5t28 9q9 2 21.5 0t25 -6t24.5 -9.5t21 -11.5q11 -38 17 -80t1 -85z" />
    <glyph glyph-name="perthousand" unicode="&#x2030;" horiz-adv-x="1330" 
d="M1275 48q-21 -31 -69 -50t-105 -25t-115 1.5t-101 27.5q-45 -17 -101.5 -22t-110.5 1.5t-98 25t-64 49.5q-3 31 -4.5 80t-2.5 100l-66.5 -137.5l-63.5 -134.5q-44 -5 -87.5 -5t-79.5 2t-62 5.5t-36 5.5l113.5 254t107.5 221q-41 -3 -83 -0.5t-79.5 12t-67 25.5t-44.5 40
q-3 33 -5 82t-2 100.5t1 99t3 75.5q21 22 57 38t79.5 24t91 9t89.5 -7t76 -25t50 -43q2 -17 4 -47t4 -65l52 87.5l55 89.5q45 5 89 2.5t81 -7.5t63.5 -10.5t36.5 -8.5q-64 -100 -129 -213.5l-129 -234.5q35 9 72.5 12.5t74.5 1t71 -10.5t60 -21q45 17 100.5 22.5t108 0
t95.5 -23t62 -48.5q4 -26 6.5 -79t3.5 -109.5t0.5 -104t-2.5 -62.5zM1106 137q1 48 2.5 88t-7.5 86q-11 0 -24.5 1l-28 2t-29 0t-26.5 -7q-4 -26 -6 -46.5t-2 -40.5t1 -41t2 -48q13 -3 29.5 -4.5t33 -1.5t31.5 2t24 10zM790 144q0 48 1.5 88t-6.5 86q-22 0 -53 3t-55 -7
q-4 -26 -6 -47t-2 -41t1 -41t2 -47q13 -3 29.5 -4.5t33 -1.5t31.5 2.5t24 9.5zM335 611q0 49 1.5 88.5t-6.5 85.5q-11 0 -24.5 1.5t-28 2t-29 -0.5t-26.5 -7q-4 -26 -6 -46.5t-2 -40.5t1 -41t2 -47q13 -3 29.5 -4.5t33 -1.5t31.5 2.5t24 8.5z" />
    <glyph glyph-name="guilsinglleft" unicode="&#x2039;" horiz-adv-x="552" 
d="M523 808q-30 -57 -58.5 -106l-56 -94l-54.5 -87l-53 -85l49 -89l54.5 -97.5l54.5 -96l49 -83.5q-30 -4 -67.5 -8l-72.5 -8t-61 -5.5t-33 0.5q-64 94 -120.5 187.5t-105.5 190.5q63 101 118.5 199l114.5 201q40 3 79.5 1.5t73 -5t57 -8.5z" />
    <glyph glyph-name="guilsinglright" unicode="&#x203a;" horiz-adv-x="552" 
d="M48 70q29 57 57.5 106l56.5 94l54.5 87.5l52.5 86.5l-48.5 88l-54 97.5l-54.5 96l-49 84.5q30 2 67.5 7t72.5 8.5t61 5t33 -0.5q64 -94 120.5 -187.5t105.5 -191.5l-118.5 -197.5l-114.5 -201.5q-40 -3 -79.5 -1.5t-73 5.5t-57 8t-32.5 6z" />
    <glyph glyph-name="fraction" unicode="&#x2044;" horiz-adv-x="808" 
d="M792 918q-66 -102 -132.5 -219l-131.5 -240.5l-126.5 -249.5l-116.5 -245q-44 -5 -87.5 -5t-79.5 2t-62 5.5t-36 5.5l125.5 278.5t119 242.5t122.5 224.5t136 224.5q44 5 88 2.5t81 -7.5t63.5 -10.5t36.5 -8.5z" />
    <glyph glyph-name="fraction" unicode="&#x2215;" horiz-adv-x="808" 
d="M792 918q-66 -102 -132.5 -219l-131.5 -240.5l-126.5 -249.5l-116.5 -245q-44 -5 -87.5 -5t-79.5 2t-62 5.5t-36 5.5l125.5 278.5t119 242.5t122.5 224.5t136 224.5q44 5 88 2.5t81 -7.5t63.5 -10.5t36.5 -8.5z" />
    <glyph glyph-name="Euro" unicode="&#x20ac;" horiz-adv-x="834" 
d="M805 160q1 -25 -1 -53t-6.5 -52.5t-11.5 -44t-16 -26.5q-73 1 -149.5 3.5t-153.5 11t-152 24.5t-144 45q-17 24 -28 65.5t-17 95.5q-14 0 -27.5 -0.5t-27.5 -2.5q-13 26 -18.5 53t-5.5 51.5t5 45.5t13 33q11 0 24.5 0.5t28.5 0.5q0 16 0.5 31.5t1.5 32.5
q-14 -2 -26.5 -2.5t-26.5 -0.5q-12 21 -14 46t2 49t12 45t16 33q12 0 26 0.5t30 0.5q9 54 22 98t30 75q27 17 76.5 32.5t109.5 27.5t125 21t122 13t100.5 2.5t61.5 -11.5q2 -13 5.5 -31t6 -41t3 -50.5t-4.5 -59.5q-48 -5 -92.5 -7.5t-85.5 -6t-80 -12t-76 -26.5
q-1 -5 -2 -9.5t-3 -10.5q82 0 154 -1.5t114 -3.5q5 -12 9 -35t6 -48t1 -47t-6 -36q-75 -2 -151 -2h-152q-2 -17 -3 -33l-2 -33q48 0 94 -0.5t87 -1t75 -2l57 -2.5q5 -12 6 -35t0 -47t-4.5 -46t-8.5 -35q-75 -3 -149 -4t-149 -1q4 -14 9 -26q16 -12 46 -19t66.5 -10.5t76 -5
t74 -3t61 -4t37.5 -8.5z" />
    <glyph glyph-name="afii61352" unicode="&#x2116;" horiz-adv-x="1445" 
d="M929 415h414v-163h-414v163zM866 0h-269l-274 477v-477h-263v919h267l274 -476v476h265v-919zM1370 604q0 -84 -47 -130t-131 -46h-113q-84 0 -130.5 46t-46.5 130v151q0 86 46.5 131.5t130.5 45.5h113q84 0 131 -45.5t47 -131.5v-151zM1180 755q0 25 -24 25h-39
q-25 0 -25 -25v-151q0 -25 25 -25h39q24 0 24 25v151z" />
    <glyph glyph-name="trademark" unicode="&#x2122;" horiz-adv-x="950" 
d="M915 376q-31 -6 -62.5 -9t-65.5 4q-5 48 -9 95.5l-8 96.5q0 5 -5 6t-7 -2q-6 -19 -13 -45.5t-13.5 -55l-13 -54.5l-11.5 -46q-29 -2 -62 -4t-62 4l-26 94.5t-25 95.5q-2 6 -8 8t-7 -20q-2 -46 -4.5 -91t-4.5 -90q-24 -6 -48.5 -5t-53.5 5q-1 53 2.5 117.5t8.5 129
t10.5 120t8.5 88.5q46 4 92.5 5.5t90.5 1.5l4.5 -31l7.5 -52.5t8 -54t6 -35.5q4 -19 11.5 -18t11.5 18l16 74l22 101q47 5 92.5 4.5t87.5 -3.5l12 -226t17 -226zM384 702q-11 -2 -24.5 -1.5t-27.5 2t-26.5 2.5t-20.5 -1q-4 -77 -7.5 -157.5t-2.5 -159.5q-10 -7 -26.5 -11
t-34 -4.5t-35 1t-31.5 3.5q-3 14 -5 57t-2.5 94l-1 99t-0.5 73q-22 7 -51.5 4.5t-46.5 -7.5q-6 35 -3 65t6 66q38 5 81 8t88 3t89 -2t82 -6q4 -35 5.5 -65t-5.5 -63z" />
    <glyph glyph-name="partialdiff" unicode="&#x2202;" horiz-adv-x="884" 
d="M51 499q46 22 109.5 37t130.5 25t129.5 16l107.5 10q0 27 -5 57t-19 51l-83.5 19.5t-102 22l-102 19.5t-84.5 13q-2 24 1 52t8.5 55t12 50l10.5 37q33 2 82 0t105 -7t116 -12.5t115.5 -17t101.5 -21t76 -23.5q18 -34 32 -98.5t24 -145t14.5 -169t2.5 -168.5t-11.5 -146
t-28.5 -101q-86 -40 -180 -58.5t-184 -18t-170 19t-139 52.5q-20 34 -35 92.5t-24.5 124.5t-12 129t2.5 104zM332 329q-4 -11 -2.5 -26.5t6 -32t9.5 -32.5t8 -29q5 -6 24 -11t44.5 -7t53 0t48.5 10q24 63 23 146q-17 2 -47.5 3t-63 -0.5t-61 -6.5t-42.5 -14z" />
    <glyph glyph-name="product" unicode="&#x220f;" horiz-adv-x="898" 
d="M851 655q-13 -3 -36.5 -3.5t-53.5 0.5q-6 -313 -21 -627q-12 -8 -43.5 -12.5t-67 -7t-68.5 -2.5t-49 1q-4 75 -7.5 156.5t-5 166t-2 169.5t0.5 166h-46t-33 -3q-8 -153 -9 -313.5t0 -317.5q-25 -13 -55 -20t-62 -9.5t-65.5 0t-64.5 6.5q-5 20 -8.5 65.5t-5.5 106
t-2.5 129t-0.5 134v120.5v89q-24 3 -45.5 -1.5t-55.5 -2.5q-7 34 -8 65t1 63t6.5 63.5t8.5 67.5q89 10 191 14.5t207 6t207.5 -3t192.5 -12.5q10 -70 13 -129t-13 -125z" />
    <glyph glyph-name="summation" unicode="&#x2211;" horiz-adv-x="766" 
d="M715 727q-33 -3 -76 -1t-88.5 4.5t-89 4.5t-76.5 -2q33 -63 68.5 -123l76.5 -125q-25 -39 -44.5 -77l-38 -75t-37 -70t-40.5 -60q38 -1 82.5 -0.5l90.5 1t90 -0.5t81 -7q14 -45 8 -94.5t-20 -89.5q-33 -1 -79 -6t-100 -9t-113.5 -7t-120.5 -2t-120.5 7t-112.5 19
q-1 22 -3 48.5t-3 54.5t-0.5 55t4.5 49q25 36 42.5 70.5t32.5 67.5l29.5 64.5t33.5 61.5l-82.5 132.5t-64.5 113.5q-2 17 0 41.5t7.5 51.5t13 54t16.5 50q65 3 141 6t157 3t163.5 -4.5t160.5 -15.5q10 -46 12.5 -95.5t-1.5 -94.5z" />
    <glyph glyph-name="radical" unicode="&#x221a;" horiz-adv-x="968" 
d="M939 910q-3 -48 -11 -93t-26 -90q-37 -7 -75.5 -9t-77.5 -2t-78 1t-76 -2l-25 -131l-29 -161t-29 -173l-26 -168q-10 -14 -27 -27.5t-38 -27.5t-43.5 -25.5t-42.5 -19.5l-78 88t-76 88.5t-78 102t-84 127.5q23 38 48 71t56 59q24 -25 41.5 -46l33.5 -39l30.5 -34.5
t32.5 -34.5l25 134.5t25 124t32.5 131.5t46.5 157q56 6 107 8.5t112.5 1.5t140 -4z" />
    <glyph glyph-name="infinity" unicode="&#x221e;" horiz-adv-x="914" 
d="M818 160l-55.5 -23t-67.5 -22.5t-70 -13t-63 6.5q-19 11 -33.5 26t-27.5 32l-24.5 33t-25.5 28q-14 -9 -30.5 -25.5l-32.5 -32.5l-30.5 -30t-25.5 -20q-34 -5 -71 -0.5t-70.5 14t-62 24.5t-46.5 32q-12 72 -18 147t-6.5 141.5t4 117.5t12.5 76q10 16 27 32.5t39 31t48 26
t53 15.5q26 -8 52 -21t49 -30t41.5 -36t28.5 -38q7 13 20 34t32 43t44.5 42t58.5 31q18 2 49.5 -4.5t67 -19t69.5 -30t57 -37.5q18 -27 28 -70.5t14.5 -96.5t3 -109.5t-6.5 -108.5t-13 -95.5t-18 -69.5zM697 498q-10 11 -29.5 17t-41 8.5t-41.5 0t-31 -8.5
q-5 -11 -6.5 -30.5t-1 -43t3 -47t6.5 -41.5q15 -3 35.5 -4t40 0.5t35.5 5t22 9.5q5 12 7 29.5t2 36.5t-0.5 37t-0.5 31zM350 486q-12 5 -27.5 7.5t-32 3t-32.5 -1t-29 -6.5q-10 -7 -15 -21t-5.5 -30t1.5 -32t6 -25q6 -7 25 -11.5t40 -7t39 -1.5t22 3q9 7 12 23.5t3 35.5
t-2 36.5t-5 26.5z" />
    <glyph glyph-name="integral" unicode="&#x222b;" horiz-adv-x="786" 
d="M752 779q-60 -8 -108 -18.5t-83 -40.5q-9 -21 -14 -69.5t-7.5 -111.5t-3 -135t-2 -141t-4.5 -128.5t-9 -98.5q-19 -14 -57.5 -26.5t-86 -22t-99.5 -16.5t-97.5 -8.5t-80 0t-47.5 10.5q-2 24 -4.5 67t4.5 98q28 2 50.5 3t43.5 4.5t43 11.5t48 22q1 42 -1 101t-3.5 125
t-1.5 135.5t5 133t15.5 116.5t30.5 85q49 24 105 36.5t114.5 18.5t116 7.5t108.5 2.5q6 -6 11 -24t8 -41.5t4.5 -48.5t1.5 -47z" />
    <glyph glyph-name="approxequal" unicode="&#x2248;" horiz-adv-x="710" 
d="M683 717l-22 -36.5l-33.5 -54.5t-40.5 -61t-44.5 -57t-44 -41t-39.5 -14q-30 4 -68 22.5t-74.5 39.5t-65.5 35.5t-40 8.5q-7 -4 -16.5 -13t-19.5 -21.5t-20 -27l-19 -28.5q-36 20 -60 43.5t-35 47.5q15 36 35.5 77.5t44 79t49 67.5t49.5 44q26 14 54.5 5.5t59.5 -27
t63.5 -43t66.5 -42.5q23 -12 45.5 1t41.5 34q22 24 41 57q27 -17 52.5 -41t39.5 -55zM674 296l-22 -36.5l-33.5 -54.5t-40.5 -61.5t-44.5 -57t-44 -41t-39.5 -13.5q-30 4 -68 22.5t-74.5 39.5t-65.5 35.5t-40 8.5q-7 -4 -16.5 -13t-19.5 -21.5t-20 -27l-19 -28.5
q-36 20 -60 43.5t-35 47.5q15 36 35.5 77.5t44 79t49 67.5t49.5 43q26 15 54.5 6.5t59.5 -27t63.5 -43t66.5 -42.5q23 -12 45.5 1t41.5 33q22 24 41 58q27 -17 52.5 -41t39.5 -55z" />
    <glyph glyph-name="notequal" unicode="&#x2260;" horiz-adv-x="478" 
d="M455 833l-29 -77l-30 -82q7 -1 12.5 -1t10.5 -1q3 -17 5 -45t3 -58t0.5 -58.5t-3.5 -44.5q-25 -3 -50 -4l-51 -2q-8 -24 -15.5 -49l-15.5 -50q40 0 73.5 -1t53.5 -4q3 -16 5 -44.5t3 -58.5t0.5 -58t-3.5 -45q-48 -5 -98 -6l-101 -2q-8 -32 -17 -61t-17 -58
q-23 -4 -45.5 -4.5t-41 1.5t-32.5 5t-19 5q8 26 14.5 51.5t13.5 49.5q-5 -1 -9.5 -1t-9.5 -2q-6 29 -8 61.5t-1 63.5t4.5 57.5t7.5 43.5q14 2 34.5 3t46.5 2l14 48t15 48q-59 -4 -113 -11q-6 29 -8 61.5t-1 63.5t4.5 57.5t7.5 43.5q28 2 78.5 4t105.5 3l66 176q23 4 46 2.5
t42.5 -5.5t33 -9.5z" />
    <glyph glyph-name="lessequal" unicode="&#x2264;" horiz-adv-x="542" 
d="M492 12q-52 -3 -106.5 -4.5t-109 -2.5t-109 -4t-106.5 -9q-7 28 -9.5 59t-1 61t5.5 56.5t9 41.5q21 2 55 3t74 2t83 1h83t73 -1t53 -3q3 -16 5.5 -43t4 -56.5t0.5 -56.5t-4 -44zM492 897q-55 -93 -106.5 -163l-100.5 -140l45 -71.5l51 -79l51 -77.5l46 -69l-63 -6.5
t-67.5 -6t-57.5 -3.5t-31 0q-60 76 -112.5 152t-98.5 155l110.5 160.5l107.5 162.5q37 4 74 2.5t68 -4.5t53.5 -6.5t30.5 -5.5z" />
    <glyph glyph-name="greaterequal" unicode="&#x2265;" horiz-adv-x="542" 
d="M492 12q-52 -3 -106.5 -4.5t-109 -2.5t-109 -4t-106.5 -9q-7 28 -9.5 59t-1 61t5.5 56.5t9 41.5q21 2 55 3t74 2t83 1h83t73 -1t53 -3q3 -16 5.5 -43t4 -56.5t0.5 -56.5t-4 -44zM79 293q56 91 107.5 162l100.5 139l-45 72.5l-51 79l-51.5 78l-46.5 68.5q28 2 63.5 6t68 6
t57.5 4t31 0q61 -76 114 -151.5t99 -154.5l-112 -161.5l-108 -162.5q-37 -3 -74.5 -1.5t-68.5 4.5t-53.5 7t-30.5 5z" />
    <glyph glyph-name="lozenge" unicode="&#x25ca;" horiz-adv-x="804" 
d="M773 458l-118 -198.5l-115 -201.5q-67 -18 -134 -20t-132 13q-64 94 -120.5 187.5t-105.5 190.5q63 101 118.5 199l114.5 201q26 5 61.5 7t73 3.5t72 0t59.5 -3.5q65 -94 121 -187.5t105 -190.5zM520 450l-47 85l-52 95l-61 -99l-59 -93l47.5 -85.5l52.5 -94.5l60.5 97.5
z" />
    <glyph glyph-name="fi" unicode="&#xfb01;" horiz-adv-x="1160" 
d="M756 800q-56 -4 -116 -17t-106 -43q-9 -16 -15 -43.5t-10 -86.5q28 -5 52 -6t47 -1t46.5 0.5t48.5 -1.5q6 -26 8 -46t1.5 -40t-4.5 -40t-10 -45q-36 -5 -57.5 -6.5t-40.5 -3.5t-40.5 -5t-57.5 -10q-1 -50 -1 -109v-114t0.5 -101.5t1.5 -70.5q-32 -7 -70 -11t-76.5 -6
t-74 -1.5t-62.5 4.5q-2 26 -4 69.5t-4 97.5t-3 116t-1 127l-79 -4t-69 -7q-5 24 -6.5 51t-0.5 53.5t3.5 49t5.5 36.5q20 2 61 3.5t89 1.5q2 54 6 103t10 89.5t14.5 69t19.5 43.5q65 24 119.5 36.5t107.5 18.5t109 7t124 2q9 -6 15.5 -24t11 -41t6.5 -49t1 -46zM1092 667
q0 -87 -1.5 -166t-4.5 -157.5t-6.5 -159t-8.5 -169.5q-11 -6 -43 -9.5t-68 -6t-69.5 -2.5t-47.5 1q-11 163 -12.5 334t4.5 320q30 6 63 9t66.5 4.5t66 1.5h61.5zM1103 799q-6 -12 -27.5 -22t-49.5 -16t-60 -9.5t-60 -2t-48.5 6t-26.5 14.5q-6 11 -7.5 28t-0.5 36t3.5 37
t4.5 28q3 18 19.5 31t37.5 22t42.5 13.5t34.5 7.5q11 2 26.5 0t31.5 -6t31.5 -9t25.5 -11q14 -34 21 -72t2 -76z" />
    <glyph glyph-name="fl" unicode="&#xfb02;" horiz-adv-x="1230" 
d="M756 800q-56 -4 -116 -17t-106 -43q-9 -16 -15 -43.5t-10 -86.5q28 -5 52 -6t47 -1t46.5 0.5t48.5 -1.5q6 -26 8 -46t1.5 -40t-4.5 -40t-10 -45q-36 -5 -57.5 -6.5t-40.5 -3.5t-40.5 -5t-57.5 -10q-1 -50 -1 -109v-114t0.5 -101.5t1.5 -70.5q-32 -7 -70 -11t-76.5 -6
t-74 -1.5t-62.5 4.5q-2 26 -4 69.5t-4 97.5t-3 116t-1 127l-79 -4t-69 -7q-5 24 -6.5 51t-0.5 53.5t3.5 49t5.5 36.5q20 2 61 3.5t89 1.5q2 54 6 103t10 89.5t14.5 69t19.5 43.5q65 24 119.5 36.5t107.5 18.5t109 7t124 2q9 -6 15.5 -24t11 -41t6.5 -49t1 -46zM1159 915
q-1 -47 -2 -128t-1.5 -175t-0.5 -194v-185.5v-148v-82.5l-56.5 -6.5t-49.5 -3t-65.5 1.5t-105.5 5q-1 39 -3 108.5t-4 154.5t-4.5 178.5t-3.5 180.5t-0.5 161t3.5 120q8 3 29 6.5t49.5 5.5t61 2.5l62.5 1t54.5 -0.5t36.5 -2z" />
    <glyph glyph-name="NULL" horiz-adv-x="0" 
 />
    <glyph glyph-name="apple" horiz-adv-x="1495" 
 />
    <glyph glyph-name="DLE" horiz-adv-x="2640" 
 />
    </font>
</defs>
</svg>
